<?xml version="1.0" encoding="utf-8"?>
<!-- Generator: Adobe Illustrator 16.0.0, SVG Export Plug-In . SVG Version: 6.00 Build 0)  -->
<!DOCTYPE svg PUBLIC "-//W3C//DTD SVG 1.1//EN" "http://www.w3.org/Graphics/SVG/1.1/DTD/svg11.dtd">
<svg version="1.1" id="Layer_1" xmlns="http://www.w3.org/2000/svg" xmlns:xlink="http://www.w3.org/1999/xlink" x="0px" y="0px"
	 width="64px" height="64px" viewBox="-0.5 -0.5 64 64" enable-background="new -0.5 -0.5 64 64" xml:space="preserve">
<path fill="#4495D4" d="M51.151,19.336c4.069-10.564-3.839-9.825-3.839-9.825c-5.073,0-11.414,4.62-11.414,4.62
	s-7.564-2.039-15.129,2.537c-8.245,5.255-7.973,14.586-7.973,14.586C19.5,21.65,28.833,17.756,28.833,17.756v0.634
	c-13.771,9.417-17.033,23.192-17.848,26.001c-0.815,2.808-0.271,9.109,5.527,9.109c5.799,0,11.688-4.67,11.688-4.67
	s1.268,0.272,4.71,0.272c14.496,0,17.938-12.776,17.938-12.776H37.981c0,0-0.906,4.167-5.525,4.167
	c-6.342,0-5.979-6.613-5.979-6.613h24.551c1.177-17.033-13.681-19.478-13.681-19.478s5.252-3.715,9.786-3.715
	c7.187,0,3.787,8.417,3.787,8.417L51.151,19.336z M27.479,48.642c0,0-8.849,5.37-12.82,1.649c-2.128-3.721,1.33-8.991,1.33-8.991
	S18.915,46.727,27.479,48.642z M38.122,28.085H26.445c0,0-0.147-5.69,5.986-5.69C38.356,22.395,38.122,28.085,38.122,28.085z"/>
</svg>
