<?xml version="1.0" encoding="utf-8"?>
<!-- Generator: Adobe Illustrator 16.0.0, SVG Export Plug-In . SVG Version: 6.00 Build 0)  -->
<!DOCTYPE svg PUBLIC "-//W3C//DTD SVG 1.1//EN" "http://www.w3.org/Graphics/SVG/1.1/DTD/svg11.dtd">
<svg version="1.1" id="Layer_1" xmlns="http://www.w3.org/2000/svg" xmlns:xlink="http://www.w3.org/1999/xlink" x="0px" y="0px"
	 width="64px" height="64.001px" viewBox="-0.5 -0.5 64 64.001" enable-background="new -0.5 -0.5 64 64.001" xml:space="preserve">
<path fill="#D33829" d="M50.5,52.5h-38c-1.104,0-2-0.896-2-2v-38c0-1.104,0.896-2,2-2h38c1.104,0,2,0.896,2,2v38
	C52.5,51.604,51.604,52.5,50.5,52.5z"/>
<path fill-rule="evenodd" clip-rule="evenodd" fill="#FFFFFF" d="M43.696,20.318c-1.185-1.015-2.937-1.073-4.174-0.142
	c-1.254,0.939-1.683,2.644-0.998,4.093c0.071,0.151,0.138,0.303,0.197,0.456c0.265,0.659,0.422,1.341,0.422,2.065
	c-0.007,2.054-1.146,3.856-2.915,4.752c-0.326,0.165-0.675,0.301-1.042,0.4c-2.318,0.626-4.766-0.348-5.986-2.424
	c-1.621-2.762-3.203-5.545-4.824-8.306c-0.978-1.664-2.959-2.188-4.581-1.25c-1.594,0.924-2.117,2.945-1.158,4.607
	c3.312,5.745,6.636,11.482,9.954,17.222c0.272,0.47,0.629,0.86,1.084,1.155c1.642,1.071,3.743,0.54,4.763-1.218
	c2.143-3.692,4.276-7.391,6.415-11.085c1.155-2.003,2.315-4.003,3.47-6.008C45.203,23.109,44.947,21.388,43.696,20.318z"/>
</svg>
