<?xml version="1.0" encoding="utf-8"?>
<!-- Generator: Adobe Illustrator 16.0.0, SVG Export Plug-In . SVG Version: 6.00 Build 0)  -->
<!DOCTYPE svg PUBLIC "-//W3C//DTD SVG 1.1//EN" "http://www.w3.org/Graphics/SVG/1.1/DTD/svg11.dtd">
<svg version="1.1" id="Layer_1" xmlns="http://www.w3.org/2000/svg" xmlns:xlink="http://www.w3.org/1999/xlink" x="0px" y="0px"
	 width="60px" height="60px" viewBox="-0.5 -0.5 60 60" enable-background="new -0.5 -0.5 60 60" xml:space="preserve">
<circle fill="#DE5833" cx="28.498" cy="28.5" r="22.5"/>
<g>
	<g>
		<g>
			<g>
				<g>
					<g>
						<g>
							<g>
								<g>
									<g>
										<g>
											<g>
												<g>
													<defs>
														<path id="SVGID_1_" d="M47.389,28.499c0,10.416-8.471,18.89-18.889,18.89c-10.416,0-18.886-8.473-18.886-18.89
															c0-10.414,8.472-18.887,18.886-18.887C38.916,9.612,47.389,18.085,47.389,28.499z"/>
													</defs>
													<clipPath id="SVGID_2_">
														<use xlink:href="#SVGID_1_"  overflow="visible"/>
													</clipPath>
													<g clip-path="url(#SVGID_2_)">
														<path fill="#FFFFFF" d="M36.719,55.466c-0.642-2.957-4.38-9.655-5.795-12.491c-1.418-2.834-2.835-6.824-2.189-9.4
															c0.116-0.469-1.229-4.042-0.84-4.289c3.001-1.962,3.794,0.214,5-0.665c0.617-0.454,1.463,0.374,1.679-0.377
															c0.769-2.704-1.075-7.416-3.136-9.475c-0.67-0.67-1.702-1.094-2.867-1.316c-0.448-0.612-1.17-1.2-2.19-1.741
															c-1.14-0.606-3.618-1.408-4.9-1.621c-0.889-0.148-1.092,0.102-1.469,0.166c0.352,0.031,2.034,0.86,2.36,0.909
															c-0.327,0.22-1.288-0.01-1.901,0.265c-0.31,0.139-0.54,0.671-0.538,0.921c1.753-0.176,4.49-0.004,6.107,0.714
															c-1.289,0.146-3.244,0.309-4.085,0.751c-2.444,1.29-3.524,4.298-2.881,7.905c0.646,3.604,3.479,16.741,4.38,21.115
															c0.902,4.38-1.934,7.215-3.733,7.984l1.931,0.135l-0.643,1.417c2.315,0.254,4.893-0.515,4.893-0.515
															c-0.514,1.416-3.993,1.936-3.993,1.936s1.675,0.51,4.379-0.521c2.703-1.029,4.375-1.672,4.375-1.672l1.291,3.346
															L34.4,56.5l1.029,2.574C35.432,59.074,37.361,58.43,36.719,55.466z"/>
														<path fill="#FFFFFF" d="M37.283,54.9c-0.645-2.961-4.381-9.657-5.797-12.49c-1.42-2.836-2.836-6.824-2.188-9.399
															c0.116-0.468,0.122-2.383,0.509-2.639c3-1.966,2.791-0.067,3.995-0.948c0.622-0.453,1.114-0.999,1.337-1.752
															c0.771-2.704-1.078-7.414-3.135-9.476c-0.671-0.671-1.704-1.092-2.866-1.313c-0.449-0.615-1.172-1.202-2.193-1.745
															c-1.926-1.022-4.312-1.431-6.523-1.032c0.354,0.034,1.162,0.765,1.488,0.812c-0.494,0.334-1.805,0.292-1.796,1.035
															c1.756-0.173,3.679,0.104,5.299,0.82c-1.287,0.146-2.483,0.465-3.325,0.91c-2.447,1.284-3.09,3.859-2.447,7.469
															c0.645,3.606,3.479,16.741,4.377,21.116c0.902,4.377-1.93,7.211-3.733,7.983l1.931,0.129l-0.643,1.42
															c2.317,0.257,4.894-0.517,4.894-0.517c-0.514,1.419-3.994,1.938-3.994,1.938s1.673,0.516,4.378-0.521
															c2.708-1.032,4.379-1.668,4.379-1.668l1.285,3.344l2.451-2.444l1.029,2.575C35.996,58.508,37.93,57.863,37.283,54.9z"
															/>
														<circle fill="#2C4E8D" cx="23.832" cy="25.335" r="1.353"/>
														<circle fill="#FFFFFF" cx="24.431" cy="24.885" r="0.35"/>
														<circle fill="#2C4E8D" cx="32.873" cy="24.533" r="1.161"/>
														<path fill="#FFFFFF" d="M33.087,24.146c0-0.165,0.14-0.302,0.3-0.302c0.17,0,0.301,0.136,0.301,0.302
															s-0.135,0.301-0.301,0.301C33.227,24.449,33.087,24.313,33.087,24.146z"/>
														
															<linearGradient id="SVGID_3_" gradientUnits="userSpaceOnUse" x1="2141.1572" y1="-3244.8672" x2="2144.2188" y2="-3244.8672" gradientTransform="matrix(1 0 0 -1 -2120 -3223)">
															<stop  offset="0.0056" style="stop-color:#5D7CFE"/>
															<stop  offset="0.691" style="stop-color:#192DC5"/>
														</linearGradient>
														<path fill="url(#SVGID_3_)" d="M24.219,21.418c0,0-1.021-0.461-2.011,0.16c-0.99,0.623-0.954,1.257-0.954,1.257
															s-0.527-1.172,0.877-1.743C23.533,20.517,24.219,21.418,24.219,21.418z"/>
														
															<linearGradient id="SVGID_4_" gradientUnits="userSpaceOnUse" x1="2150.7832" y1="-3243.9365" x2="2153.5703" y2="-3243.9365" gradientTransform="matrix(1 0 0 -1 -2120 -3223)">
															<stop  offset="0.0056" style="stop-color:#5D7CFE"/>
															<stop  offset="0.691" style="stop-color:#192DC5"/>
														</linearGradient>
														<path fill="url(#SVGID_4_)" d="M33.57,21.323c0,0-0.731-0.418-1.301-0.409c-1.168,0.018-1.486,0.531-1.486,0.531
															s0.195-1.231,1.689-0.984C33.284,20.596,33.57,21.323,33.57,21.323z"/>
													</g>
												</g>
											</g>
										</g>
									</g>
								</g>
							</g>
						</g>
					</g>
				</g>
			</g>
			<path fill="#FDD204" d="M27.974,30.503c0.135-0.821,2.249-2.365,3.744-2.46c1.503-0.095,1.97-0.071,3.22-0.372
				c1.25-0.298,4.479-1.102,5.371-1.516c0.896-0.411,4.676,0.204,2.017,1.692c-1.156,0.647-4.267,1.832-6.491,2.496
				c-2.225,0.665-3.572-0.634-4.309,0.456c-0.582,0.872-0.123,2.059,2.533,2.309c3.58,0.334,7.018-1.613,7.402-0.582
				c0.377,1.035-3.081,2.328-5.189,2.367c-2.104,0.037-6.354-1.391-6.98-1.834C28.646,32.611,27.794,31.581,27.974,30.503z"/>
		</g>
	</g>
	<g>
		<path fill="#65BC46" d="M29.076,41.68c0,0-5.037-2.688-5.118-1.596c-0.086,1.089,0,5.538,0.586,5.875
			c0.589,0.337,4.785-2.18,4.785-2.18L29.076,41.68z"/>
		<path fill="#65BC46" d="M31.006,41.51c0,0,3.443-2.603,4.2-2.436c0.758,0.169,0.922,5.537,0.252,5.797
			c-0.673,0.248-4.61-1.366-4.61-1.366L31.006,41.51z"/>
		<path fill="#4D913B" d="M27.857,41.963c0,1.762-0.254,2.52,0.503,2.688c0.757,0.168,2.179,0,2.685-0.336
			c0.501-0.336,0.083-2.602-0.086-3.025C30.792,40.871,27.857,41.207,27.857,41.963z"/>
		<path fill="#65BC46" d="M28.36,41.479c0,1.761-0.254,2.517,0.503,2.685c0.754,0.17,2.18,0,2.682-0.335
			c0.504-0.336,0.084-2.602-0.085-3.023C31.296,40.384,28.36,40.723,28.36,41.479z"/>
	</g>
</g>
<g>
	<path fill="none" stroke="#FFFFFF" stroke-width="1.7" stroke-miterlimit="10" d="M28.502,8.808
		C17.634,8.808,8.81,17.631,8.81,28.5c0,10.869,8.824,19.693,19.692,19.693S48.193,39.369,48.193,28.5
		C48.194,17.631,39.37,8.808,28.502,8.808L28.502,8.808"/>
</g>
</svg>
