<?xml version="1.0" encoding="utf-8"?>
<!-- Generator: Adobe Illustrator 16.0.4, SVG Export Plug-In . SVG Version: 6.00 Build 0)  -->
<!DOCTYPE svg PUBLIC "-//W3C//DTD SVG 1.1//EN" "http://www.w3.org/Graphics/SVG/1.1/DTD/svg11.dtd" [
	<!ENTITY ns_extend "http://ns.adobe.com/Extensibility/1.0/">
	<!ENTITY ns_ai "http://ns.adobe.com/AdobeIllustrator/10.0/">
	<!ENTITY ns_graphs "http://ns.adobe.com/Graphs/1.0/">
	<!ENTITY ns_vars "http://ns.adobe.com/Variables/1.0/">
	<!ENTITY ns_imrep "http://ns.adobe.com/ImageReplacement/1.0/">
	<!ENTITY ns_sfw "http://ns.adobe.com/SaveForWeb/1.0/">
	<!ENTITY ns_custom "http://ns.adobe.com/GenericCustomNamespace/1.0/">
	<!ENTITY ns_adobe_xpath "http://ns.adobe.com/XPath/1.0/">
]>
<svg version="1.1" id="Layer_1" xmlns:x="&ns_extend;" xmlns:i="&ns_ai;" xmlns:graph="&ns_graphs;"
	 xmlns="http://www.w3.org/2000/svg" xmlns:xlink="http://www.w3.org/1999/xlink" x="0px" y="0px" width="250px" height="200px"
	 viewBox="0 0 250 200" enable-background="new 0 0 250 200" xml:space="preserve">
<metadata>
	<sfw  xmlns="&ns_sfw;">
		<slices></slices>
		<sliceSourceBounds  y="-29.418" x="-53.246" width="204.872" height="156.819" bottomLeftOrigin="true"></sliceSourceBounds>
	</sfw>
</metadata>
<g>
	<g>
		<g>
			<g>
				<g>
					<g>
						<g>
							<g>
								<defs>
									<path id="SVGID_1_" d="M178.374,77.707c0,28.316-23.036,51.354-51.356,51.354c-28.312,0-51.348-23.039-51.348-51.354
										c0-28.313,23.036-51.348,51.348-51.348C155.338,26.358,178.374,49.394,178.374,77.707z"/>
								</defs>
								<clipPath id="SVGID_2_">
									<use xlink:href="#SVGID_1_"  overflow="visible"/>
								</clipPath>
								<g clip-path="url(#SVGID_2_)">
									<path fill="#D5D7D8" d="M147.982,154.041c-1.801-8.285-12.262-27.039-16.229-34.969c-3.965-7.93-7.939-19.11-6.129-26.322
										c0.327-1.312-3.436-11.307-2.354-12.014c8.416-5.49,10.632,0.598,14.001-1.863c1.736-1.273,4.09,1.047,4.691-1.059
										c2.158-7.568-3.006-20.76-8.77-26.527c-1.885-1.879-4.771-3.059-8.029-3.686c-1.254-1.713-3.275-3.361-6.138-4.879
										c-3.188-1.697-10.121-3.938-13.717-4.535c-2.492-0.41-3.055,0.287-4.119,0.461c0.992,0.088,5.699,2.414,6.615,2.549
										c-0.916,0.619-3.607-0.029-5.324,0.742c-0.865,0.391-1.512,1.877-1.506,2.58c4.91-0.496,12.574-0.016,17.1,2
										c-3.602,0.41-9.08,0.867-11.436,2.105c-6.848,3.609-9.873,12.035-8.07,22.133c1.804,10.075,9.738,46.849,12.262,59.129
										c2.525,12.263-5.408,20.189-10.455,22.354l5.408,0.363l-1.801,3.967c6.484,0.719,13.695-1.441,13.695-1.441
										c-1.438,3.965-11.176,5.412-11.176,5.412s4.691,1.438,12.258-1.447c7.575-2.883,12.264-4.688,12.264-4.688l3.604,9.373
										l6.854-6.846l2.886,7.211C144.375,164.143,149.785,162.336,147.982,154.041z"/>
									<path fill="#FFFFFF" d="M150.16,152.359c-1.795-8.289-12.256-27.043-16.227-34.978s-7.936-19.112-6.129-26.321
										c0.334-1.309,0.34-6.668,1.428-7.379c8.41-5.494,7.812-0.184,11.186-2.645c1.74-1.27,3.133-2.805,3.738-4.912
										c2.164-7.572-3.006-20.76-8.773-26.529c-1.879-1.879-4.768-3.062-8.025-3.686c-1.252-1.717-3.271-3.361-6.129-4.881
										c-5.391-2.863-12.074-4.006-18.266-2.883c0.99,0.09,3.256,2.137,4.168,2.273c-1.381,0.936-5.053,0.816-5.029,2.896
										c4.916-0.492,10.303,0.285,14.834,2.297c-3.602,0.41-6.955,1.299-9.311,2.543c-6.854,3.602-8.656,10.812-6.854,20.914
										c1.807,10.096,9.742,46.871,12.256,59.126c2.527,12.259-5.402,20.188-10.449,22.353l5.408,0.359l-1.801,3.973
										c6.484,0.72,13.695-1.44,13.695-1.44c-1.438,3.972-11.176,5.406-11.176,5.406s4.686,1.44,12.258-1.445
										c7.578-2.883,12.27-4.687,12.27-4.687l3.602,9.373l6.854-6.853l2.891,7.214C146.564,162.455,151.969,160.65,150.16,152.359
										z"/>
									<path fill="#2D4F8E" d="M108.711,69.574c0-2.092,1.693-3.787,3.789-3.787c2.09,0,3.785,1.695,3.785,3.787
										c0,2.094-1.695,3.787-3.785,3.787C110.404,73.361,108.711,71.668,108.711,69.574z"/>
									<path fill="#FFFFFF" d="M113.197,68.312c0-0.545,0.441-0.984,0.98-0.984c0.543,0,0.984,0.439,0.984,0.984
										c0,0.543-0.441,0.984-0.984,0.984C113.639,69.297,113.197,68.855,113.197,68.312z"/>
									<path fill="#2D4F8E" d="M134.557,67.328c0-1.793,1.461-3.25,3.252-3.25c1.801,0,3.256,1.457,3.256,3.25
										c0,1.801-1.455,3.258-3.256,3.258C136.018,70.586,134.557,69.129,134.557,67.328z"/>
									<path fill="#FFFFFF" d="M138.414,66.246c0-0.463,0.379-0.842,0.838-0.842c0.477,0,0.844,0.379,0.844,0.842
										c0,0.469-0.367,0.842-0.844,0.842C138.793,67.088,138.414,66.715,138.414,66.246z"/>
									
										<linearGradient id="SVGID_3_" gradientUnits="userSpaceOnUse" x1="1107.0088" y1="1626.8633" x2="1115.5762" y2="1626.8633" gradientTransform="matrix(1 0 0 1 -1002 -1567)">
										<stop  offset="0.0056" style="stop-color:#6176B9"/>
										<stop  offset="0.691" style="stop-color:#394A9F"/>
									</linearGradient>
									<path fill="url(#SVGID_3_)" d="M113.576,58.601c0,0-2.854-1.291-5.629,0.453c-2.77,1.742-2.668,3.523-2.668,3.523
										s-1.473-3.283,2.453-4.891C111.662,56.076,113.576,58.601,113.576,58.601z"/>
									
										<linearGradient id="SVGID_4_" gradientUnits="userSpaceOnUse" x1="1133.9629" y1="1624.2539" x2="1141.7676" y2="1624.2539" gradientTransform="matrix(1 0 0 1 -1002 -1567)">
										<stop  offset="0.0056" style="stop-color:#6176B9"/>
										<stop  offset="0.691" style="stop-color:#394A9F"/>
									</linearGradient>
									<path fill="url(#SVGID_4_)" d="M139.768,58.341c0,0-2.051-1.172-3.643-1.152c-3.268,0.043-4.162,1.488-4.162,1.488
										s0.549-3.445,4.734-2.754C138.963,56.3,139.768,58.341,139.768,58.341z"/>
								</g>
							</g>
						</g>
					</g>
				</g>
			</g>
		</g>
	</g>
	<path fill="#FDD20A" d="M124.09,84.178c0.379-2.291,6.299-6.625,10.49-6.887c4.201-0.264,5.51-0.205,9.01-1.043
		c3.508-0.838,12.535-3.088,15.033-4.242c2.504-1.156,13.102,0.572,5.631,4.738c-3.234,1.809-11.945,5.131-18.172,6.988
		c-6.219,1.861-9.99-1.777-12.059,1.281c-1.646,2.432-0.334,5.762,7.098,6.453c10.037,0.93,19.66-4.52,20.719-1.625
		c1.064,2.895-8.625,6.508-14.527,6.623c-5.891,0.111-17.773-3.896-19.553-5.137C125.975,90.088,123.596,87.197,124.09,84.178z"/>
</g>
<g>
	<g>
		<path fill="#FFFFFF" d="M22.254,179.457v-24.598h8.914c8.487,0,12.352,6.236,12.352,12.033c0,6.254-3.819,12.562-12.352,12.562
			L22.254,179.457L22.254,179.457z M25.088,176.623h6.08c6.575,0,9.518-4.904,9.518-9.766c0-4.465-2.979-9.271-9.518-9.271h-6.08
			V176.623z"/>
	</g>
	<g>
		<path fill="#FFFFFF" d="M54.745,179.74c-4.554,0-7.497-3.137-7.497-7.992v-9.551h2.657v9.516c0,3.496,2.034,5.584,5.442,5.584
			c3.195-0.035,5.513-2.488,5.513-5.832v-9.268h2.657v17.26h-2.414l-0.152-3.002l-0.412,0.518
			C59.107,178.773,57.158,179.705,54.745,179.74z"/>
	</g>
	<g>
		<path fill="#FFFFFF" d="M76.476,179.775c-4.49,0-9.02-2.771-9.02-8.949c0-5.354,3.625-8.949,9.02-8.949
			c2.361,0,4.436,0.842,6.168,2.502l-1.67,1.734c-1.175-1.096-2.781-1.721-4.427-1.721c-3.768,0-6.399,2.646-6.399,6.434
			c0,4.445,3.196,6.436,6.364,6.436c1.782,0,3.4-0.636,4.573-1.791l1.736,1.736C81.074,178.912,78.94,179.775,76.476,179.775z"/>
	</g>
	<g>
		<polygon fill="#FFFFFF" points="97.373,179.457 88.938,171.021 88.938,179.457 86.316,179.457 86.316,154.895 88.938,154.895 
			88.938,169.752 96.311,162.197 99.748,162.197 91.614,170.331 100.741,179.422 100.741,179.457 		"/>
	</g>
	<g>
		<path fill="#FFFFFF" d="M104.007,179.457v-24.598h8.913c8.487,0,12.354,6.236,12.354,12.033c0,6.254-3.815,12.562-12.354,12.562
			L104.007,179.457L104.007,179.457z M106.84,176.623h6.08c6.575,0,9.519-4.904,9.519-9.766c0-4.465-2.979-9.271-9.519-9.271h-6.08
			V176.623z"/>
	</g>
	<g>
		<path fill="#FFFFFF" d="M136.496,179.74c-4.555,0-7.496-3.137-7.496-7.992v-9.551h2.657v9.516c0,3.496,2.034,5.584,5.44,5.584
			c3.19-0.035,5.514-2.488,5.514-5.832v-9.268h2.656v17.26h-2.416l-0.149-3.002l-0.412,0.518
			C140.857,178.773,138.909,179.705,136.496,179.74z"/>
	</g>
	<g>
		<path fill="#FFFFFF" d="M158.229,179.775c-4.49,0-9.021-2.771-9.021-8.949c0-5.354,3.625-8.949,9.021-8.949
			c2.36,0,4.438,0.842,6.168,2.502l-1.67,1.734c-1.176-1.096-2.781-1.721-4.428-1.721c-3.768,0-6.398,2.646-6.398,6.434
			c0,4.445,3.197,6.436,6.363,6.436c1.782,0,3.4-0.636,4.573-1.791l1.685,1.688l-0.088,0.09l0.049,0.049
			C162.753,178.941,160.65,179.775,158.229,179.775z"/>
	</g>
	<g>
		<polygon fill="#FFFFFF" points="179.125,179.457 170.689,171.021 170.689,179.457 168.068,179.457 168.068,154.895 
			170.689,154.895 170.689,169.752 178.062,162.197 181.501,162.197 173.367,170.331 182.493,179.422 182.493,179.457 		"/>
	</g>
	<g>
		<path fill="#FFFFFF" d="M196.408,179.918c-9.457,0-12.812-6.75-12.812-12.529c-0.019-3.765,1.256-7.125,3.584-9.467
			c2.293-2.305,5.473-3.523,9.193-3.523c3.367,0,6.537,1.279,8.938,3.604l-1.604,1.869c-1.889-1.763-4.684-2.853-7.329-2.853
			c-6.854,0-9.979,5.375-9.979,10.369c0,4.909,3.104,9.873,10.05,9.873c2.528,0,4.886-0.867,6.811-2.515l0.089-0.074v-6.062h-7.729
			v-2.479h10.276v9.646C203.245,178.574,200.152,179.918,196.408,179.918z"/>
	</g>
	<g>
		<path fill="#FFFFFF" d="M218.143,179.775c-5.187,0-8.949-3.748-8.949-8.914c0-5.246,3.769-9.055,8.949-9.055
			c5.289,0,8.983,3.723,8.983,9.055C227.126,176.027,223.348,179.775,218.143,179.775z M218.177,164.215
			c-3.726,0-6.327,2.734-6.327,6.646c0,3.729,2.646,6.436,6.293,6.436c3.709,0,6.326-2.646,6.362-6.434
			C224.505,167.01,221.844,164.215,218.177,164.215z"/>
	</g>
</g>
<g>
	<path fill="#65BC46" d="M128.633,115.475c0,0-14.1-7.521-14.33-4.47c-0.238,3.056,0,15.509,1.643,16.451
		c1.646,0.938,13.395-6.108,13.395-6.108L128.633,115.475z"/>
	<path fill="#65BC46" d="M134.035,115.001c0,0,9.635-7.285,11.754-6.815c2.111,0.479,2.582,15.51,0.701,16.227
		c-1.881,0.693-12.908-3.814-12.908-3.814L134.035,115.001z"/>
	<path fill="#43A244" d="M125.219,116.271c0,4.931-0.709,7.049,1.41,7.517c2.112,0.473,6.105,0,7.518-0.938
		c1.41-0.938,0.232-7.281-0.232-8.465C133.438,113.214,125.219,114.157,125.219,116.271z"/>
	<path fill="#65BC46" d="M126.115,115.175c0,4.933-0.707,7.05,1.41,7.519c2.106,0.477,6.104,0,7.518-0.938
		c1.41-0.941,0.232-7.279-0.238-8.466C134.334,112.118,126.115,113.062,126.115,115.175z"/>
</g>
<circle fill="none" stroke="#FFFFFF" stroke-width="3.5" stroke-miterlimit="10" cx="127.021" cy="77.848" r="53"/>
</svg>
