<?xml version="1.0" encoding="utf-8"?>
<!-- Generator: Adobe Illustrator 16.0.0, SVG Export Plug-In . SVG Version: 6.00 Build 0)  -->
<!DOCTYPE svg PUBLIC "-//W3C//DTD SVG 1.1//EN" "http://www.w3.org/Graphics/SVG/1.1/DTD/svg11.dtd">
<svg version="1.1" id="Layer_1" xmlns="http://www.w3.org/2000/svg" xmlns:xlink="http://www.w3.org/1999/xlink" x="0px" y="0px"
	 width="300px" height="300px" viewBox="-0.5 -0.5 300 300" enable-background="new -0.5 -0.5 300 300" xml:space="preserve">
<circle fill="#FFFFFF" cx="149.5" cy="149.5" r="135"/>
<g>
	<path fill="#E37151" d="M42.5,171.878c8.405-1.481,13.349-6.428,14.833-14.832c1.483,8.404,6.428,13.351,14.833,14.832
		c-8.405,1.483-13.349,6.427-14.833,14.833C55.849,178.305,50.905,173.361,42.5,171.878z"/>
	<path fill="#E37151" d="M226.037,212.369c6.902-1.215,10.961-5.26,12.18-12.133c1.217,6.873,5.277,10.918,12.178,12.133
		c-6.899,1.214-10.961,5.257-12.178,12.131C236.998,217.626,232.939,213.583,226.037,212.369z"/>
	<path fill="#E37151" d="M124.809,65.187c-1.213-6.875-5.258-10.919-12.133-12.131c6.875-1.213,10.919-5.258,12.133-12.133
		c1.213,6.875,5.257,10.919,12.132,12.133C130.066,54.268,126.022,58.312,124.809,65.187z"/>
</g>
<g>
	<g>
		<path fill="#DE5833" d="M196.152,156.311c5.006,12.565,3.793,19.146-7.69,30.646c-14.84,14.858-16.403,16.47-22.942,23.021
			c-2.707,2.707-4.244,0.896-4.332-3.986c-0.099-5.359-0.062-13.932,0.045-24.055c0.104-9.979-1.219-10.637-3.482-10.475
			C152.341,166.034,196.152,156.311,196.152,156.311z"/>
		<path fill="#DE5833" d="M270.682,27.766c-149.199,19.09-145.436,134.12-145.436,134.12l5.869,5.892l5.87,5.89
			c0,0,114.759,3.897,133.967-145.631C270.527,28.084,270.631,28.193,270.682,27.766z"/>
		<path fill="#E6483A" d="M131.108,179.279l-11.469-11.51l3.829-7.664l3.198-0.567l12.082,12.094l0.014,3.817L131.108,179.279z"/>
	</g>
	<g>
		<path fill="#BD4B2B" d="M131.108,179.279l-11.469-11.51l3.828-7.664l3.198-0.567l12.082,12.094l0.014,3.817L131.108,179.279z"/>
		<path fill="#BD4B2B" d="M142.626,102.6c-12.53-5.031-19.099-3.822-30.582,7.675c-11.483,11.498-13.092,13.064-22.989,22.971
			c-7.655,7.664,30.602,0.016,38.248,7.69C132.712,146.362,142.626,102.6,142.626,102.6z"/>
	</g>
	<g>
		<g>
			<defs>
				<path id="SVGID_1_" d="M270.682,27.766c-149.199,19.09-145.436,134.12-145.436,134.12l5.869,5.892l5.87,5.89
					c0,0,114.759,3.897,133.967-145.631C270.527,28.084,270.631,28.193,270.682,27.766z"/>
			</defs>
			<clipPath id="SVGID_2_">
				<use xlink:href="#SVGID_1_"  overflow="visible"/>
			</clipPath>
			<g clip-path="url(#SVGID_2_)">
				<path fill="#BD4B2B" d="M264.091-7.064l43.351,42.702l-35.779,35.155c0,0-5.969-16.331-16.786-26.986
					c-10.856-10.695-26.563-15.711-26.563-15.711L264.091-7.064z"/>
			</g>
		</g>
	</g>
	<g>
		<path fill="#FFFFFF" stroke="#BD4B2B" stroke-width="2" stroke-miterlimit="10" d="M211.88,87.357
			c-0.062-0.062-0.101-0.137-0.163-0.201c-0.064-0.062-0.137-0.104-0.199-0.167c-5.724-5.765-5.703-15.118,0.037-20.892
			c5.74-5.771,15.029-5.782,20.752-0.015c0.062,0.064,0.102,0.135,0.164,0.202c0.063,0.062,0.137,0.099,0.199,0.163
			c5.723,5.767,5.703,15.121-0.038,20.896C226.893,93.116,217.604,93.124,211.88,87.357z"/>
	</g>
	<g opacity="0.15">
		<path fill="#FFFFFF" d="M196.45,157.1c4.635,12.047,3.248,18.604-7.988,29.855c-14.84,14.857-16.403,16.47-22.942,23.021
			c-2.707,2.707-4.244,0.896-4.332-3.988c-0.025-1.408-0.043-3.051-0.051-4.875c5.955-5.816,23.26-22.486,26.795-28.987
			c2.071-3.81,0.949-7.163,0-10.799c-8.941,4.751-19.142,8.397-27.888,11.024c-0.581-0.836-1.351-0.959-2.295-0.892
			c-0.001,0-0.001-0.001-0.002-0.003c-8.315,1.656-14.749,2.084-18.129,2.186l0.112-1.557c0,0,79.575-26.089,130.938-144.011
			c0.036,0.002,0.107-0.021,0.282-0.041C261.314,103.053,227.629,139.448,196.45,157.1z"/>
	</g>
	<g>
		<path fill="#9B3D24" d="M91.056,135.245c9.896-9.906,11.505-11.473,22.989-22.971c10.771-10.784,17.218-12.517,28.318-8.537
			c0.171-0.729,0.264-1.138,0.264-1.138c-12.53-5.031-19.099-3.822-30.582,7.675c-11.483,11.498-13.092,13.064-22.989,22.971
			c-1.767,1.769-1.084,2.721,1.098,3.234C90.297,136.12,90.59,135.712,91.056,135.245z"/>
		<polygon fill="#9B3D24" points="121.64,169.771 125.468,162.105 128.665,161.538 126.666,159.538 123.468,160.105 119.64,167.771 
			131.108,179.279 131.113,179.277 		"/>
	</g>
</g>
<g>
	<g>
		<defs>
			<circle id="SVGID_3_" cx="149.5" cy="149.5" r="135"/>
		</defs>
		<clipPath id="SVGID_4_">
			<use xlink:href="#SVGID_3_"  overflow="visible"/>
		</clipPath>
		<g clip-path="url(#SVGID_4_)">
			<path fill="#D7DCDE" d="M119.639,167.771l10.798,10.797L36.792,277.5L19.56,260.292L119.639,167.771z"/>
		</g>
	</g>
	<g>
		<defs>
			<circle id="SVGID_5_" cx="149.5" cy="149.5" r="135"/>
		</defs>
		<clipPath id="SVGID_6_">
			<use xlink:href="#SVGID_5_"  overflow="visible"/>
		</clipPath>
		<g clip-path="url(#SVGID_6_)">
			<path fill="#ECF0F1" d="M119.639,167.771l5.543,5.545l-96.881,95.705l-8.741-8.729L119.639,167.771z"/>
		</g>
	</g>
</g>
</svg>
