<?xml version="1.0" standalone="no"?>
<!DOCTYPE svg PUBLIC "-//W3C//DTD SVG 20010904//EN"
 "http://www.w3.org/TR/2001/REC-SVG-20010904/DTD/svg10.dtd">
<svg version="1.0" xmlns="http://www.w3.org/2000/svg"
 width="1024.000000pt" height="1024.000000pt" viewBox="0 0 1024.000000 1024.000000"
 preserveAspectRatio="xMidYMid meet">
<metadata>
Created by potrace 1.11, written by Peter Selinger 2001-2013
</metadata>
<g transform="translate(0.000000,1024.000000) scale(0.100000,-0.100000)"
fill="#000000" stroke="none">
<path d="M3380 8681 c-63 -26 -140 -63 -170 -82 -30 -20 -90 -52 -132 -72 -42
-20 -98 -54 -125 -74 -26 -20 -74 -51 -105 -69 -167 -95 -541 -412 -724 -615
-653 -722 -1024 -1671 -1024 -2619 0 -475 59 -834 212 -1294 159 -480 407
-914 748 -1310 106 -124 316 -331 430 -426 112 -92 338 -257 421 -306 37 -21
82 -48 100 -59 301 -184 497 -280 731 -359 521 -176 1112 -233 1723 -165 196
21 567 102 733 160 387 135 787 340 1066 546 234 174 485 413 577 550 l51 75
37 -39 c20 -21 51 -58 68 -83 17 -25 41 -54 53 -65 l23 -20 -6 56 c-6 59 -39
135 -90 206 -25 35 -28 45 -17 58 17 21 28 12 115 -95 42 -52 81 -97 87 -99
22 -7 1 99 -31 161 -17 34 -29 64 -26 67 14 13 70 -65 127 -178 35 -69 68
-122 73 -120 19 8 10 150 -13 202 l-21 47 30 0 c45 0 80 -23 118 -75 29 -41
35 -45 44 -30 14 25 1 102 -25 144 -12 20 -41 56 -63 80 l-40 45 57 -33 c72
-40 102 -39 106 7 3 28 -4 39 -55 88 -59 57 -53 64 20 27 31 -16 47 -10 47 16
0 18 -85 83 -157 120 -47 24 -114 27 -174 10 -71 -22 -176 38 -214 120 -12 27
-29 45 -54 57 -20 9 -52 30 -72 45 -20 16 -45 29 -55 29 -11 0 -30 3 -42 7
-32 8 -26 37 29 131 23 40 39 75 36 78 -3 3 -20 -11 -38 -30 -18 -20 -36 -36
-41 -36 -16 0 13 42 73 106 43 46 59 72 64 101 10 66 26 116 56 175 16 32 29
67 29 79 0 12 29 108 64 213 70 210 87 281 65 274 -8 -3 -37 -69 -65 -147 -29
-79 -57 -148 -62 -153 -6 -6 -18 -8 -26 -5 -12 5 -16 22 -16 76 0 69 0 70 -42
106 -58 49 -83 45 -127 -20 -33 -49 -33 -51 -27 -130 4 -44 14 -104 23 -133
16 -49 16 -54 -1 -89 -21 -45 -86 -145 -100 -155 -22 -15 -34 17 -40 105 -4
51 -11 122 -17 159 -10 66 -10 68 26 148 20 44 35 88 33 98 -2 12 -18 19 -56
24 -111 16 -135 37 -178 155 l-25 68 43 -41 c24 -23 57 -48 73 -55 17 -8 34
-24 40 -37 16 -36 74 -31 115 11 57 58 130 199 130 252 0 30 24 28 52 -5 15
-19 31 -30 35 -26 5 4 9 148 11 321 2 269 1 318 -13 356 -9 24 -21 71 -26 103
-5 33 -20 94 -34 137 -13 43 -28 111 -33 151 -11 86 -27 128 -88 225 -51 83
-115 214 -139 290 -20 61 -12 84 37 103 18 7 72 30 119 52 77 34 90 37 113 27
28 -13 85 -98 129 -189 26 -55 81 -129 90 -120 3 3 -5 39 -18 80 -25 83 -41
255 -23 244 13 -8 48 -89 77 -176 14 -42 28 -68 37 -68 23 0 17 31 -36 182
-28 79 -57 165 -64 193 -11 46 -11 51 8 66 20 16 20 17 -7 48 -15 18 -27 37
-27 42 0 17 39 9 75 -15 52 -36 194 -66 309 -66 78 0 113 5 174 26 101 33 229
102 307 164 57 45 145 156 145 182 0 5 -21 -8 -47 -29 -152 -125 -388 -233
-509 -233 -38 0 -36 2 56 51 280 150 419 287 544 537 64 126 97 233 103 327 3
44 3 78 0 75 -3 -3 -40 -70 -82 -150 -136 -256 -149 -274 -262 -371 -159 -137
-183 -142 -74 -14 118 137 158 199 192 293 15 42 41 115 58 162 33 93 61 236
61 309 -1 45 -1 45 -15 21 -8 -14 -26 -61 -41 -105 -33 -98 -47 -127 -91 -185
-24 -31 -34 -39 -33 -25 7 60 -19 61 -45 3 -11 -25 -65 -90 -132 -159 -62 -65
-113 -124 -113 -133 0 -9 -5 -16 -11 -16 -7 0 -8 7 -4 18 39 94 52 243 37 433
-7 98 -15 138 -34 180 l-25 54 -6 -110 c-7 -133 -37 -252 -107 -430 -42 -107
-59 -138 -95 -172 -24 -24 -49 -43 -54 -43 -16 0 -13 94 5 180 34 158 -15 459
-87 542 l-20 23 5 -35 c22 -145 11 -358 -19 -363 -5 -1 -20 22 -31 52 -12 29
-28 59 -36 67 -13 14 -16 -1 -21 -122 -6 -145 -20 -192 -33 -108 -4 27 -11 60
-16 73 l-8 23 -23 -33 c-16 -25 -31 -35 -54 -37 -42 -4 -73 13 -73 41 0 26
-41 116 -46 102 -2 -5 -15 -86 -28 -180 -33 -222 -41 -260 -71 -321 -27 -54
-70 -102 -82 -90 -5 4 -11 74 -14 154 -3 81 -9 155 -13 165 -12 27 -36 2 -36
-38 0 -37 -31 -162 -55 -221 -20 -50 -30 -55 -175 -94 -139 -36 -154 -37 -192
-5 -41 34 -80 32 -179 -10 l-82 -36 -221 -4 c-203 -5 -226 -7 -281 -29 -82
-32 -311 -73 -333 -59 -10 5 -21 23 -27 39 -16 45 -23 53 -67 66 -22 6 -61 31
-87 54 l-46 42 0 106 c0 150 -15 156 -176 75 -101 -50 -141 -58 -147 -28 -4
20 51 72 105 102 119 63 152 82 193 110 53 36 220 187 220 199 0 13 -48 9
-104 -7 -28 -8 -96 -25 -151 -39 -157 -37 -279 -87 -580 -235 -230 -114 -313
-160 -463 -262 -294 -199 -418 -276 -567 -349 -159 -79 -246 -110 -325 -117
-126 -12 -254 99 -360 310 -71 142 -90 218 -90 362 0 98 29 335 50 418 6 23
48 150 93 282 77 225 82 245 81 320 -1 95 -19 151 -57 179 -23 17 -42 21 -105
20 -90 -2 -181 -29 -264 -80 -60 -36 -78 -41 -78 -21 0 13 205 131 290 166
114 47 141 64 138 90 -2 14 -7 26 -13 27 -5 2 -62 -19 -125 -45z m3363 -3011
l38 -75 -11 -100 c-16 -137 0 -282 24 -220 3 8 11 14 18 13 6 -2 17 11 23 29
6 18 20 42 32 55 11 13 26 33 32 46 28 53 101 15 222 -118 81 -87 88 -86 147
28 23 44 48 85 57 92 8 7 15 23 15 35 0 68 75 195 133 227 25 13 67 2 67 -18
0 -9 -29 -47 -63 -84 -76 -82 -121 -169 -143 -276 -14 -67 -16 -123 -11 -374
4 -162 8 -304 10 -315 2 -11 2 -15 0 -8 -6 18 -109 36 -160 28 -55 -8 -114
-58 -148 -125 -48 -95 -105 -140 -175 -140 -29 0 -30 -2 -30 -45 0 -24 6 -62
14 -82 8 -21 19 -65 26 -98 7 -33 30 -109 51 -169 22 -60 39 -119 39 -130 0
-11 37 -83 81 -161 90 -154 149 -222 270 -314 l76 -58 -90 -7 c-157 -11 -400
-7 -488 8 -46 8 -165 24 -264 36 -99 11 -202 27 -230 35 -27 7 -119 28 -203
44 -169 34 -386 102 -568 179 -65 27 -145 57 -178 66 -32 10 -111 40 -175 68
-64 28 -167 72 -230 99 -63 27 -167 80 -232 119 -65 39 -191 106 -281 149 -90
44 -175 90 -189 103 -14 13 -39 30 -55 36 -16 7 -49 26 -74 42 -36 24 -41 30
-27 36 10 3 41 -1 70 -10 29 -9 73 -19 100 -22 53 -7 37 -19 156 116 l40 45
115 0 c145 0 166 14 64 43 -40 11 -85 23 -100 26 -32 7 -36 26 -10 48 78 68
361 206 727 352 355 144 428 186 575 336 106 108 180 160 346 243 61 31 124
67 141 81 26 22 35 24 64 16 57 -17 75 -13 89 20 22 54 144 132 200 128 33 -3
37 -8 73 -78z m-3159 -1351 c22 -16 51 -29 64 -29 15 0 70 -36 151 -99 159
-124 202 -152 381 -241 80 -40 157 -81 173 -92 37 -26 67 -88 74 -151 6 -52
25 -87 48 -87 8 0 10 9 7 25 -2 14 -1 45 2 70 8 53 24 58 77 22 52 -35 79 -82
79 -137 0 -31 5 -50 13 -53 18 -7 26 0 61 46 37 50 67 61 112 42 48 -20 64
-63 64 -169 0 -46 -3 -91 -6 -100 -12 -32 -66 -18 -174 44 -58 33 -119 65
-137 70 -17 6 -49 29 -70 50 -28 27 -56 43 -98 55 -192 53 -225 67 -311 131
-57 42 -105 70 -142 80 -43 13 -67 28 -102 64 -32 34 -60 53 -97 65 -28 9 -89
39 -135 67 -46 28 -108 66 -138 84 -80 47 -100 68 -100 106 0 43 12 60 52 74
29 10 33 15 31 45 -1 19 0 39 2 46 7 20 76 3 119 -28z m4222 -1710 c-15 -74
-58 -128 -92 -115 -18 7 -20 116 -2 134 7 7 32 12 56 12 44 0 44 0 38 -31z
m-176 -248 c0 -47 -293 -312 -535 -486 -329 -236 -921 -492 -1307 -566 -74
-14 -320 -39 -382 -39 -29 0 -56 -4 -62 -9 -10 -10 -154 -2 -154 9 0 4 26 17
58 29 56 22 124 33 403 66 289 34 520 96 701 189 58 29 121 59 140 65 20 7 96
51 170 99 73 48 185 116 248 151 125 70 222 133 315 205 32 26 81 53 107 61
58 17 142 85 205 168 37 48 62 69 91 76 1 1 2 -8 2 -18z"/>
</g>
</svg>
