<?xml version="1.0" encoding="utf-8"?>
<!-- Generator: Adobe Illustrator 21.1.0, SVG Export Plug-In . SVG Version: 6.00 Build 0)  -->
<svg version="1.1" id="Layer_1" xmlns="http://www.w3.org/2000/svg" xmlns:xlink="http://www.w3.org/1999/xlink" x="0px" y="0px"
	 viewBox="0 0 365 72.2" style="enable-background:new 0 0 365 72.2;" xml:space="preserve">
<style type="text/css">
	.st0{fill:#FFFFFF;}
</style>
<g>
	<g>
		<path class="st0" d="M45.5,30.2c0,7.3-4.2,11.6-11.6,11.6H2.4v30H0V0.5h34c7.3,0,11.6,4.2,11.6,11.6V30.2z M2.4,2.8v36.6H34
			c5.9,0,9.2-3.3,9.2-9.2V12c0-5.9-3.3-9.2-9.2-9.2H2.4z"/>
		<path class="st0" d="M73.8,71.7V0.5h2.4v68.9h35.6v2.4H73.8z"/>
		<path class="st0" d="M139.3,71.7V0.5h40.9v2.4h-38.6V34h31.3v2.4h-31.3v33h38.6v2.4H139.3z"/>
		<path class="st0" d="M255.9,47.3v12.9c0,7.3-4.2,11.6-11.6,11.6h-34.4V0.5h33.5c7.3,0,11.6,4.2,11.6,11.6v11.4
			c0,5.3-3.7,10.5-10,11.7C251.6,36.1,255.9,41.9,255.9,47.3z M239.4,34c6.6,0,13.2-3.5,13.2-10.5V12c0-5.9-3.3-9.2-9.2-9.2h-31.1
			V34H239.4z M253.5,47.3c0-6.3-5.9-11-13.9-11h-27.4v33h32.1c5.9,0,9.2-3.3,9.2-9.2V47.3z"/>
		<path class="st0" d="M286.4,71.7V0.5h2.4v71.3H286.4z"/>
		<path class="st0" d="M365,60.6c0,7.3-4.2,11.6-11.6,11.6H331c-7.3,0-11.6-4.2-11.6-11.6v-2.4h2.4v2.4c0,5.9,3.3,9.2,9.2,9.2h22.4
			c5.9,0,9.2-3.3,9.2-9.2V48.5c0-3.9-1.3-6.8-5.5-7.9l-27.8-7.2c-6.6-1.8-9.6-4-9.6-10.6V11.6c0-7.3,4.2-11.6,11.6-11.6h21
			c7.3,0,11.6,4.2,11.6,11.6V13h-2.4v-1.4c0-5.9-3.3-9.2-9.2-9.2h-21c-5.9,0-9.2,3.3-9.2,9.2v11.2c0,4.6,1.9,6.8,7.2,8.3l27.8,7.2
			c5.5,1.4,7.9,4.5,7.9,10.3V60.6z"/>
	</g>
</g>
</svg>
