<?xml version="1.0" encoding="utf-8"?>
<!-- Generator: Adobe Illustrator 21.1.0, SVG Export Plug-In . SVG Version: 6.00 Build 0)  -->
<svg version="1.1" id="Ebene_1" xmlns="http://www.w3.org/2000/svg" xmlns:xlink="http://www.w3.org/1999/xlink" x="0px" y="0px"
	 viewBox="0 0 112.1 109.2" style="enable-background:new 0 0 112.1 109.2;" xml:space="preserve">
<style type="text/css">
	.st0{fill:#D3D2CA;}
	.st1{fill:#454040;}
	.st2{fill:#C4C1B8;}
	.st3{fill:#5D5957;}
	.st4{fill:#201C1E;}
	.st5{fill:#E1E0D9;}
	.st6{fill:#B2AFA7;}
	.st7{fill:#2A2527;}
	.st8{fill:#383C40;}
	.st9{fill:#585351;}
	.st10{fill:#E4E2DD;}
	.st11{fill:#A6A29A;}
	.st12{fill:#342F31;}
	.st13{fill:#252223;}
	.st14{fill:#181517;}
	.st15{fill:#221E20;}
	.st16{fill:#1E1B1D;}
	.st17{fill:#55514F;}
	.st18{fill:#615C59;}
	.st19{fill:#A9A6A0;}
	.st20{fill:#231F21;}
	.st21{fill:#89847E;}
	.st22{fill:#9A9893;}
	.st23{fill:#7C7772;}
	.st24{fill:#605B59;}
	.st25{fill:#625E5C;}
	.st26{fill:#9F9B94;}
	.st27{fill:#3E3939;}
	.st28{fill:#3C3838;}
	.st29{fill:#7D7873;}
	.st30{fill:#6A6562;}
	.st31{fill:#66625F;}
	.st32{fill:#474342;}
	.st33{fill:#AEABA3;}
	.st34{fill:#CFBEBA;}
	.st35{fill:#110F11;}
	.st36{fill:#B79E9C;}
	.st37{fill:#CFC6C0;}
	.st38{fill:#9D8E89;}
	.st39{fill:#6C5758;}
	.st40{fill:#392C2F;}
	.st41{fill:#A07073;}
	.st42{fill:#434D55;}
	.st43{fill:#504B4A;}
	.st44{fill:#595452;}
	.st45{fill:#353031;}
	.st46{fill:#99958E;}
	.st47{fill:#6F8083;}
	.st48{fill:#756E6B;}
	.st49{fill:#446269;}
	.st50{fill:#565656;}
	.st51{fill:#746F6B;}
	.st52{fill:#706B67;}
	.st53{fill:#F4F3F1;}
	.st54{fill:#AFD4D2;}
	.st55{fill:#C6C1BA;}
	.st56{fill:#A3CDCC;}
	.st57{fill:#B0B6B1;}
	.st58{fill:#403B3C;}
	.st59{fill:#B1AEA6;}
	.st60{fill:#322D2F;}
	.st61{fill:#363233;}
	.st62{fill:#282426;}
	.st63{fill:#514C4A;}
	.st64{fill:#605A59;}
	.st65{fill:#6C6864;}
	.st66{fill:#75706C;}
	.st67{fill:#1E1A1C;}
	.st68{fill:#E9DFDB;}
	.st69{fill:#83706F;}
	.st70{fill:#7EC2BF;}
	.st71{fill:#ABD0CB;}
	.st72{fill:#599093;}
	.st73{fill:#3B7896;}
	.st74{fill:#5E9EAD;}
	.st75{fill:#97938C;}
	.st76{fill:#7A7570;}
	.st77{fill:#3E3839;}
	.st78{fill:#423D3D;}
	.st79{fill:#282326;}
	.st80{fill:#4B97A8;}
	.st81{fill:#77B8BE;}
	.st82{fill:#BFC2BB;}
	.st83{fill:#4A95A3;}
	.st84{fill:#7EA19F;}
	.st85{fill:#5D5856;}
	.st86{fill:#F7F4F1;}
	.st87{fill:#65AEAD;}
</style>
<g>
	<path class="st0" d="M84.3,10.5c0-0.1,0-0.1,0-0.2c-0.1-0.1,0-0.2,0.1-0.3c1.3,1.1,2.9,1.3,4.5,1.2c0.4,0,0.8,0.2,1.1,0.5
		c2.3,2.1,4.6,4.3,6,7.2c0.2,0.4,0.4,0.8,0.4,1.3C96,21.4,95,21.7,94,20.9c-0.2-0.3-0.2-0.6-0.3-1c-0.5,1,0.1,2.1-0.6,3
		c-0.3,0.4-0.5,0.8-0.8,1.2c-0.3,0.4-0.5,1-1.1,0.8c-0.5-0.2-0.4-0.8-0.4-1.2c0-0.8,0-1.5-0.4-2.2c-0.1-0.1-0.2-0.3-0.5-0.2
		c-0.2,0.1-0.3,0.3-0.3,0.5c-0.6,2.1-2.2,2.4-4.1,2.6c-1.8,0.2-3.6,0.1-5.3,0.5c-0.9,0.2-1.7,0.1-2.3-0.8c-0.3-0.5-0.8-0.7-1.4-0.6
		c-0.8,0-1.7-0.2-2.5-0.3c-1.2-0.2-1.6-1-1.1-2.1c0.6-1.3,1.6-2.3,2.8-3.1c0.8-0.6,1.5-1.1,2.3-1.7c0.3-0.3,0.7-0.5,0.6-1
		c-0.1-0.5-0.6-0.6-1.1-0.7c-2.8-0.4-5.7-0.5-8.5,0.2c-2.9,0.8-5.8,1.6-8.8,1.9c-1.3,0.1-2.4,0.9-3.8,0c-0.6-0.4-1.6,0.5-2.5,0.9
		c-1.3,0.6-2.4,1.6-3.9,1.7c-0.4,0-0.7,0.4-1,0.7c-1.3,1.4-3.1,1.7-4.9,2c-1,0.2-1.9-0.9-1.8-2c0.1-2.5,0.3-5.1,1.6-7.4
		c0.9-1.6,1.4-3.4,1.5-5.3c0.1-2.1-1.7-4.4-3.8-4.8c-0.6-0.1-1.2-0.1-1.6-0.8c1.6-0.7,3.3-0.9,5-1.1c2.8,0.1,5.3,1.2,7.8,2.3
		c4.6,2,9.3,3.5,14.1,5.1c1.4,0.4,2.7,1,3.9,1.7c1.9,1.3,4.1,1.6,6.3,1.6c1.1,0,2.2,0.1,3.3,0.4c0.9,0.2,1.8,0.2,2.7,0
		C84.1,11.5,84.5,11.3,84.3,10.5z"/>
	<path class="st1" d="M16.9,15c1.5-1.6,3.2-3,5-4.3c0.4,0.6,0,1-0.3,1.4c-1,1.4-2.2,2.5-3.4,3.7c-0.4,0.4-0.8,0.8-1.2,1.3
		c1.2-0.7,2.4-1.3,3.7-1.9c0.8-0.4,1.6-0.5,2.2,0.3c0.2,0.3,0.6,0.5,0.9,0.7c0.6,0.6,0.7,1.2,0.5,2.1c-0.8,4-2.4,7.8-2,12
		c0.2,2.4,0.7,4.5,2.3,6.4c1.6,2,3.2,3.9,3.8,6.5c0.2,0.9,0.9,1.1,1.8,0.8c0.4-0.2,0.8-0.4,1.2-0.7c4.3-3.9,9-7.3,13.8-10.6
		c2.8-1.9,5.7-3.8,8.6-5.6c0.7-0.4,1.4-0.9,2.1-1.4c0.3-0.2,0.7-0.5,1.1-0.5c0.9,0.1,0.9,0.6,0.4,1.2c-2,2.1-4.5,3.7-6.7,5.5
		c-0.4,0.3-0.7,0.6-1.1,0.9c-0.4,0.2-0.6,0.5-1,0.8c-0.3,0.2-0.6,0.6-1,0.1c0.3-1.1,1.3-1.6,1.8-2.1c-3.6,2.1-7.2,4.9-10.7,7.7
		c-2.5,2-4.8,4.3-7.1,6.5c-1,0.9-1.9,1.8-3,2.7c-1,0.8-1.9,0.6-2.5-0.6c0-0.1-0.1-0.2-0.1-0.3c-0.7-3.7-2.9-6.7-4.8-9.9
		c-1.2-2.1-2-4.4-1.7-6.9c0.1-0.7,0.1-1.5,0-2.2c-0.3-1.9,0.1-3.8,0.1-5.7c0-1-0.1-2-0.5-3c-0.3-0.9-0.8-1-1.4-0.4
		c-1.4,1.2-2.6,2.5-3.6,4.1c-3,4.8-4.4,10.3-6,15.7c-1.2,4-1.7,8.2-2.7,12.2c-0.1,0.3-0.1,0.7-0.1,1c0.3,3.9,0.1,7.8,1,11.6
		c0.2,0.7,0,1.4,0.3,2.1c0.4,4.1,2,7.7,3.8,11.3c0.7,1.5,1.5,3,2.3,4.4c0.2,0.3,0.3,0.6,0,0.9c-0.6,0-0.8-0.4-1-0.8
		C9.2,78,7.1,73.5,5.8,68.6c-0.4-1.5-0.4-3-0.6-4.5c-0.4-3.7-0.8-7.5-0.9-11.2c-0.1-2.1,0.4-4.1,0.5-6.2c0.3-4.4,1.7-8.6,2.7-12.8
		c0.2-1,0.3-2.1,0.6-3.1c-1.2,1.7-1.7,3.7-2.4,5.6c-1.9,5.7-3,11.5-3.3,17.5c-0.2,3.7,0.5,7.4,1.2,11.1C4.7,70.8,7,76.2,9.8,81.4
		c1.3,2.4,2.8,4.6,4.5,6.7c0.3,0.4,0.8,0.8,0.6,1.4c-0.6,0.2-0.8-0.2-1.1-0.5c-3.3-3.9-6.2-8.1-8.1-12.9C3.9,71.4,2.4,66.5,2,61.4
		c-0.1-2-0.5-4.1-0.4-6.1c0.1-6.1,1-12.1,2.7-17.9c1.3-4.4,3.3-8.5,5.3-12.6c1.2-2.3,2.9-4.3,4.7-6.3C15.2,17.4,16.2,16.3,16.9,15z"
		/>
	<path class="st2" d="M40.3,1.8c0.4,0.2,0.8,0.4,1.3,0.4C44.5,2.8,46.1,5,45.8,8c-0.1,1.8-0.7,3.3-1.4,4.8c-0.8,1.7-1.5,3.5-1.4,5.4
		c0,0.6-0.2,1.1-0.2,1.7c0,1.3,0.9,2,2.2,1.8c1.8-0.3,3.4-0.8,4.6-2.4c0.1-0.1,0.3-0.3,0.4-0.3c2.4,0.1,4-1.9,6.1-2.6
		c0.4-0.2,0.7-0.2,1,0.2c0.3,0.7,0.9,0.6,1.5,0.5c4.3-0.9,8.6-2,12.9-2.8c2.1-0.4,4.4-0.1,6.5,0.3c0.5,0.1,1.1,0.3,1.2,0.9
		c0.1,0.6-0.4,0.9-0.8,1.2c-1.3,1.1-2.9,1.9-4,3.2c-0.7,0.8-1.6,1.5-1.3,2.6c0.3,1.1,1.4,0.5,2.2,0.8c0.4,0.1,0.8,0.2,1.2,0.1
		c0.8-0.1,1.5,0.1,1.8,1c0.3,0.7,1,0.7,1.7,0.6c1.8-0.5,3.7-0.4,5.6-0.6c2.4-0.2,3-0.5,3.8-2.7c0.1-0.4,0.3-0.6,0.7-0.5
		c0.2,0,0.8-0.1,0.5,0.5c-0.4,0.8-0.6,1.7-0.8,2.5c-0.9,1.8-0.9,1.8-2.8,1.4c-0.4-0.1-0.8-0.2-1.2-0.1c-1.2,0.5-2.5,0.3-3.7,0.4
		c-0.9,0-1.6,0.2-2.4,0.5c-1,0.5-2.1,0.8-3.3,1c-1.1,0.2-2-0.2-2.5-1.1c-0.3-0.6-0.8-0.8-1.4-1c-2-0.4-2.6-1.9-1.4-3.6
		c1.2-1.7,2.5-3.2,4.2-4.5c0.4-0.3,1.2-0.7,0.9-1.4c-0.3-0.7-1.1-0.4-1.6-0.4c-1.4,0-2.8,0.2-4.1,0.7c-3.1,1.2-6.4,2.2-9.5,3.5
		c-3.7,1.5-7.1,3.6-10.7,5.4c-1.5,0.8-3.1,1.5-4.5,2.4c-1.7,1-3.7,1.1-5.5,0.6c-1.8-0.5-2.7-2.2-3-4c-0.7-3.2,0.5-6.1,1.9-8.9
		c1.1-2.1,2.2-4.2,2.7-6.5c0.5-2.3-0.1-4.6-2.9-5.3c-0.3-0.1-0.8,0-0.8-0.5C38.8,2.1,39.5,1.9,40.3,1.8z"/>
	<path class="st3" d="M14.8,89.6c-1.3-1.9-2.5-3.8-3.8-5.7c-3-4.6-5.3-9.5-6.7-14.8c-1.1-3.8-1.8-7.8-2.1-11.8
		c-0.2-3.1,0.2-6.1,0.5-9.1c0.2-3,1-5.9,1.7-8.8c0.7-2.9,1.7-5.8,3.1-8.5c0.3-0.6,0.4-0.6,1.2-0.9c-0.6,2.7-1.1,5.3-1.8,7.9
		c-1.1,4.1-1.7,8.2-2,12.4c-0.3,4.1,0.1,8.1,0.6,12.1c0.2,1.7,0.3,3.4,0.5,5.1c0.3,1.9,0.9,3.7,1.5,5.4c1.3,3.2,2.8,6.4,4.6,9.4
		c0.2,0.3,0.4,0.6,0.7,0.8c0.1,0,0.1,0.1,0.2,0.1c1.5,2.1,3.1,4.1,4.8,6c1.3,1.5,2.8,2.8,4.3,4c1.7,1.4,3.2,2.9,4.6,4.5
		c0.5,0.6,1.1,1,1.8,1.4c2.4,1.2,4.8,2.5,7.2,3.6c2.1,0.9,4.3,1.4,6.6,1.9c4.9,1.2,9.8,1.2,14.8,1.5c2,0.1,3.9,0.1,5.8-0.5
		c1.3-0.1,2.5-0.4,3.6-1c1.1-0.5,2.2-0.9,3.4-1.2c0.4-0.1,0.9-0.2,1.3,0c0.2,0.7-0.5,0.6-0.8,0.8c-1.5,0.7-3.2,1.1-4.6,2.1
		c-1.5,0.4-3.1,0.5-4.6,0.6c-3.5,0.4-7,0.4-10.4,0c-0.7-0.1-1.4,0-2.2,0.2c3.3,0.2,6.5,1,9.8,0.8c0.2-0.1,0.4-0.1,0.6-0.1
		c0.5,0,1.1-0.2,1.4,0.4c-0.2,0.3-0.5,0.2-0.7,0.3c-8.5,0.8-16.8,0-24.8-3.1c-2.7-1.1-5.3-2.6-7.8-4c-0.1,0-0.1-0.2-0.2-0.3
		c-0.8-1.3-2.1-2-3.3-2.8c-3.4-2.3-6-5.4-8.6-8.5C14.8,90,14.7,89.8,14.8,89.6z"/>
	<path class="st4" d="M93.4,79.8c0.4,0.3,0.8,0.6,1.1,0.9c0.5,0.3,0.9,0.7,0.5,1.3c-0.3,0.5-0.9,0.4-1.3,0.1
		c-1.3-0.7-2.6-0.1-3.9-0.1c-0.6,0-1.3,0.2-1.9,0.1c-1.3-0.1-2.5,0.3-3.4,1.1c-1.5,0.5-3.1,0.1-4.8-0.3c1.2,1.7,1.9,3.4,2.2,5.3
		c0.3,1.3,0.2,2.6,0,3.9c-0.1,0.4-0.1,0.9-0.3,1.3c-0.2,0.3-0.4,0.6-0.8,0.5c-0.4,0-0.5-0.4-0.6-0.7c-0.1-1-0.1-2-0.2-2.9
		c-0.2-1.8-0.5-3.6-1.4-5.2c0.1,0.4,0.2,0.9-0.4,1.1c-0.5,0.2-0.9-0.1-1.1-0.5c-0.2-0.4-0.5-0.8-0.7-1.1c-0.5-0.7-1.2-1.2-1.6-2
		c-0.3-0.5-0.8-0.6-1.3-0.5c0.1,0.5,0.5,0.9,0.5,1.5c0.1,0.9,0,1.7,0.1,2.6c0.1,0.5-0.1,1-0.7,1.2c-0.5,0.2-0.7-0.3-0.9-0.6
		c-0.3-0.5-0.5-1-0.8-1.5c-0.7-1.5-1.8-2.8-3-4c0.9,1.2,1.4,2.5,1.4,4c0,0.4,0.1,1-0.5,1.1c-0.6,0.1-0.8-0.3-1-0.8
		c-1-1.9-2.2-3.7-3.5-5.5c-0.6-0.8-1.3-1.2-2.3-1.6c0.2,1,0.8,1.7,1,2.5c0.1,0.7,0.9,1.6-0.1,2c-0.8,0.4-1.1-0.7-1.4-1.3
		c-0.9-1.5-1.6-3-3.1-4c-0.3,0.5-0.1,1.3-0.9,1.3c-0.7,0-0.9-0.7-1.2-1.3c-0.2-0.3-0.2-0.7-0.2-1c-0.2-0.8-0.8-1-1.5-1
		c-0.7,0-0.6,0.6-0.7,1.1c0,0.3,0,0.5-0.1,0.8c-0.1,0.3-0.3,0.5-0.6,0.4c-0.3,0-0.4-0.3-0.5-0.6c-0.1-0.4-0.1-0.8-0.2-1.1
		c-0.1-0.5-0.1-0.9-0.6-1.3c-0.9-0.7-1.1-0.7-1.8,0.2c-0.2,0.3-0.5,0.6-0.9,0.5c-0.4-0.1-0.3-0.5-0.5-0.8c-0.5-0.8-1.1-1.6-1.5-2.5
		c-0.1-0.1-0.3-0.2-0.4,0c-0.9,0.9-1.2,0.9-1.6-0.4c-0.2-0.8-0.7-1.2-1.4-1.5c-0.1-0.1-0.3-0.2-0.4-0.1c-1.5,0.5-2.3-0.6-3.2-1.4
		c-0.6-0.6-1.5-0.3-2-0.8c-0.3-0.8-0.7-1.5-1.7-1.7c-0.1,0-0.2-0.1-0.3-0.2c-0.3-0.5-1.3-0.4-1.2-1.3c0.5-0.3,0.9,0,1.3,0.2
		c1.4,0.8,2.8,1.4,4.4,2c-1.2-1.4-2.7-2.1-4-3c-1.5-1-3-1.9-4.6-2.6c-1-0.5-1.1-0.6-0.4-1.7c0.2-0.2,0.5-0.4,0.9-0.4
		c0.4,0.3-0.2,1.1,0.6,1.3c0.7,0.4,1.5,0.8,2.3,1.1c1.8,1.2,3.7,2.2,5.5,3.4c0.7,0.5,1.5,0.9,2.2,1.4c3.6,1.8,6.9,3.9,10.6,5.5
		c2,0.9,4,1.9,6.2,2.5c3.7,1.4,7.3,2.8,11.2,3.4c0.4,0.1,0.9,0.2,1.3,0.4c1.8,0.6,3.7,0.7,5.5,1c2.4,0.4,4.8,0.4,7.2,0.2
		c2.1-0.1,4.3-0.1,6.4-0.4C92.6,79.5,93.1,79.4,93.4,79.8z"/>
	<path class="st5" d="M84.3,10.5c0.8,0.6,0.5,1.1-0.3,1.4c-1,0.4-2,0.5-3,0.2c-2.1-0.6-4.4-0.3-6.5-0.6c-0.4-0.1-0.8,0-1.2-0.3
		C69.2,8.6,64.5,7.5,60,6c-3.7-1.3-7.2-3-10.9-4.2c-1.2-0.4-2.5-0.4-3.7-1c1.3-0.6,2.7-0.6,4-0.6c2.5-0.1,5.1-0.2,7.6,0.1
		c1.6,0.2,3.2,0.2,4.8,0.5c3.2,0.6,6.2,1.5,9.2,2.8C74,4.8,77,6.2,79.6,8.2c1,0.8,2,1.5,2.9,2.3C83.2,11.1,83.7,11.1,84.3,10.5z"/>
	<path class="st6" d="M38.1,2.5c0.8,0.3,1.7,0.5,2.5,1c0.7,0.5,1.1,1,1.3,1.7c0.7,2,0.1,3.8-0.7,5.6c-1,2.4-2.4,4.7-3.3,7.2
		C37.3,20,37.1,22,37.4,24c0.3,1.9,2.3,3.5,4.2,3.6c1.9,0.1,3.6-0.6,5.3-1.4c6.4-3.2,12.4-7.1,19.4-9.1c2.2-0.7,4.3-1.8,6.7-2.1
		c1-0.1,2-0.1,2.9-0.1c0.8,0,1.1,0.8,0.6,1.4c-0.4,0.5-0.9,1-1.5,1.4c-1.5,1.1-2.7,2.6-3.7,4.1c-1,1.4-0.4,2.6,1.2,3
		c0.8,0.2,1.5,0.3,1.8,1.3c0.3,1,1.9,1.2,3.5,0.5c2.2-0.9,4.3-1.2,6.7-1.3c1.3-0.1,2.6-0.3,4,0.1c0.4,0.1,0.7-0.3,0.8-0.6
		c0.2-0.3,0.1-0.8,0.6-0.9c0.4,0.4,0.3,0.8,0.3,1.3c-0.1,0.8-0.2,1.6-0.9,2.2c-0.1,0.1-0.2,0.1-0.4,0.1c-0.2,0-0.4,0-0.5-0.2
		c-0.8-1.2-1.9-1-3.2-0.8c-2.9,0.6-5.8,1-8.7,1.4c-1.6,0.5-3-0.1-4.2-1.1c-0.5-0.4-1-0.5-1.6-0.7c-1.6-0.5-2.3-2-1.5-3.5
		c0.4-0.8,0.8-1.5,1-2.4c0.1-0.7,0.7-1,1.2-1.4c0.6-0.4,1.2-0.7,1.6-1.2c0.2-0.2,0.3-0.5,0.2-0.8c-0.1-0.3-0.4-0.2-0.7-0.2
		c-1.4,0.1-2.7,0.2-4,0.8c-2.8,1.3-5.9,2.1-8.7,3.4c-2.8,1.3-5.5,2.8-8.2,4.4c-2.4,1.4-4.8,2.8-7.2,4.1c-4.1,2.1-8.2,0.2-9.4-4.4
		c-1-3.7-0.1-7,1.6-10.3c1.1-2.1,2.2-4.2,2.5-6.7c0.2-1.6-0.4-2.5-1.9-2.7c-1.6-0.2-1.6-0.2-1.5-1.9C36.5,2.9,37.3,2.6,38.1,2.5z"/>
	<path class="st7" d="M14.8,89.6c2.8,3.4,5.7,6.8,9.4,9.3c0.6,0.4,1.2,0.8,1.8,1.2c0.6,0.3,0.9,0.8,0.9,1.5c-2-0.9-3.7-2.2-5.4-3.5
		c-2.3-1.7-4.4-3.6-6.3-5.6c-3.3-3.5-6.1-7.3-8.4-11.5C4.1,76.2,2.4,71.1,1.2,66c-0.6-2.3-0.9-4.7-1-7.2C0.1,57.6,0,56.4,0,55.2
		c-0.1-6.7,1.1-13.1,3.3-19.4c1.9-5.3,4.6-10.2,8.1-14.7c1.7-2.2,3.4-4.3,5.5-6.1c-0.1,1.5-1.3,2.4-2.1,3.4
		c-3.5,3.8-5.8,8.2-7.9,12.9c-1.3,2.9-2.2,5.9-3,9C2.8,44.1,2.3,48.1,2,52c-0.4,5.4,0.2,10.8,1.5,16c1.5,6,3.8,11.7,7.5,16.7
		C12.3,86.4,13.3,88.2,14.8,89.6z"/>
	<path class="st8" d="M106.9,20.3c0.4-0.5,0.7-1,0.9-1.6c0.6,0.2,0.3,0.6,0.2,1c-0.1,0.6-0.5,1-0.6,1.5c0.4-0.8,0.8-1.8,1.5-2.5
		c0.8-1.3,1-2.8,1.7-4.1c0,2.3-0.5,4.5-1.5,6.6c-0.1-0.1-0.2-0.1-0.3,0c-1.3,2.5-3.4,4.4-5.4,6.4c-0.3,0.3-0.7,0.5-0.7,1
		c0,0,0,0.1,0,0.1c-0.1,0.1-0.1,0.2,0,0.1c1.1-0.7,2.3-1.2,3.3-1.9c0.9-0.7,1.7-1.5,2.6-2.2c0.4,0.5,0,1-0.3,1.3
		c-1.1,1.3-2.2,2.5-3.9,3.1c-2.3,0.8-4.3,2.2-6.7,2.8c-0.5,0.1-0.8,0.5-1.1,0.8c-0.2,0.2-0.5,0.2-0.7,0.4c-0.6,0.3-0.2,0.7,0,1.1
		c0.6,1.2-0.5,1.7-0.9,2.4c-0.3,0.6-0.9,0.3-1.4,0.1c-0.4-0.2-0.9-0.2-1.3,0c-0.7,0.3-1.4,0.6-2,0.9c-0.9,0.4-0.7,1.4-0.6,2.2
		c0,1,0,2-0.2,2.9c-0.2,0.8-0.6,1.2-1.3,1.1c-1.7-0.2-3.2,0.5-4.6,1.3c-0.5,0.3-0.9,0.7-1.5,0.3c-0.5-0.4-0.2-1-0.1-1.5
		c0-0.2,0.1-0.3,0.1-0.8c-0.6,1.1-0.9,2-1.1,2.9c-0.4,1-0.5,2.1-0.7,3.2c-0.2,0.3-0.2,0.8-0.7,0.7c-0.5-0.1-0.4-0.6-0.3-1
		c0-0.3,0-0.5,0.1-0.8c0-0.1,0-0.2,0.1-0.4c0.2-0.7,0.1-1.4,0.1-2.1c0-1,0.2-1.9,0.5-2.9c0.2-0.6,0.1-1-0.3-1.4
		c-0.3-0.5,0.1-0.8,0.3-1.1c0.7-0.6,1.4-1.2,2-1.8c0.3-0.3,0.7-0.6,1.1-0.2c0.4,0.4-0.1,0.8-0.3,1.1c-0.3,0.4-0.7,0.7-1,1.3
		c2.1-0.9,3.5-2.3,4.6-4c1.1-1.7,2.1-3.3,3.1-5c0.3-0.5,0.6-1.2,1.2-0.8c0.5,0.3,0.1,1-0.2,1.4c-0.2,0.4-0.4,0.8-0.5,1.2
		c0.9-1.9,2.3-3.6,3.1-5.6c0.3-0.7,0.5-1.3,0.3-2.1c-0.1-0.6,0.1-1.1,0.2-1.7c0.1-0.2,0.2-0.4,0.5-0.2c0.2,0.4,0.2,0.9,0.2,1.3
		c0,0.4,0.2,0.8,0.6,1c0.3,1.1-0.3,2.1-0.7,3.1c-0.6,1.2-1.3,2.4-1.9,3.7c2.8-2.7,4.6-5.8,6.3-9.1c0.3-0.5,0.3-1.2,1.1-1.2
		c0,0.6,0,1.2,0,1.9c0.7-0.2,0.9-0.7,1.4-1c0.3,0.4,0.1,0.7-0.2,0.9c-1.4,1.3-2.1,2.9-3.1,4.5c-0.3,0.5-0.6,0.9-1.1,1.5
		c1.2-0.6,2.4-0.7,3.4-1.3c1.5-0.9,2.7-1.8,3.2-3.6c0.3-1.1,1.5-1.6,2.1-2.5c-0.4,0.2-0.5,1-1.2,0.7c-0.2-0.5,0.2-0.8,0.5-1
		C105.4,22,106.1,21.1,106.9,20.3z"/>
	<path class="st9" d="M56.1,26c-1,1.1-2.4,1.7-3.6,2.5c-2.6,1.8-5.3,3.5-7.9,5.2c-4.1,2.8-8.1,5.9-12,9.1c-0.7,0.6-1.3,1.4-2.3,1.7
		c-1.1,0.4-2,0-2.2-1.1c-0.4-2.4-1.9-4.2-3.4-6c-1.7-2-2.4-4.3-2.6-7c-0.2-3.4,0.6-6.6,1.5-9.8c0.3-1,0.2-2,0.8-2.9
		c0.2-0.3-0.1-0.6-0.3-0.8c-0.6-0.6-1.2-1.2-1.8-1.7c-0.2-0.2-0.5-0.1-0.8,0c-1.3,0.7-2.7,1.2-3.9,2.1c-0.3,0.2-0.6,0.8-1,0.3
		c-0.3-0.4,0.2-0.7,0.5-1c1.2-1.2,2.4-2.4,3.6-3.6c0.6-0.6,1.2-1.3,1.2-2.2c1-0.8,2-1.6,3.2-2.1c0.5,0.7-0.1,1-0.4,1.4
		c-0.3,0.3-0.5,0.5-0.8,0.8c-0.3,0.2-0.5,0.5-0.8,0.7c-0.6,0.4-1,0.9-1.4,1.4c-0.2,0.3-0.2,0.6,0.3,0.6c0.4,0,0.8-0.2,1.2-0.4
		c0.7-0.4,1.5-0.5,2.3-0.5c1.3,0.1,2,0.8,2.1,2c0.1,1.2-0.2,2.3-0.6,3.4c-0.7,1.8-1.3,3.6-1.9,5.5c-0.7,2.1-0.8,4.3-0.7,6.4
		c0.1,1.8,0.9,3.4,2,4.8c1.3,1.6,2.3,3.4,3.1,5.3c0.8,1.7,1.4,1.8,2.9,0.8c3.7-2.4,7.2-4.9,10.6-7.6c1.6-1.4,3.4-2.4,5.2-3.5
		c1.6-1.1,3.2-2.2,5-3.2C54.1,26.3,55,25.6,56.1,26z"/>
	<path class="st10" d="M103,47.9c0.3,0.8,0.5,1.6,0.5,2.5c0,2.5,0.1,4.9,0,7.4c-0.2,2.9-0.7,5.7-1.8,8.3c-0.4,0-0.3,0.3-0.4,0.6
		c-1.1,3-2.4,5.8-4.1,8.4c-1,1.5-2.2,3-3.6,4.2c-0.7,0.6-0.9,0.6-1.2-0.3c0-0.1,0.1-0.2,0.1-0.3c1.6-1.9,3.2-3.8,4.5-6
		c1.1-1.9,2.2-3.8,2.9-6c-0.6,2-1.7,3.8-2.8,5.7c-0.1,0.1-0.2,0.1-0.3,0.2c-0.9-0.1-0.5-0.7-0.3-1.1c0.5-1.2,0.9-2.4,1.4-3.6
		c0.6-1.4,0.7-2.8,1-3.7c-0.2,1.1-0.6,2.6-1.4,4.1c-0.1,0.1-0.2,0.2-0.4,0.2c-0.6-0.4-0.3-0.9-0.1-1.4c0.9-2.7,1.4-5.5,1.7-8.2
		c0.3-0.5,0.4-0.9,0.3-1.5c-0.2-1-0.4-2-0.6-3c-0.1-0.4-0.1-0.8,0.1-1.2c0.5-0.3,0.5-0.7,0.5-1.2c0-2.2-0.3-4.4-0.9-6.5
		c-0.7-2.5-1-5.1-2-7.6c-0.1-0.5-0.6-1.1,0.1-1.4c0.5-0.2,0.7,0.6,0.9,1c0.4,0.8,0.6,1.7,0.8,2.6c0.6,2.4,1.6,4.7,1.7,7.3
		c0.1-0.2-0.1-0.4-0.1-0.5c0-0.3-0.1-0.7,0.3-0.8c0.4-0.1,0.6,0.3,0.7,0.6c0.2,2,1,3.8,1.1,5.1c-0.5-3.7-1.3-8-3.7-11.8
		c-0.5-1.9-1.7-3.7-1.7-5.8c0.7-0.5,1,0.1,1.3,0.6c0.8,1.3,1.5,2.6,2.1,3.9c1.3,3,2.7,6,3.2,9.3c0,0.1,0.1,0.2,0,0.3
		C103,48.2,102.8,48,103,47.9z"/>
	<path class="st11" d="M35.8,3.2c0.1,0.2,0.4,0.4,0.4,0.5c-0.6,1.4,0.4,1,1.1,1.1c1.6,0.1,2.4,1.3,2.2,2.9c-0.3,2.7-1.5,4.9-2.7,7.2
		c-1.7,3.2-2.4,6.5-1.3,10c1.4,4.5,5.5,5.9,9.4,3.6c4.2-2.4,8.3-4.8,12.5-7.1c3-1.6,6.2-2.5,9.2-3.8c0.9-0.4,1.8-0.6,2.6-1.1
		c1.2-0.7,2.5-0.2,3.8-0.6c0.2-0.1,0.6,0.2,0.6,0.4c0.1,0.4,0.1,0.9-0.3,1.3c-0.5,0.5-1.1,0.9-1.7,1.3c-0.7,0.4-1.2,0.9-1.3,1.9
		c-0.1,0.8-0.7,1.4-1,2.1c-0.5,1,0,2.5,1,2.7c1,0.3,2,0.7,2.8,1.4c1,0.8,2.1,0.7,3.2,0.6c0,0.6-0.5,0.7-1,0.7
		c-1.2,0.1-2.6,0.4-3.7-0.1c-1.4-0.6-3-1.2-3.9-2.7c-0.5-0.7-0.3-1.5,0-2.3c0.3-0.6,0.3-1.1-0.5-1.5c-0.8-0.4-0.4-1,0.1-1.3
		c1.2-0.9,2.4-1.6,3.7-2.2c0.4-0.2,0.9-0.3,1.2-0.9c-0.6-0.3-1.1-0.1-1.6,0.1c-2.2,0.9-4.5,1.7-6.9,2.3c-3.6,1-6.8,3-10,4.8
		c-3.2,1.7-6.1,3.9-9.3,5.7c-1.3,0.7-2.7,1.3-4.2,1.3c-2.6,0.1-4.4-1.1-5.6-3.3c-2.2-4.1-2.1-8.4-0.2-12.6c0.9-2.1,1.8-4.2,2.3-6.4
		c0.5-1.9-0.3-3.2-2.6-3c-0.5,0-1,0.1-1.3-0.4c-0.1-0.7,0.8-0.9,0.7-1.6C34.2,3.7,35,3.4,35.8,3.2z"/>
	<path class="st12" d="M84.3,83.2c0.7-0.9,1.6-1.4,2.8-1.4c1.8,0.1,3.5-0.1,5.3-0.4c0.4-0.1,0.8-0.1,1.2,0.3
		c0.4,0.4,0.9,0.6,1.3,0.2c0.4-0.4-0.1-0.8-0.3-1.2c0.6,0,1,0.5,1.2,1c0.4,1.1,1.3,1.4,2.3,1.7c0.1,0,0.2,0.1,0.3,0.1
		c1.9-1.1,3.2,0.1,4.6,1.1c0.2,0.1,0.7,0.4,0.4,0.8c-0.2,0.3-0.5-0.1-0.8-0.2c-0.1,0-0.3-0.1-0.4-0.2c-0.4-0.1-0.8-0.2-1.2-0.4
		c0.3,0.2,0.7,0.3,0.9,0.6c0.7,0.6,1.7,1.3,1.2,2.1c-0.3,0.5-1.5-0.4-2.2-0.9c1,1.2,2.4,2.2,1.8,4.1c-0.7-0.8-1.1-2.1-2.6-1.7
		c0.4,1.1,1.1,2.2,0.6,3.6c-1.3-1.3-1.2-3.5-3.1-4.5c0.5,1.2,1.4,2.1,1,3.5c-0.7-0.9-1.4-1.7-2.1-2.5c-0.4-0.5-0.6-0.6-1,0
		c-0.2,0.1-0.3,0.1-0.4-0.1c-0.9-1.1-1.9-2-3.1-2.8c-0.2-0.2-0.5-0.5-0.3-0.8c0.2-0.3,0.6-0.1,0.8,0.1c0.7,0.4,1.3,0.9,1.9,1.2
		c-0.6-0.9-1.5-1.6-2.4-2.3c-0.4-0.3-1.1-1.2-1.6,0.1c-0.2,0.4-0.9,0-1.2-0.2c-0.7-0.4-1.5-0.5-2.3-0.2c-0.4-0.3-0.9-0.4-1.4-0.4
		C85.1,83.5,84.6,83.5,84.3,83.2z"/>
	<path class="st13" d="M96.6,32.6c0.2-0.9,1-0.9,1.6-1.1c3.3-1.4,6.9-2.3,9.5-5.1c0.5-0.5,1-1,1-1.7c1.3-1.9,2.2-4,3.4-6.1
		c0.4,1.9-1.2,5.9-3.2,8.5c-1.9,2.5-4.6,3.9-7.3,5.3c1.8,0.2,5.7-1.2,8.6-3.9c-0.5,1.3-1.4,2.2-2.4,3c-1,0.8-2.2,1.3-3.4,1.8
		c-2.3,1-4.5,0.6-6.7-0.1C97.2,33.2,96.5,33.4,96.6,32.6z"/>
	<path class="st14" d="M87,83.9c0.3-0.8,0.9-0.4,1.4-0.3c0.6,0.2,1.2,0.5,1.9,0.8c-0.3-1-0.1-1.3,0.8-0.9c1.7,0.8,2.8,2.1,4,3.7
		c-1.4-0.4-2.3-1.3-3.4-1.8c1.3,1.1,2.6,2.2,3.7,3.5c0.9,1.2,1.8,2.4,1.8,4.1c-0.8-0.4-1-1.3-1.5-1.8c-0.4-1.1-1.4-1.7-2.3-2.1
		c-1.4-0.7-2.4-1.8-3.6-2.7c0.4,0.6,0.8,1.1,1.3,1.6c0.9,1.2,1.2,2.7,1.3,4.2c0,0.6-0.1,1.1-0.9,0.9c-0.7-0.8-0.9-1.8-1.4-2.7
		c-0.8-1.4-2-2.6-3.1-3.7c-0.5-0.4-0.9-0.8-1.2-1.3c-0.1-0.5-1.1-1,0-1.6C86.1,83.6,86.5,84,87,83.9z"/>
	<path class="st15" d="M99.8,22.8c-0.5,0.3-0.6,0.9-0.9,1.4c-1.7,3.2-3.4,6.3-6,8.8c-0.2,0.2-0.4,0.6-1,0.6c1-2.5,2.7-4.6,3.2-7.2
		c0.6-1.4,1-2.9,1.8-4.3c0.4-1.4,0.2-2.8,0.3-4.2c0.8,0.5,0.5,1.6,1.3,2.1c0.6-1.9,0.5-3.7,0.1-5.8C99.8,15.6,100.5,20.6,99.8,22.8z
		"/>
	<path class="st16" d="M104.1,23.7c0.8-0.1,1-1,1.9-1.3c-0.4,0.5-0.7,0.9-1,1.2c-1.1,0.9-1.5,2.3-2.2,3.4c-1,1.7-2.6,2.6-4.5,3.1
		c-0.7,0.2-1.3,0.5-2.1,0.7c1.6-1.8,2.3-4.2,4-5.9c0.4-0.4,0.9-0.6,0.9-1.3c1.2-2.9,2.5-5.9,2.4-9.5c0.7,1.2,0.9,2.2,0.8,3.3
		c0.2,2.2,0.3,4.4-0.7,6.4c-0.2,0.2,0,0.2-0.1,0.1c0,0,0,0,0.1-0.1C103.7,23.8,103.9,23.6,104.1,23.7z"/>
	<path class="st17" d="M91.4,92.9c0.8,0.1,0.7-0.4,0.6-0.9c-0.2-1.9-0.7-3.6-2.2-5c-0.4-0.3-0.7-0.7-0.7-1.2
		c0.4-0.2,0.7,0.2,0.9,0.4c1.4,1.7,3.5,2.5,5.1,3.9c0.3,0.3,0.5,0.6,0.6,1.1c-0.3-0.1-0.4-0.3-0.5-0.6c-0.3-0.4-0.5-0.4-0.8,0
		c-1.1,2-3,3.4-4.5,5.1c-0.2,0.2-0.5,0.2-0.7,0.4c-0.4,0.3-0.5,0-0.6-0.3c0.5-1.2,1.6-1.9,2.4-2.8C91.2,92.9,91.3,92.9,91.4,92.9z"
		/>
	<path class="st18" d="M88.8,95.7c0.3,0.8,0.7-0.4,1.1,0c-5.1,4.6-10.9,7.9-17.3,10.3c-0.3,0.2-0.5,0.2-0.7-0.1
		c0.1-0.5,0.6-0.6,0.9-0.7c4.9-2,9.5-4.4,13.6-7.8c0.4-0.3,0.8-0.7,1.2-1.1C88,95.9,88.3,95.6,88.8,95.7z"/>
	<path class="st19" d="M96.6,32.6c0.1,0.4,0.6,0.4,0.9,0.7c-0.5,0.4,0,0.7,0.1,1c1.8,3.5,3.6,7.1,4.7,10.9c0.3,0.9,0.4,1.8,0.6,2.7
		c0,0.3,0,0.6,0,0.9c-0.8-3.4-2.1-6.7-3.6-9.8c-0.7-1.5-1.5-2.9-2.3-4.3c-0.2-0.4-0.5-0.5-0.9-0.5c-0.1-0.4,0.3-0.3,0.4-0.4
		c-0.4-0.2-0.8-0.4-0.7-1C96.1,32.5,96.3,32.6,96.6,32.6z"/>
	<path class="st20" d="M102.8,28.5c-0.3,0-0.5-0.1-0.2-0.4c0.5-0.5,1.1-1.1,1.6-1.6c1.7-1.6,3.3-3.4,4.5-5.5
		c0.1-0.1,0.1-0.4,0.4-0.3c0.1,0.1,0.1,0.3,0.1,0.4c-0.3,1.7-1.4,3.1-2.5,4.4c-0.8,0.9-1.5,2-2.6,2.6
		C103.6,28.3,103.3,28.7,102.8,28.5z"/>
	<path class="st21" d="M33.5,4.2c0.8,1-0.4,0.9-0.7,1.3c-1.2,1-2.8,1.3-4,2.2c-0.3,0.2-0.8,0.4-0.7,0.9c-0.6,1.1-1.7,1.3-2.6,1.9
		c-0.3,0.2-0.6,0-0.7-0.4c0.4-0.8,1.1-1.3,1.8-1.8c0.7-0.5,1.4-1,2-1.7C30,5.4,31.8,4.9,33.5,4.2z"/>
	<path class="st22" d="M92.5,78.8c0.1,0.6,0.3,0.9,0.8,0.3c2-2,3.9-4.2,5.1-6.8c1-2.1,2.2-4.1,2.8-6.4c0-0.1,0.1-0.4,0.4-0.2
		c0.1,0.1,0,0.3,0.1,0.4c-1,3.2-2.4,6.1-4.2,8.9c-1.2,1.7-2.5,3.3-4,4.8c-0.4,0-0.7,0-1.1,0C92,79.4,91.9,79.1,92.5,78.8z"/>
	<path class="st23" d="M72,105.8c0.2,0.3,0.4,0.2,0.7,0.2c-3,1.3-6.2,1.9-9.4,2.5c-1.2,0.2-2.4,0.5-3.6,0.4c0.1-0.1,0.3-0.2,0.6-0.4
		c-0.5,0-0.9,0-1.2-0.1c0.1-0.5,0.5-0.5,0.9-0.5c3.8-0.2,7.6-0.9,11.2-2.2C71.4,105.6,71.7,105.5,72,105.8z"/>
	<path class="st24" d="M28.5,6.6c-0.1,0.8-0.8,1.3-1.4,1.6c-0.8,0.5-1.5,1.2-2.2,1.8c-0.1,0.1-0.3,0.1-0.5,0
		c0.2-0.5,0.8-0.7,0.7-1.4C26.1,7.8,27.2,7.1,28.5,6.6z"/>
	<path class="st25" d="M96.8,22.2c-0.4,1.5-0.8,3-1.8,4.3c-0.6,0.1-0.9-0.1-0.9-0.8c0-0.6,0-1.1,0-1.7C93.6,23,93.8,22,93.9,21
		c0.1-0.1,0.1-0.2,0.3-0.3c0.8,0.7,1.7,0.4,2-0.6C96.7,20.7,96.4,21.5,96.8,22.2z"/>
	<path class="st26" d="M89.8,25.1c0-0.5,0-0.9,0-1.4c0.1-0.8,0.1-1.7,0.9-2.3c0.8,1,0.3,2.3,0.5,3.5c0.9-0.5,0.9-1.7,1.8-2.2
		c0.2,0.2,0.2,0.5,0.2,0.8c-0.2,1.3-0.5,2.5-1.4,3.5c-0.3,0.3-0.5,0.6-1,0.5c-0.4-0.1-0.3-0.6-0.3-0.9c-0.3-1,0-2,0.1-3
		c0,0,0-0.1,0-0.1c-0.2-0.1-0.1,0.1-0.1,0.2C90.2,24.3,90.5,24.9,89.8,25.1z"/>
	<path class="st25" d="M92.9,23.7c0-0.3,0-0.6,0-0.9c0.2-1.2,0.3-2.5,0.5-3.9c0.5,0.7,0.6,1.2,0.7,1.8c0,0-0.1,0.1-0.1,0.1
		c-0.4,0.5-0.2,1.2-0.4,1.7C93.5,23,93.7,23.6,92.9,23.7z"/>
	<path class="st27" d="M6.4,66.6c-0.3-1.9-0.6-3.8-0.9-5.6c-0.5-2.5,0-5-0.4-7.5c-0.3-1.8,0.5-3.4,0.7-5.1c0.8-5.5,2.4-10.7,4.1-16
		c1-3.2,2.2-6.3,4.2-9c1.1-1.5,2.2-3.1,4-4.1c0.6-0.4,0.8-0.3,1.1,0.4c1.1,2.4,0.6,4.9,0.5,7.3c-0.1,1.1,0.3,2.3,0.2,3.4
		c-0.4,2.3,0.3,4.5,1.1,6.6c0.5,1.3,1.3,2.5,2.2,3.6c1.6,2.1,2.5,4.6,3.1,7.1c0.4,1.6,1.2,1.8,2.4,0.7c3.5-3.1,6.7-6.5,10.3-9.4
		c3.2-2.5,6.5-5,10-7.2c0.3-0.2,0.6-0.3,1-0.3c-0.8,0.9-1.6,1.7-2.4,2.6c0.1,0.3,0,0.5-0.2,0.6c-2.1,1.6-3.8,3.6-5.7,5.3
		c-0.8,0.6-1.5,1.3-2,2c-0.1,0.1-0.1,0.2-0.2,0.2c-0.6,0.7-1.4,1.3-1.9,2.1c-0.1,0.1-0.2,0.3-0.3,0.4c-1.5,1.9-3.3,3.6-4.8,5.5
		c-1.8,2.3-3.9,4.4-5.4,7c-0.3,0.5-1,1.4-0.5,1.7c0.6,0.4,1.1-0.5,1.6-0.9c1.1-1,1.9-2.3,2.7-3.5c0.4-0.7,1.1-1,1.8-1.5
		c2-1.3,4.1-2.2,6-3.6c4-2.8,8.4-4.8,12.7-7c3.1-1.6,6.2-3.2,9.3-4.7c2.7-1.3,5.5-2.4,8.2-3.7c1.2-0.6,2.6-0.6,3.8-1.2
		c0.4-0.2,0.9-0.2,1.3,0.2c0,0.4-0.3,0.6-0.6,0.7c-1.1,0.5-2.3,1-3.5,1.4c-1.4,0.5-2.7,1.1-4,1.7c-4.4,2.2-8.5,4.8-12.9,7
		c-2.6,1.3-5.2,2.4-7.7,3.8c-1.9,1-3.5,2.4-5.1,3.8c-2.5,2.1-5.3,4-7.9,6c-1.9,1.4-3.9,2.8-5.3,4.7c-0.9,1.1-2.2,0.9-2.9-0.3
		c-0.7-1.2-0.7-2.5-0.4-3.9c0.9-3.7,1.1-7.5-0.2-11.2c-0.5-1.2-1.2-2.2-2-3.3c-2.4-3.1-4.2-6.6-4.1-10.6c0-1.7,0.2-3.4,0.1-5.1
		c-0.1-1.3,0-2.7-1.1-3.7c-0.4-0.3-0.5-0.3-0.8,0c-0.3,0.3-0.7,0.7-1,1.1c-2.2,3.2-3.7,6.7-4.7,10.4c-0.3,1.1-0.7,2.2-0.9,3.3
		c0,0.1-0.1,0.2-0.1,0.4c-0.7,1.9-0.9,3.9-1.4,5.8c-0.6,2.5-0.7,5.2-1.4,7.7c-0.2,0.8,0,1.6,0,2.5c0,3.4,0.6,6.7,0.8,10
		C6.7,65.5,6.8,66.1,6.4,66.6z"/>
	<path class="st28" d="M6.4,66.6c0-0.5,0-1.1,0-1.6c0.5,0,0.5,0.4,0.5,0.7c0.3,3.3,1.3,6.5,2.8,9.4c1.1,2.3,2.2,4.6,3.5,6.8
		c0.9,1.5,2,2.9,3.2,4.1c4.4,4.6,8.7,9.3,14.3,12.4c4.6,2.6,9.6,4.4,14.8,5.5c2.5,0.5,5,0.7,7.6,0.7c0.7,0,1.4-0.1,2-0.3
		c0.3-0.1,0.7-0.1,0.7-0.5c0.1-0.4-0.3-0.5-0.6-0.6c-0.3-0.2-0.7-0.3-1-0.6c-1.1-0.9-1.2-1.8,0.1-2.6c0.8-0.5,1.3-1.2,1.7-2.1
		c0.5-1.2,0.2-2.3-0.8-3.2c-1.5-1.3-3.1-2.3-4.8-3.2c-3.4-1.7-6.8-3.4-9.7-5.9c-3-2.5-6-4.9-8.7-7.7c-1.9-2-2.9-4.6-3.6-7.3
		c-0.1-0.3-0.1-0.7-0.3-1c-0.9-2.2-0.5-3.8,1.5-5.3c0.7-0.5,1-1.5,2.1-1.2c0.2,0.1,0.3,0.2,0.3,0.4c-0.4,0.4-1.1,0.5-1.3,1.1
		c-1,0.7-1.8,1.6-1.8,3c0,0.5,0,0.9,0.3,1.4c0.9,1.8,1.2,3.8,2.5,5.5c0.7,0.9,1.5,1.7,2.2,2.6c2.9,3.5,6.1,6.5,9.8,9.1
		c1.1,0.8,2.3,1.4,3.4,2c3,1.6,6.1,3,9.1,4.5c1.5,0.8,3.2,1,4.8,1.4c0.9,0.2,1.7,0.6,2.5,1c0.7,0.4,1.3,0.9,1.6,1.7
		c0.4,1,1.2,1.7,2.3,2c1,0.2,1.8,0.7,1.8,1.9c0.1,1.4-0.4,2.2-1.8,2.7c-0.3,0.1-0.6,0.3-1,0.4c-1.5,0.2-2.7,0.9-3.9,1.7
		c-1.3,0.9-2.9,0.9-4.4,0.8c-2.9-0.1-5.8-0.1-8.7-0.4c-4.2-0.5-8.5-1.2-12.5-2.9c-1.5-0.7-3.1-1.1-4.6-1.9c-3.3-1.8-6.2-4.2-9.2-6.5
		c-3-2.3-5.5-5-8-7.8c-1-1.1-1.7-2.3-2.6-3.5l0,0c-0.9-1.7-1.8-3.5-2.6-5.2C8.4,74.3,6.6,70.7,6.4,66.6z"/>
	<path class="st29" d="M49.4,32.8c1.1-1.2,2.6-2.1,3.8-3.1c1.3-1.1,2.6-2.1,3.9-3.2c0.9-0.9,1.8-1.6,2.9-2.1c0.6-0.1,1-0.9,1.7-0.4
		c0,0.4-0.1,0.8,0.5,0.5c0.6-0.3,1.2-0.5,1.7-0.8c0.5-0.3,1.1-0.4,1.6,0c0.5,0.4,0.4,0.9,0.2,1.5c-0.2,1.2,0.4,2.3,1.4,2.8
		c0.5,0.2,1,0.3,1.2,0.8c0.4,0.9,1,0.9,1.8,0.7c1.2-0.3,2.4-0.8,3.6-0.9c2.2-0.2,4.4-0.6,6.6-0.1c0,0.9-0.8,0.7-1.3,1
		c-1.1,0.1-2.2,0.4-3.3,0.2c-0.6-0.1-1.2,0.2-1.7,0.4c-3.1,1.4-6.4,2.2-9.5,3.4c-0.7,0.3-1.3,0.3-1.5-0.6c-0.1-0.3-0.3-0.4-0.6-0.4
		c-2,0-2.5-1.7-3-3.1c-0.3-0.8-0.4-0.8-1.1-0.5c-1.4,0.6-2.5,1.4-3.7,2.3c-1.2,1-2.5,1.8-3.7,2.8c-1.7,1.2-3.2,2.8-5.1,3.9
		c-0.8-0.1-0.6-0.6-0.4-1c0.3-0.5,0.7-0.9,1.1-1.3C47.8,34.6,48.6,33.7,49.4,32.8z"/>
	<path class="st30" d="M49.4,32.8c-0.7,1.6-2.3,2.5-3.2,3.8c-0.2,0.3-0.9,0.7,0,1c0.2,0.5-0.3,0.7-0.6,1c-1.4,1.2-2.6,2.6-4.1,3.7
		c-0.7,0.7-1.4,1.4-2.1,2.2c-0.7,0.7-1.4,1.3-2.1,1.9c-0.3,0.3-0.8,0.5-1.1,0.2c-0.3-0.3,0-0.7,0.1-1c0.2-0.4,0.5-0.6,0.7-1
		c0.1-0.1,0.2-0.2,0.2-0.2c0.6-0.8,1.5-1.4,2.1-2.3l0,0c0.6-0.8,1.5-1.4,2.1-2.3c2-1.9,4.1-3.8,6.1-5.7
		C48.4,33.9,48.7,32.9,49.4,32.8z"/>
	<path class="st31" d="M56.1,26c-1.8,0.1-3.2,1.2-4.7,2.2c-2.2,1.4-4.4,2.9-6.6,4.3c-0.5,0.3-1,0.7-1.5,1.1
		c-0.1,0.1-0.3,0.1-0.5,0.1c-0.1-0.6,0.4-0.8,0.7-1.1c0.3-0.3,0.6-0.5,0.9-0.7c0.6-0.6,1.3-1.1,2.2-1.5c2.3-1.4,4.5-3,6.8-4.3
		c1.3-0.7,2.7-1.3,4-1.8c0.4-0.1,0.8-0.3,1.2-0.1c0.2,0.6-0.3,0.7-0.7,1c-0.3,0.2-0.8,0.2-1.1,0.5C56.7,25.7,56.4,25.9,56.1,26z"/>
	<path class="st9" d="M57,25.5c0.4-0.7,1.4-0.6,1.8-1.4c0.2-0.5,0.7-0.7,1.2-0.7c0.7,0.3,0.7,0.7,0.1,1.1c-1,0.6-2,1.2-3,1.8
		C57.4,26.1,57.9,25.6,57,25.5z"/>
	<path class="st32" d="M53.3,76.3c0.3,0.3,0.2,0.7,0.2,1.1c0,0.2,0,0.4,0.3,0.4c0.2,0,0.3-0.2,0.4-0.4c0-0.3,0-0.5,0-0.8
		c0-0.6,0-1.3,0.8-1.4c0.7-0.1,1.9,0.7,1.9,1.4c0,0.6,0.3,1.1,0.5,1.6c0.2,0.3,0.4,0.7,0.8,0.5c0.3-0.1,0.3-0.5,0.3-0.8
		c0-0.3-0.3-0.6,0.1-0.8c0.4-0.2,0.6,0.3,0.8,0.5c1.4,1.2,2.1,2.7,3,4.2c0.2,0.4,0.4,1.2,1,0.9c0.6-0.3,0.1-0.9,0-1.3
		c-0.2-0.9-0.6-1.8-1.2-2.6c-0.1-0.2-0.4-0.4-0.2-0.6c0.1-0.1,0.4-0.2,0.6-0.1c0.9,0.3,1.7,0.7,2.2,1.4c1.4,1.9,2.7,3.8,3.7,5.9
		c0.1,0.3,0.3,0.6,0.6,0.5c0.4-0.1,0.3-0.5,0.3-0.7c0.1-1.6-0.5-2.9-1.4-4.2c-0.1-0.2-0.4-0.3-0.2-0.7c1.6,1.3,2.9,2.7,3.7,4.6
		c-1,0.1-1.2,0.7-1.1,1.6c0.2,1.6,0.9,2.9,2,4c1.1,1.1,1.9,2.2,1.7,3.9c-0.1,1,0.2,2.1,1.2,2.6c0.1,0.1,0.2,0.2,0.3,0.2
		c2.5,2,1.9,3.6-0.6,5c-1,0.5-2,0.9-3,1.4c-0.3,0.1-0.7,0.3-1,0c-1.7,0.1-3.2,0.6-4.7,1.3c-1.2,0.6-2.4,0.9-3.7,0.9
		c-0.1-0.3,0.1-0.4,0.3-0.5c1.9-1,3.8-2.2,5.9-2.5c1.3-0.2,2.2-0.9,3.2-1.7c0.8-0.6,0.7-1.2-0.1-2c-1-1-2-1.8-3.4-2
		c-0.6-0.1-0.9-0.7-1.3-1.2c-1.1-1.6-2.4-2.9-4.4-3.5c-0.9-0.2-1.8-0.4-2.7,0c-1.3,0.5-2.5,0.4-3.8,0c-2.1-0.7-4.1-1.7-6.2-2.6
		c-3.7-1.7-7.3-3.6-10.4-6.4c-0.9-0.8-1.9-1.6-2.6-2.7c-1.2-1.8-2.9-3.1-4.4-4.6c-1.5-1.6-2.8-3.3-3.3-5.5c-0.1-0.5-0.7-0.9-0.6-1.6
		c1.2,0,1.4,1,1.6,1.7c1.1,2.8,3.2,4.7,5.4,6.6c1.1,0.9,2,1.8,2.7,3c1.6,2.7,4.1,4.5,6.8,5.9c3.4,1.9,6.9,3.6,10.7,4.7
		c0.5,0.1,1,0.3,1.6,0.2c0.9-0.1,1.1-0.6,0.6-1.3c-1.4-1.9-3.2-3.4-5.2-4.8c-1.5-1-2.9-2-4.4-3c-1.9-1.3-4-2.3-6.2-3.1
		c-1.2-0.5-2.2-1.3-3.2-2.2c-0.2-0.2-0.3-0.5-0.2-0.7c0.2-0.3,0.5-0.2,0.7-0.1c0.8,0.2,1.5,0.6,2.3,1c0.3,0.2,0.6,0.4,0.6-0.3
		c0-0.6,0.6-0.4,0.9-0.2c0.8,0.3,1.6,0.7,2.3,1.3c2.5,2,5.3,3.2,8.3,4.3c1.4,0.5,2.9,0.4,4.4,0.2c0.3,0,0.7-0.1,0.8-0.5
		c0.1-0.4-0.2-0.6-0.5-0.9c-0.3-0.3-0.6-0.5-0.9-0.7c-0.9-0.6-1.8-0.9-2.7-1.5c-1.1-0.7-1.1-0.7-1.7,0.5c-0.4,0.3-0.8,0.5-1-0.2
		C53.1,78.3,52.7,77.3,53.3,76.3z"/>
	<path class="st1" d="M29.4,69.3c1.2,3.5,3.1,6.6,6.2,8.8c1,0.7,1.5,1.8,2.2,2.7c2.3,3,5.3,5.1,8.6,6.9c2.9,1.5,5.9,2.9,9,4.1
		c1.7,0.7,3.4,1.2,5.4,0.5c1.8-0.7,3.4,0.3,4.8,1.3c0.7,0.5,1.3,1.1,1.8,1.9c0.7,1.1,1.5,1.9,2.9,2c0.6,0,1.1,0.3,1.3,0.9
		c0.1,0.3,0.4,0.5,0.7,0.7c1.6,0.7,0.9,1.9-0.1,2.7c-1.3,1.1-2.8,1.5-4.3,1.8c-1.9,0.4-3.4,1.6-5.1,2.4c-2.4,1-5,0.5-7.5,0.4
		c-1.2-0.1-2.4-0.2-3.6-0.2c-2.7,0.1-5.4-0.5-8.1-1c-3.5-0.7-7-1.5-10.2-3.1c-2.1-1.1-4.2-2.2-6.2-3.3c-0.6-0.3-0.8-0.9-1.2-1.3
		c-2.1-2.3-4.6-4.1-6.8-6.2c-2.5-2.5-5-5-6.6-8.1c0.5,0.2,0.6,0.6,0.9,1c2,2.5,4.1,4.9,6.4,7.1c2.7,2.5,5.7,4.8,8.7,7
		c4.1,3,8.8,4.8,13.7,5.9c3,0.6,6,1.4,9.1,1.4c2,0,4,0.1,6.1,0.3c2.2,0.2,4.4,0.1,6.1-1.7c0.3-0.3,0.8-0.5,1.2-0.5
		c1,0,2-0.5,2.9-0.9c1-0.4,0.8-1.4,1-2.2c0.1-0.8-0.5-1.3-1.2-1.4c-1.6-0.3-2.5-1.2-3.2-2.7c-0.6-1.3-2.1-1.7-3.3-2
		c-2.9-0.5-5.6-1.7-8.3-3C48,89,43,86.7,38.9,82.8c-3.2-3.1-6.5-6.1-8.7-10.1c-0.6-1.1-0.9-2.4-1.3-3.6C29,69,29.1,69,29.2,69
		C29.3,69.1,29.4,69.2,29.4,69.3z"/>
	<path class="st3" d="M71.3,103.7c0.3,0,0.6-0.1,0.9-0.2c1.4-0.4,2.8-0.9,4-1.8c0.3-0.2,0.6-0.3,0.9-0.4c0.9-0.4,1.4-1.2,1.9-2
		c0.8-1.3,1-2.1-0.3-3.2c-0.8-0.7-1-2.1-1-3.2c-0.1-1.2-0.6-1.9-1.6-2.4c-0.3-0.2-0.6-0.3-0.9-0.5c-1.5-0.8-1.5-0.8-0.9-2.3
		c0.5-1.3,1-1.6,2.3-1c0.3,0.1,0.7,0.4,1.1,0.4c1.7,0.1,2.6,1.1,2.4,2.8c-0.2,1.3,0.3,2.5,0.2,3.8c0,0.3,0.1,0.6,0.4,0.7
		c0.3,0.1,0.5-0.2,0.7-0.4c0.8-0.8,1.2-1.6,0.8-2.8c-0.3-1-0.2-2.1-0.6-3.1c-0.5-1.8-1-3.6-2.3-5.1c-0.1-0.1-0.3-0.3-0.1-0.5
		c0.1-0.1,0.3-0.1,0.4,0c1.5,0.7,3.1,0.6,4.7,0.6c0.5,0,1,0.1,1.5,0c0.6-0.1,0.9,0.2,1.2,0.7c-0.5,0.5-0.9,0-1.3,0
		c-0.6-0.1-0.7,0.2-0.5,0.6c0.1,0.3,0.5,0.5,0.6,0.8c0.4,0.4,0.8,0.8,1.1,1.1c0.3,0.6-0.1,0.6-0.5,0.6c-0.4-0.1-0.6-0.4-0.9-0.6
		c-1.2-1.2-2.7-1.9-4.7-2.3c0.5,0.5,0.8,0.8,1.1,1.2c0.3,0.4,0.6,0.7,1,0.9c0.6,0.5,1.2,1,1.7,1.7c0.3,1.4,1.3,2.5,1.7,3.8
		c0.2,0.9,0.6,1.7,0.5,2.7c-0.1,0.8,0,1.2,0.9,0.9c0.1-0.1,0.3,0,0.4,0.1c0.1,0.7-0.4,1-1,1.2c-0.7,0.2-1.3,0.6-1.9,1.1
		c-2.1,1.6-4.5,2.9-6.9,4.2c-1.4,0.8-2.5,2.1-4.3,2.3c-1.4,0.2-2.7,0.9-4,1.5c-1.2,0.6-2.5,0.7-3.7,1c-0.2,0.1-0.4,0-0.6-0.2
		c1.3-1.1,3-1.4,4.5-2.1C70.6,104,71.1,104,71.3,103.7z"/>
	<path class="st33" d="M74.3,103.7c2.3-0.6,3.9-2.3,6-3.4c2.1-1,4-2.3,5.8-3.8c0.6-0.5,1.8-0.2,2.2-1.2c0,0,0-0.1,0.1-0.1
		c0.7-0.6,1.2-1.4,1.8-2.1c0.3-0.3,0.6-0.6,1-0.4c0.1,0.1,0.1,0.1,0.1,0.2c0,0.1,0,0.1,0,0.1c-0.6,1.1-1.6,1.7-2.3,2.7
		c-2,1.5-3.8,3.2-5.9,4.6c-3.4,2.3-7.1,4-10.9,5.5c-2.7,0.9-5.3,1.8-8.1,2.1c-1.2,0.1-2.5,0.2-3.7,0.4c-0.4,0-0.8-0.1-1.2,0.2
		c-0.1,0-0.3,0-0.4,0c-0.6,0.2-1.2,0.1-1.9,0.1c0.1-0.7,0.6-0.9,1.1-1c1.1-0.4,2.2-0.4,3.4-0.5c2.8-0.2,5.5-0.7,8.1-1.3
		c1.1-0.3,2.1-0.8,3.1-1.3C73,104.1,73.6,103.9,74.3,103.7z"/>
	<path class="st23" d="M74.3,103.7c-3.3,2-7,2.7-10.7,3.2c-2.1,0.3-4.2,0.2-6.2,1.1c-0.2,0.1-0.4,0.1-0.5,0.5c0.6,0,1.1,0,1.6,0
		c-0.7,0.5-1.6,0.3-2.3,0.2c-2.5-0.2-5-0.6-7.5-0.9c-0.4,0-0.8-0.2-1.2-0.4c1.4-0.5,2.8-0.6,4.3-0.5c2.6,0.3,5.3,0.2,7.9,0.1
		c1.8-0.1,3.6-0.4,5.4-0.6c0.3,0,0.5,0,0.7-0.2c2.4-0.2,4.5-1.2,6.6-2C73,103.9,73.6,103.6,74.3,103.7z"/>
	<path class="st34" d="M60.4,75c-2.2-0.5-4.1-1.6-6.2-2.4c-0.2-0.5,0.1-0.7,0.5-0.8c0.4-0.1,0.8-0.1,1.1,0c2.8,0.9,5.7,1.2,8.5,2.1
		c0.9,0.3,1.8,0.4,2.7,0.5c0.1-0.5-0.3-0.6-0.6-0.8c-3.4-2.5-6.9-4.7-10.2-7.2c-0.1-0.1-0.3-0.2-0.4-0.3c-0.7-0.7-2-1-1.7-2.3
		c0.5-2.1,1.7-3.2,3.4-3.3c1-0.1,1.8-0.5,2.6-1.1c3.5-2.5,6.8-5.2,10.8-7.1c1.3-0.6,2.6-1.2,3.8-2c0.9-0.5,1.8-1,2.8-1.3
		c0.6-0.2,1.3-0.3,1.1,0.8c-1.1,0.1-1.9,0.6-2.8,1.1c-2.9,1.7-5.6,3.6-8.6,5.1c-1.3,0.7-1.9,1.8-2.2,3.1c0,0.1,0,0.3-0.1,0.4
		c-1.2,3.2,0.1,5.8,2,8.3c1.8,2.4,4.2,4.2,6.4,6.3c0.4,0.4,0.8,0.7,1.1,1.2c0.3,0.4,0.7,0.8,0.4,1.3c-0.3,0.4-0.8,0.3-1.3,0.2
		c-2.2-0.4-4.5-0.8-6.7-1.3c-1.6-0.4-3.2-0.8-4.9-1C61.3,74.6,60.8,74.7,60.4,75z"/>
	<path class="st35" d="M89.8,25.1c0.1-0.5,0.3-1,0.4-1.4c0.5,0,0.4,0.3,0.4,0.6c0.1,2.3-0.6,4.3-1.8,6.2c-0.8,1.2-1.5,1.4-2.8,0.9
		c-0.8-0.4-1.6-0.3-2.4,0.1c-0.6,0.4-1.2,0.8-1.8,1.2c0.1,0.1,0.2,0.1,0.3,0.1c0.3,0,0.8,0,0.8,0.4c0.1,0.5-0.3,0.7-0.7,0.7
		c-1,0.2-2,0.5-3,0.6c-0.4,0-0.8-0.1-1.1,0.2C78.6,35,79,35,79.5,35c0.3,0,0.8-0.1,0.8,0.4c0,0.5-0.4,0.6-0.8,0.7
		c-0.9,0.1-1.8,0.2-2.7-0.1c-0.6-0.2-1.2-0.3-1.5,0.4c-0.2,0.4-0.7,0.4-1.1,0.5c-0.6,0.1-1.3,0.2-1.8,0.7c-0.4,0.3-0.8,0.4-0.4,1.1
		c0.4,0.6-0.3,0.9-0.8,0.8c-1.4-0.5-2.4,0.1-3.4,1c0,0-0.1,0-0.1,0.1c-0.6,0.4-1.5,0.2-1.8,0.8c-0.4,0.7,0.5,1.2,0.6,1.9
		c0.1,0.7-0.3,1.1-1,1.1c-0.3,0-0.6-0.2-0.9-0.3c-0.3-0.1-0.7-0.4-1,0c-0.3,0.3,0.1,0.6,0.2,0.9c0.4,0.9,0.1,1.3-0.9,1.3
		c-0.6,0-1-0.2-1.5-0.4c-1.6-0.7-2.1-0.6-3.2,0.7c-0.5,0.5-1.2,0.7-1.8,0.9c-2.3,0.8-4.3,2-6.4,3.2c-0.2,0.1-0.3,0.3-0.5,0.5
		c-0.5,0.5-0.3,0.8,0.3,0.9c1,0.3,2.1,0.4,3.2,0.3c0.4,0,1-0.2,1.1,0.5c0,0.5-0.5,0.8-0.9,0.8c-1.5,0.1-3,0.1-4.4-0.5
		c-1.3-0.6-1.3-0.6-2.7,0.4c1.4,0.4,2.7,0.8,4.1,0.6c0.8-0.1,1.5-0.2,2.3-0.2c0.4,0,0.8,0.1,0.8,0.6c0.1,0.4-0.2,0.6-0.6,0.7
		c-1.2,0.3-2.4,0.7-3.6,0.5c-1.4-0.3-2.9-0.3-4.3-0.9c-0.3-0.1-0.7-0.2-1.1,0.1c0.8,0.2,1.5,0.6,2.2,0.8c0.4,0.1,0.9,0.2,0.7,0.8
		c-0.4,0.3-0.8,0.2-1.2,0.1c-1.1-0.2-2.2-0.2-3.3-0.5c-0.7-0.2-1.3,0.2-1.8,0.6c-2.1,1-4.1,2.2-6.1,3.2c-0.2,0.1-0.4,0.2-0.6,0.1
		c-0.2,0.1-0.5,0.3-0.7,0.4c-0.8,0.6-1.2,1.5-2.1,1.9c-0.2,0.1-0.4,0.3-0.7,0.4c-0.4,0.2-0.8,0.3-1.1-0.1c-0.3-0.4,0.1-0.7,0.3-1
		c0.3-0.3,0.6-0.6,0.8-0.9c1.1-1.1,2.3-1.9,3.6-2.6c1.2-0.4,2.2-1.2,3.3-1.8c6.2-3.8,12.3-7.7,18.6-11.4c3.6-2.2,7.3-4.1,11.1-6
		c0.7-0.3,1.2-0.8,1.8-1.2c2.4-1.6,4.8-3.1,7.6-4.1c0.9-0.3,1.7-1,2.6-1.4c0.5-0.2,1-0.5,1.6-0.5c0.3,0,0.7-0.1,0.9-0.4
		c1.3-1.4,2.9-1.7,4.7-1.7c1.6,0,2.6-0.7,3.3-2c0.1-0.1,0.1-0.2,0.2-0.3C89.4,26.5,89.8,25.9,89.8,25.1z"/>
	<path class="st36" d="M78.6,49.9c-0.1-0.6-0.4-0.7-0.9-0.5c-1.8,0.6-3.5,1.7-5.2,2.6c-1.1,0.5-2.1,1.2-3.2,1.7
		c-3,1.2-5.1,3.8-8,5.2c-0.6,0.3-0.9,0.9-1.4,1.3c-0.8,0.5-1.6,0.9-2.5,0.8c-1.1-0.1-1.8,0.6-2.2,1.6C55,62.7,55,63,54.9,63.2
		c-1.2,1.1-0.2,1.8,0.6,2.3c3,2.1,6.1,4.2,9.1,6.3c0.9,0.6,1.7,1.3,2.6,1.8c0.3,0.2,0.7,0.4,0.5,0.9c-0.2,0.4-0.6,0.2-0.9,0.1
		c-2.3-0.3-4.4-1.2-6.7-1.6c-1.4-0.2-2.8-0.6-4.2-1c-0.6-0.2-1.3-0.3-1.6,0.5c-2.5-0.8-4.5-2.5-6.8-3.5c-1.3-0.6-2.7-1.1-3.8-2
		c0.4-0.8,0.9-0.3,1.3-0.2c0.6,0.2,1.2,0.6,1.9,0.6c1.5,0,2.5-0.5,3.2-1.9c0.5-1,1-2,1-3.2c0-0.7,0.5-1.1,1-1.4
		c1.7-1.4,3.7-2.1,5.8-2.7c2.4-0.6,4.5-1.7,6.6-3.1c3.8-2.5,7.7-4.8,11.8-6.7c0.8-0.4,1.6-0.5,2.3,0.2c0.7,0.7,0.8,1.6,0.3,2.5
		c-0.1,0-0.2,0-0.3-0.1C78.3,50.6,78.3,50.3,78.6,49.9z"/>
	<path class="st37" d="M78.6,49.9c0,0.4,0,0.8,0,1.1c0.4,0.5,0.3,1.1,0.2,1.6c-0.1,0.2-0.3,0.4-0.4,0.2c-0.6-0.7-1.1-0.3-1.7,0
		c-1.4,0.7-2.5,1.8-4,2.4c-1.3,0.6-2.6,1.1-3.9,1.7c-1.6,0.7-2.3,1.8-2.2,3.6c0.1,1.4,0.4,2.9,1.6,3.9c0.1,0.1,0.3,0.3,0.3,0.5
		c0.6,2.2,2.4,3.5,3.8,5.2c0.3,0.4,0.8,0.7,1.1,1.2c0.4,0.6,0.8,1,1.6,0.5c0.5-0.3,0.8,0.1,0.9,0.5c0.6,2.2,2.1,3.8,3.4,5.6
		c0.7,1,1.7,1.1,2.7,0.5c0.8-0.5,1.3-1.2,2.1-1.7c1.2,0.7,2.1,1.8,3.2,2.7c0.4,0.3,0.3,0.7-0.2,0.8c-0.4,0.1-0.9,0.1-1.4,0.1
		c-3,0.1-6,0-8.9-0.6c-1.4-0.3-2.7-0.3-4.1-0.7c-0.9-0.4-1.8-0.5-2.7-0.6c-3.3-0.7-6.5-1.8-9.6-3.2c0-1.1,0.8-0.7,1.3-0.6
		c2.4,0.1,4.7,1,7.1,1.4c1.7,0.3,3.4,0.7,5.1,1c0.2,0,0.6,0.1,0.7-0.1c0.1-0.3-0.1-0.5-0.2-0.7c-0.4-0.6-0.9-1.1-1.5-1.5
		c-1.6-1.1-2.8-2.6-4.2-3.9c-1.6-1.4-3.1-3.1-3.8-5.2c-0.6-1.7-1.4-3.6-0.3-5.4c0.3-0.4,0.1-1,0.3-1.5c0.6-1.5,1.8-2.3,3.1-3
		c2.8-1.4,5.4-3.3,8.1-4.8C76.9,50.1,77.6,49.3,78.6,49.9z"/>
	<path class="st38" d="M78.8,51.1c0-0.4,0-0.8,0-1.3c-0.1-1.2-1.1-1.8-2.2-1.3c-4.2,2-8.2,4.2-12.1,6.8c-2,1.3-4.1,2.5-6.5,3.1
		c-2.2,0.5-4.3,1.4-6.1,2.8c-1,0.7-0.7,1.8-0.9,2.7c-0.6,2.6-2.1,3.9-4.6,3.8c-0.6,0-1.1-0.4-1.7-0.6c-0.4-0.2-0.8-0.5-1.3-0.1
		c-0.8-0.3-1.5-0.7-2.1-1.3c0-0.6,0.4-0.4,0.7-0.4c0.5,0,0.9,0.2,1.3,0.3c0.8,0.3,1.4,0.1,1.9-0.6c1.3-1.7,1.6-1.8,3.7-1.5
		C47,63,47,62.9,47.6,61.8c3.2-2.1,6.7-3.6,10.3-4.9c3.1-1.2,6.2-2.5,8.4-5.2c1.1-1.3,2.7-1.9,4.1-2.7c0.9-0.5,1.8-0.9,2.7-1.4
		c0.7,0.1,1.3,0,1.8-0.8c0.5-0.8,1.6-1.1,2.6-1.3c0.4-0.1,0.8,0,1,0.4c0.5,0.7,1.1,1.4,0.9,2.3c-0.1,1-0.2,2-0.1,3
		c0,0.3,0,0.6,0.4,0.6c0.1,0.1,0.2,0.3,0.2,0.4c0,0.2,0,0.3,0,0.5c-0.1,0.7-0.2,1.4-1.2,1c-0.1-0.1-0.1-0.2-0.1-0.3
		C78.8,52.6,78.6,51.8,78.8,51.1z"/>
	<path class="st3" d="M81.6,88.2c0.7,1.3,0.7,2.8,1.1,4.2c0.1,0.4-1.3,2.4-1.7,2.5c-0.6,0.1-1-0.3-1-0.8c0.2-1.5-0.7-2.9-0.2-4.4
		c0.4-1.2-1-2.4-2.3-2.2c-0.7,0.1-1-0.6-1.7-0.7c-0.8-0.1-1.1,0.1-1.3,0.7c-0.1,0.4,0,0.8-0.5,1.2c-0.4,0.4,0.2,0.5,0.4,0.7
		c0.8,0.5,1.7,0.9,2.5,1.4c0.5,0.3,0.9,0.8,0.9,1.4c-0.1,0.9,0.3,1.7,0.5,2.5c0.2,0.8,0.5,1.5,1.2,1.9c0.8,0.5,0.9,1.1,0.3,1.8
		c-0.8,1-0.9,2.6-2.4,3c-1.2,0.4-2.2,1.2-3.3,1.6c-0.6,0.2-1.3,0.4-2,0.4c1.5-0.8,3.2-1.2,4.4-2.4c0.7-0.7,0.9-1.9,0.1-2.6
		c-0.7-0.6-1.2-1.2-1.9-1.7c-0.9-0.6-0.8-1.8-0.7-2.6c0.2-1.4-0.5-2.2-1.3-3c-1.4-1.5-2.5-3.1-2.5-5.3c0-1.2,0.2-1.3,1.4-0.9
		c0.3,0.6,0.6,1.1,0.9,1.7c0.1,0.2,0.2,0.7,0.6,0.5c0.3-0.1,0.5-0.4,0.4-0.8c-0.3-1-0.1-1.9-0.1-2.9c0.6-0.2,0.9,0.2,1.2,0.6
		c0.4,0.5,0.9,0.6,1.5,0.3c0.4,0.3,0.7,0.7,0.9,1.2c0.2,0.4,0.4,0.8,0.9,0.6c0.5-0.2,0.3-0.7,0.2-1.1c-0.1-0.2-0.2-0.5-0.2-0.7
		c1.1,1,1.7,2.3,1.9,3.8c0.3,1.6,0.5,3.3,0.5,4.9c0,0.3-0.2,0.8,0.4,0.8c0.4,0,0.5-0.4,0.6-0.7C81.7,91.5,81.8,89.9,81.6,88.2z"/>
	<path class="st39" d="M36,62.2c-0.8-0.2-1.6-0.7-2.3-1.2c0-0.5,0.5-0.5,0.8-0.7c1.6-0.9,3.4-0.8,5.1-0.9c3.3-0.2,6.3-1.3,9-3.2
		c0.6-0.4,1.2-0.7,2-0.8c3.1-0.6,5.6-2.2,8.3-3.8c0.6-0.3,1.1-0.6,1.7-0.8c2.1-0.6,4.2-1.3,6-2.5c0.3-0.2,0.6-0.4,1-0.3
		c0.8,1.3,0.7,1.9-0.6,2.5c-0.3,0.2-0.6,0.3-0.9,0.5c-1.9,0.8-3.5,2.1-5.3,3c-1.7,0.8-3.4,1.6-5.2,2.2c-0.7,0.2-1.5,0.4-1.9,0.9
		c-1.7,1.7-4,2.3-6,3.4c-1.5,0.9-3.3,1.2-5,1.2c-1.5-0.3-3.1,0.1-4.6,0C37.3,61.6,36.7,62,36,62.2z"/>
	<path class="st40" d="M50.6,55.6c-2.3,0.9-4.2,2.6-6.6,3.3c-1.9,0.6-3.8,0.9-5.8,0.9c-1.6,0-3.1,0.5-4.5,1.3
		c-1.3-0.1-0.6-0.8-0.4-1.4c2.2-1.2,4.3-2.5,6.6-3.4c0.8-0.6,1.8-0.8,2.7-0.3c0.8,0.5,1.7-0.1,2.5,0.1c0.5,0,0.9,0,1.4,0
		c0.2-0.4,0.6-0.6,1-0.6C48.5,55.2,49.6,55.3,50.6,55.6z"/>
	<path class="st41" d="M36,62.2c0.6-1,1.6-1,2.6-0.9c0.5,0.1,1,0.3,1.4-0.2c0.2-0.3,0.5-0.1,0.7,0c0.6,0.3,1.3,0.2,1.9,0.2
		c1.4-0.1,2.8,0.8,4.3,0.4c0.3-0.1,0.7,0,0.9,0.3c-0.5,0.5-0.7,0.8,0.3,1c0.6,0.1,1.3,0.3,2.1,0.6c-0.8,0.4-1.3,0.2-1.9,0.2
		c-0.9-0.1-1.7-0.1-2.4,0.8c-1.1,1.7-1.1,1.6-3.1,1.2c-0.4-0.1-1-0.6-1.5,0C39.6,64.5,37.8,63.4,36,62.2z"/>
	<path class="st42" d="M72.7,78.8c2.2,0.4,4.4,0.5,6.5,0.9c2.7,0.5,5.4,0.3,8.4,0c-1.6-1.1-2.7-2.1-3.8-3.2
		c-1.2-1.1-1.8-2.5-2.5-3.9c-0.2-1.3-0.9-2.6-1.2-3.9c-0.1-0.4-0.3-0.9-0.2-1.3c0.1-0.4,0-0.8,0.5-0.9c0.4,0,0.5,0.4,0.6,0.8
		c0.8,2.7,1.9,5.3,3.7,7.5c0.8,0.9,1.7,1.8,2.5,2.6c0.3,0.3,0.6,0.6,1.1,0.5c0.6-0.1,1,0.1,1.5,0.4c0.4,0.2,0.8,0.3,1.2,0
		c0.4-0.2,0.8-0.6,1.2-0.8c0.4-0.1,0.6-0.5,0.8-0.7c0.2-0.1,0.4-0.3,0.6-0.1c0.2,0.2,0.1,0.4,0,0.6c-0.3,0.5-0.6,1-1.1,1.4
		c0,0.1-0.1,0.1-0.1,0.2c-0.3,0.3-0.2,0.6-0.2,0.9c-0.4,0.1-0.7,0.2-1.1,0.2c-3.4,0-6.8,0.5-10.2,0.2C78.2,80,75.4,79.8,72.7,78.8z"
		/>
	<path class="st14" d="M30.1,60.6c-0.3,0.4-0.7,0.8-1,1.2c-0.1,0.1-0.3,0.3-0.2,0.5c0.1,0.2,0.4,0.2,0.6,0.1c0.8-0.3,1.4-0.9,2-1.4
		c0.4-0.3,0.6-0.8,1.2-0.8c-0.5,0.6-0.5,1,0.3,1.4c3.1,1.4,5.9,3.2,8.5,5.3c0.3,0.2,0.6,0.4,0.6,1.1c-1.4-0.6-2.8-1.2-4.1-1.9
		c-0.7-0.3-1.3-0.9-2.2-0.9c-0.8,0.2-1.2-0.5-1.7-0.8c-0.6-0.4-1.2-1-1.8-1.4c-0.7-0.6-1.4-0.7-2.1,0c-0.4,0.4-0.8,0.7-1.3,1
		c-0.6,0.4-1.3,0.4-1.7-0.2c-0.5-0.6,0-1.1,0.4-1.5c0.5-0.4,0.9-0.9,1.4-1.3C29.3,60.7,29.6,60.3,30.1,60.6z"/>
	<path class="st43" d="M39,68.1c1.7-0.2,2.7,1.1,3.8,2c0.2,0.2,0.4,0.2,0.6,0.2c1.5-0.3,2.4,0.2,2.9,1.8c0.1,0.3,0.1,0.7,0.5,0.8
		c0.5,0,0.3-0.4,0.4-0.6c0.3-0.8,0.6-0.3,0.9,0c-0.3,0.4-0.5,0.7-0.6,1.2c-0.1,0.1-0.2,0.3-0.3,0.4C47,74,46.7,74.1,46.4,74
		c-0.8-1.7-2.5-2.1-4-3c-2.2-1.2-4.4-2.5-6.2-4.3C36,66.5,35.8,66.3,36,66c0.5-0.2,0.8,0.1,1.1,0.3l0,0C37.9,66.8,38.7,67.2,39,68.1
		z"/>
	<path class="st44" d="M47.4,73.4c0-0.5,0-1.1,0.7-1.1c0.4,1,1.4,1.8,1.6,2.9c0.1,0.5,0.3,0.6,0.6,0.2c0.1-0.1,0.1-0.2,0.2-0.2
		c0.5-0.2,0-1.3,0.9-1.1c1,0.2,1.8,1.3,1.9,2.3c0,1.1,0,2.1,0,3.2c-0.8-0.2-0.4-0.8-0.5-1.3c-0.2-0.8,0.3-1.7-0.4-2.5
		c-0.8-0.6-1.4-0.4-1.9,0.3c-0.2,0.3-0.5,0.7-0.9,0.5c-0.4-0.2-0.4-0.6-0.4-1c0-0.7-0.4-1.1-0.9-1.5C48,73.9,47.6,73.8,47.4,73.4z"
		/>
	<path class="st3" d="M76.3,84.3c-0.4,0.8-0.9,0.8-1.4,0.1c-0.4-0.4-0.8-0.8-1.3-1c-0.3-0.5-0.6-1.1-1-1.8c1.1,0.2,2.2,0,2.6,1.4
		C75.4,83.5,76,83.9,76.3,84.3z"/>
	<path class="st45" d="M37.1,66.3c-0.4,0-0.7-0.3-1.2-0.2c-0.1,0.1-0.3,0.1-0.5,0.1c-0.6-0.6-1.6-0.8-1.9-1.8
		c0.1-0.3,0.3-0.3,0.5-0.1c0.5,0.3,1.1,0.6,1.6,0.9C36.2,65.7,36.8,65.8,37.1,66.3z"/>
	<path class="st45" d="M39,68.1c-0.5-0.8-1.4-1-1.8-1.8C38.2,66.5,39,66.9,39,68.1z"/>
	<path class="st46" d="M80.7,28.5c-1.9-0.2-3.9,0.5-5.9,0c-0.2-0.1-0.6,0.1-0.8,0.3c-1.3,0.7-2.8,0.7-4.3,1.1
		c-0.6,0.2-1.1,0.1-1.2-0.8c0-0.4-0.4-0.7-0.9-0.8c-1.6-0.5-2.4-1.8-1.9-3.4c0.1-0.4,0.2-0.8-0.1-1c-0.3-0.2-0.7-0.2-1.1,0
		c-0.6,0.3-1.3,0.6-1.9,0.9c-0.4,0.2-0.9,0.5-1.3,0.2c-0.3-0.4,0.3-0.7,0.4-1.1c-0.1-0.3,0.2-0.4,0.4-0.6c0.6-0.3,1.2-0.7,1.8-1
		c0.4-0.2,0.9-0.4,1.3-0.7c0.9-0.6,1.5-1.5,2.3-2.2c-2.1,0.7-4.4,0.9-6.4,1.9c-2.9,1.4-5.9,2.7-8.7,4.4c-1.9,1.1-3.6,2.5-5.5,3.7
		c-2.4,1.4-4.8,3-7.5,3.8c-1.9,0.6-3.8,0.3-5-1.3c-1.7-2.2-3.1-4.7-3.1-7.5c0-3.1,0.4-6.2,1.6-9.1c0.6-1.6,1-3.2,1.5-4.8
		c0.2-0.7,0.1-1.3-0.1-2c-0.2-0.8-0.6-1.2-1.5-1.2c-1.1,0-2.2,0.2-3.2,0.7c-0.5,0.3-0.9,0.5-1.5,0.6c-0.1,0-0.1,0-0.2,0
		c-0.8-0.4,0.1-0.6,0.2-0.7c1.5-0.8,2.9-1.8,4.6-2.3c0.4,0.7,1,0.5,1.5,0.4c1.9-0.1,3.2,0.8,2.8,2.8c-0.4,2.3-1.3,4.4-2.3,6.5
		c-2,4.3-2.3,8.6-0.1,12.9c1.3,2.4,3.6,3.7,6.7,3c2.5-0.6,4.6-2.1,6.7-3.5c4.1-2.6,8.3-5,12.6-7.1c1.1-0.5,2.4-0.9,3.6-1.2
		c2-0.5,3.8-1.2,5.7-2c0.6-0.3,1.2-0.4,1.9-0.4c0.3,0,0.7,0,0.8,0.3c0.1,0.3-0.2,0.6-0.5,0.8c-1,0.6-2.1,1.1-3.1,1.7
		c-0.4,0.2-0.8,0.5-1.3,0.8c-1.1,0.7-1.1,0.7,0,1.3c0.5,0.3,0.4,0.7,0.3,1.2c-0.9,2.3-0.6,3,1.6,3.9c0.2,0.1,0.5,0.2,0.7,0.4
		c0.3,0.3,0.4,0.9,1.1,0.8c1.6-0.2,3.2,0.5,4.8-0.5c1-0.4,2-0.4,3-0.6c2.5-0.3,4.9-0.8,7.3-1.3c0.6-0.1,1.1,0.3,1.4,0.8
		c0.2,0.3,0.4,0.7,0.8,0.7c0.1,0.1,0.1,0.2,0,0.3c-1.1,0.6-2.4,0.7-3.6,1.1c-0.3,0-0.7,0.1-0.9-0.1c-0.9-0.9-1.8-0.4-2.7-0.1
		C81.4,28.5,81,28.7,80.7,28.5z"/>
	<path class="st14" d="M88.8,27.3c0-0.1,0-0.1,0-0.2c0.1,0,0.1,0,0.2,0c-0.1,0.8-0.4,1.2-1.1,1.8c-1.1,0.9-2.1,0.7-3.1,0.8
		c-1.4,0.2-2.9,0.3-3.8,1.7c-0.1,0.2-0.3,0.3-0.6,0.3c-1.6,0-2.8,0.9-4.1,1.8c-0.5,0.4-1.2,0.2-1.7,0.5c-2.5,1.4-5.1,2.6-7.4,4.4
		c-1.4,1.1-3.2,1.8-4.9,2.6c-2.5,1.1-4.7,2.6-7,4c-3.9,2.3-7.8,4.7-11.6,7.1c-2.8,1.7-5.6,3.4-8.4,5.2c-0.6,0.4-1.2,0.8-1.9,0.9
		c-0.1-0.6,0.4-0.8,0.8-1.1c5.5-4.4,11.6-7.9,17.8-11.2c1.2-0.6,2.2-1.6,3.3-2.4c3.3-2,6.6-4,10.2-5.5c1.6-0.6,3.2-1.4,4.5-2.6
		c0.6-0.5,1.3-0.8,2-1.1c1-0.4,1.8-1,2.5-1.9c1.1-0.9,2.5-1.1,3.6-1.9c2.2-1.1,4.6-1.8,7-2.1C86.5,28.5,87.8,28.3,88.8,27.3z"/>
	<path class="st14" d="M50.6,55.6c-1.4,0-2.8-0.2-4.1,0.4c-0.9-0.5-1.9-1-3-1.1c-0.2,0-0.5,0.1-0.6-0.2c0-0.3,0.2-0.4,0.4-0.5
		c0.3-0.2,0.6-0.4,1.1-0.2c1.4,0.8,3.1,0.7,4.6,1.1c1.1,0.3,2.2-0.1,3.3-0.4c0.3-0.1,0.7-0.1,0.6-0.5c-0.1-0.4-0.4-0.4-0.8-0.3
		c-1.9,0.4-3.8,0.4-5.7-0.1c-0.3-0.1-0.9-0.1-1-0.5c-0.1-0.5,0.5-0.4,0.8-0.6c0.2-0.2,0.6-0.3,0.8-0.5c0.4-0.4,0.6-0.4,1,0
		c1.5,1.2,3.3,1,5.1,1c0.3,0,0.6-0.2,0.6-0.6c-0.1-0.4-0.4-0.2-0.7-0.1c-1.4,0.2-2.7,0-4-0.4c-0.6-0.2-0.7-0.5-0.2-1
		c1.1-1.2,2.6-1.7,4-2.5c1.5-0.9,3-1.6,4.6-2c0.2,0,0.3-0.2,0.5-0.3c1.1-1.5,2.1-1.7,3.7-0.8c0.2,0.1,0.5,0.3,0.7,0.3
		c0.4,0,1,0.2,1.3-0.2c0.3-0.4-0.3-0.7-0.4-1.1c-0.1-0.3-0.5-0.5-0.2-0.9c0.3-0.3,0.7-0.4,1.1-0.3c0.1,0,0.2,0.1,0.3,0.1
		c0.5,0.2,1,0.8,1.5,0.2c0.6-0.7-0.2-1.2-0.4-1.7c-0.4-0.9-0.4-1.2,0.6-1.5c0.7-0.2,1.3-0.5,2-1c0.7-0.6,1.7-1.2,2.8-0.5
		c0.3,0.2,0.8,0.2,0.9-0.2c0.2-0.6-0.6-0.4-0.9-0.8c1-0.9,2.1-1.5,3.5-1.6c0.4,0,0.6-0.1,0.7-0.6c0.1-0.6,0.7-0.7,1.3-0.4
		c1,0.5,2.2,0.2,3.2,0.3c0.2,0,0.4-0.1,0.4-0.5c-0.7,0.2-1.5,0-2.2-0.1c-0.2,0-0.5-0.1-0.5-0.3c0-0.3,0.3-0.3,0.5-0.4
		c0.4-0.2,0.9-0.1,1.3-0.2c1.2-0.1,2.5-0.4,3.9-0.9c-0.7-0.4-1.2-0.3-1.7-0.1c-0.2,0.1-0.4,0.1-0.4-0.2c0-0.1,0.1-0.3,0.2-0.3
		c0.9-0.4,1.5-1.1,2.4-1.5c0.9-0.4,1.7-0.7,2.7,0c0.8,0.6,1.6,0.3,2.1-0.4c1.2-1.9,2.4-3.9,2.1-6.4c0-0.2,0-0.5-0.2-0.6
		c0-0.2,0-0.4,0-0.6c0-0.1,0.1-0.3,0.2-0.4c0.9,1.5-0.2,3.2,0.6,4.8c1-0.7,1.5-1.8,1.7-3c0.1-0.3-0.1-0.6,0.2-0.8
		c0.5-0.6,0.4-1.4,0.6-2.1c0.1-0.3-0.2-0.9,0.5-0.8c0.1,1,0.1,2.1,0.1,3.1c-0.3,0.7-0.5,1.5-0.3,2.3c0.3,1-0.4,1.9-0.8,2.8
		c-0.9,1.7-1.9,3.3-2.9,4.9c-0.1,0.2-0.2,0.4-0.6,0.4c0-1.2,1.2-2.1,1.2-3.6c-1.3,1.4-1.9,2.9-2.8,4.2c-1,1.5-1.9,3.2-3.3,4.4
		c-0.7,0.7-1.6,1.1-2.4,1.7c-0.2,0.2-0.4,0.2-0.6,0c-0.2-0.2-0.1-0.4,0-0.6c0.3-0.6,0.9-1,1.3-1.4c0.1-0.1,0.3-0.3,0.2-0.5
		c-0.2-0.2-0.4-0.2-0.6,0c-1,0.9-1.9,1.8-2.9,2.7c-0.6,1-1.8,1.1-2.7,1.6c-1.8,0.7-3.5,1.8-5.3,2.2c0.1,0,0.3-0.1,0.5-0.1
		c0.4,0,1-0.2,1.2,0.3c0.2,0.5-0.2,0.8-0.5,1c-0.1,0.1-0.2,0.1-0.3,0.2c-0.9,0.5-2,0.5-3,0.6c-0.7,0.2-1.1,0.8-1.8,1
		c-2.5,1.4-5.2,2.4-7.9,3.4c-1.9,0.7-3.7,2-5.6,3C53.1,55.1,51.9,55.5,50.6,55.6z"/>
	<path class="st47" d="M95.9,32.8c0.1,0.2,0.2,0.4,0.4,0.5c0.6,0.4,0.3,0.7-0.1,0.9c0.4,2,1.3,3.8,1.8,5.7c0.1,0.2,0.1,0.3,0,0.4
		c-0.2,0.1-0.3-0.1-0.4-0.2C97,39,96.8,37.7,96,36.7c-0.3,0.5,0.1,0.8,0.1,1.2c0.2,1,0.4,1.9,0.7,2.8c0.1,0.3,0.3,0.6-0.1,0.8
		c-0.3,0.1-0.5-0.2-0.7-0.4c-0.1-0.2-0.3-0.4-0.4-0.5c-0.1-0.2-0.3-0.4-0.4-0.6c-0.2-0.6-0.6-1.1-0.9-1.7c-0.1-0.2-0.3-0.5-0.5-0.6
		c-1.3-0.8-2.1,0.6-3.2,0.8c-0.7,0.2-0.5,0.9-0.3,1.5c0.6,2.1,2.1,3.8,2.8,5.8c0.1,0.4,0.3,0.9,0.3,1.3c0.1,1.6,0.7,3.1,1.1,4.7
		c0.2,0.3,0.3,0.7,0.3,1.1c0,0.6,0.1,1.2-0.2,1.7c-0.4,0.1-0.7,0.2-0.7,0.8c0,0.9-0.2,1.7-0.2,2.6c0,0.4,0.1,0.9-0.5,1.1
		c-0.6-1.1-0.3-2.2-0.2-3.3c0.3-2.2-0.1-4.2-1.1-6.2C91.2,48,90,47.9,89,49c-0.9,1-1.2,2.2-1.4,3.4c-0.4,2.5-0.3,5.1,0,7.6
		c0.2,1.5,1,2.8,1.7,4c-0.3,0.6-0.6,0.2-0.9,0c-0.4-0.3-0.8-0.7-1.2-1.1c-0.3-0.3-0.5-0.7-0.5-1.2c-0.4-2-0.3-4.1-0.4-6.1
		c0-3.1,0.2-6.2,2.8-8.4c0.2-0.1,0.3-0.4,0.3-0.6c0.3-0.7,0.8-1.4,0.2-2.2c1.1-1,0.4-2.1,0.1-3.1c-0.2-0.6-0.4-1.2-0.5-1.8
		c0.1-0.5-0.1-0.9,0-1.4c0.3-1.4,1.6-1.1,2.4-1.7c0.7-0.6,1.6-0.5,2.4,0c0.4,0.3,0.6,0,0.9-0.4c0.7-1,1.1-1.8,0.2-2.8
		C95,32.9,95.6,32.9,95.9,32.8z"/>
	<path class="st48" d="M67.7,48.1c0.4-0.5,0.9-0.9,1.6-1.1c1.1-0.2,2.2,0,3.2-0.7h0c1.4-0.7,2.8-1.5,4-2.5c0.2-0.1,0.5,0,0.6-0.4
		c0.3-1.1,1.2-1.1,2-1.4c0.5-0.2,1.2,0.1,1,0.7c-0.6,1.7-0.2,3.4-0.5,5.1c0,0.1,0,0.1,0,0.2c-0.1,0.1-0.1,0.1-0.2,0
		c-0.1-0.8-0.6-1.5-1-2.1c-0.1-0.2-0.3-0.3-0.5-0.4c-0.7-0.1-2.8,1.2-2.9,1.9c-0.1,0.5-0.4,0.6-0.8,0.4c-0.3-0.1-0.6-0.1-0.9-0.2
		c-1.3,0.1-2.5,0.6-3.4,1.6C69,50,67.9,50.4,67,50.9c-0.3,0.2-0.7,0.2-0.9-0.1c0.2-0.1,0.4-0.3,0.6-0.4c0.9-0.4,1.6-0.9,0.9-2
		C67.5,48.3,67.6,48.2,67.7,48.1z"/>
	<path class="st49" d="M89.3,39.7c0.7,1.1,1.1,2.3,1.3,3.6c0.1,0.7,0,1.3-0.9,1.4c-2.3,0.7-4.6,1.5-6.8,2.7
		c-0.1,0.1-0.3,0.1-0.4,0.1c-1.3,0.3-1.4,0.2-1.4-1.1c-0.2,0-0.3,0.4-0.6,0.2c-0.1-0.2-0.1-0.3,0-0.5c0.2-1.1,0.6-2.2,1.1-3.2
		c0.1-0.2,0.2-0.5,0.5-0.3c0.3,0.1,0.2,0.4,0.1,0.6c-0.1,0.7-0.8,1.6-0.2,2.1c0.6,0.4,1.3-0.5,1.9-0.8c1.3-0.7,2.7-1,4.1-0.9
		c0.5,0,0.8-0.1,0.9-0.7C89.4,41.8,89.3,40.7,89.3,39.7z"/>
	<path class="st50" d="M79.5,47.9c0.1-1.6-0.3-3.3,0.4-4.9c0.1-0.1,0-0.4-0.1-0.5c-0.3-0.4-0.6-0.3-0.9,0c-0.5,0.4-1.8,0.3-1.5,1
		c0.5,1.4-0.3,0.6-0.7,0.6c-0.1,0-0.2,0-0.3,0c-0.1-0.5,0.2-1,0.5-1.4c0.9-0.5,1.8-0.9,2.7-1.4c0.7,0,1.1,0.4,0.9,1.1
		c-0.6,1.7-0.7,3.4-0.7,5.2C79.7,47.6,79.6,47.7,79.5,47.9z"/>
	<path class="st50" d="M79.3,48.1c0.1,0,0.1,0,0.2,0c0.1,0.6-0.1,1.1-0.2,1.7c0.5,0,0.4-0.5,0.6-0.6c0,0,0.1,0.1,0.1,0.1
		c0.2,0.8,0.1,1.6-0.4,2.4c-0.1,0.2-0.3,0.4-0.5,0.8C78.9,50.9,79.1,49.5,79.3,48.1z"/>
	<path class="st50" d="M80.7,46.1c0,0.2,0,0.3,0,0.5c0.3,1,0.2,2-0.7,2.7l-0.1,0C80,48.1,80.2,47.1,80.7,46.1z"/>
	<path class="st51" d="M46.7,30.6c-0.8,0.3-1.4,0.9-2,1.4c-2,1.3-3.8,2.9-5.8,4.1c-1.3,0.8-2.5,1.6-3.9,2.2
		c-1.7,0.8-2.8,0.4-3.8-1.2c-1.1-1.8-2-3.7-3.1-5.4c-1.5-2.3-1.5-4.8-0.8-7.3c0.7-3,1.8-5.8,2.5-8.7c0.3-1.3,0.6-2.6,0.5-3.9
		c-0.1-1.3-0.6-1.8-1.9-1.6C27.4,10,26.6,10.4,26,11c-0.1,0.1-0.2,0.1-0.3,0.2c-0.4,0.2-0.9,0.5-1.4,0.4c-0.6,0-1-0.2-0.6-0.9
		c0.1-0.3,0.4-0.5,0.7-0.7c0.1,0,0.3,0,0.5,0c0.1,0.3,0.3,0.5,0.6,0.3c0.8-0.8,2-0.9,2.6-1.8l0,0c0.4-0.2,0.9-0.3,1.4-0.4
		c1.7-0.2,2.9,0.8,3,2.5c0,1.9-0.5,3.7-1,5.6c-0.7,2.6-1.5,5.2-2,7.8c-0.4,1.9-0.2,3.8,0.7,5.5c1,1.9,1.9,3.9,3.3,5.6
		c0.7,0.9,1.3,1.2,2.4,0.9c2.3-0.7,4.1-2.1,6.1-3.3c1.7-1,3.3-2.3,5.1-3.2c0.2,0,0.3,0,0.5,0.1C47.7,30.2,47,30.2,46.7,30.6z"/>
	<path class="st31" d="M21.7,12.8c0.2-0.7,0.7-1.1,1.4-1.4c0.2,0.5,0.3,0.9,1,0.5c0.6-0.3,1.2-0.5,1.8-0.9l0,0
		c0.7-0.5,1.4-0.9,2.3-0.7c1.4,0.3,2.2,1.6,1.9,3.3c-0.4,2.4-1,4.8-1.9,7.1c-0.9,2.4-1.7,4.8-1.6,7.4c0.1,1.7,0.6,3.2,1.5,4.6
		c1.1,1.6,2.2,3.2,3,5c0.7,1.4,1.5,1.7,2.9,1c2-0.9,3.8-2,5.6-3.3c0.4-0.3,0.7-0.8,1.3-0.6c0.1,0.6-0.4,0.8-0.7,1
		c-2.3,1.5-4.4,3.2-6.8,4.5C32,41.1,31.4,41,30.3,40c-0.4-0.4-0.9-0.9-1.1-1.4c-0.7-1.6-1.6-3.1-2.6-4.5c-2.2-3-2.1-6.4-1.4-9.8
		c0.3-1.4,0.7-2.7,1.3-4c0.8-1.7,1.2-3.4,1.6-5.2c0.1-0.6,0.1-1.1,0-1.7c-0.2-1.2-0.9-1.6-2.1-1.3c-1.2,0.3-2.3,0.9-3.5,1.4
		C21.8,13.9,21.6,13.7,21.7,12.8z"/>
	<path class="st24" d="M21.7,12.8c0,0.9,0.6,0.8,1.1,0.5c1-0.6,2-1.1,3.2-1.5c1.4-0.4,2.4,0.1,2.6,1.6c0.3,1.8-0.5,3.5-1,5.2
		c-0.6,2-1.7,3.9-2.1,6c-0.6,3-0.9,6.1,1,8.7c1.6,2.2,2.4,4.9,4.3,6.8c0.6,0.6,1.2,0.7,1.9,0.3c2.7-1.4,5.1-3.2,7.6-4.9
		c0.2-0.1,0.3-0.4,0.5-0.6c0.6-0.6,1.1-1.3,2-1.4c0.2,0,0.3,0,0.5,0c-1.5,1.4-3.2,2.5-4.8,3.7c-2,1.5-4.1,2.8-6.2,4.2
		c-1.3,0.9-2.1,0.8-2.6-0.5c-1.2-3-3.5-5.3-4.8-8.3c-1.2-2.6-0.8-5.3-0.3-8c0.6-2.9,2-5.5,2.6-8.4c0,0,0-0.1,0-0.1
		c0.2-1,0.3-2.1-0.7-2.8c-0.9-0.6-1.9-0.4-2.9-0.1c-0.5,0.2-1,0.5-1.5,0.6c-0.3,0.1-0.9,0.2-1.1-0.1C20.9,13.4,21.3,13,21.7,12.8z"
		/>
	<path class="st52" d="M25.8,11c-0.4,0.6-1.1,0.9-1.7,1.2c-0.3,0.2-0.7,0.5-1,0.3c-0.4-0.3,0.1-0.7,0-1c0.2-0.3,0.4-0.5,0.7-0.7
		c-0.1,0.7,0.4,0.8,0.9,0.6C25,11.3,25.4,11.1,25.8,11z"/>
	<path class="st53" d="M95.5,39.9c0.1,0.1,0.2,0.3,0.2,0.4c2,2.9,2.7,6.3,2.8,9.8c0,1,0.6,2-0.1,3c-0.1,1.6,0.7,3.1,0.8,4.6
		c0.1,0.6,0.1,1-0.6,1.1c-1.3,0.4-1.6,0.3-1.9-1.1c-0.4-1.8-1.4-3.4-1.5-5.3c0-0.6-0.3-1.1-0.7-1.5c-0.7-0.8-0.7-1.8-0.9-2.7
		c-0.4-1.7-0.5-3.4-0.9-5.1c-0.3-1.2,0.2-2.2,0.9-3.1C94.2,39.2,94.8,39.2,95.5,39.9z"/>
	<path class="st54" d="M94.8,50.8c0.8,0.6,0.8,1.6,0.9,2.4c0.3,1.9,1.2,3.5,1.7,5.3c0.1,0.2,0.4,0.6,0.5,0.2c0.4-1.2,0.5,0,0.8,0
		c0.5,1.2-0.2,2.4-0.3,3.5c-0.2,1.8-0.7,3.5-1.3,5.2c-0.1,0.3-0.3,0.6,0.1,0.8c0.3,0.3,0.2,0.7,0,1.1c-0.3,0.7-0.5,1.4-0.8,2.1
		c-0.2,0.4-0.3,0.8-0.9,0.4c-0.2-1.2,0.3-2.2,0.6-3.3c0.4-1.1,0.8-2.2,1.1-3.2c-0.5,0.8-0.3,2.1-1.4,2.6c-0.7-0.1-0.6-0.7-0.6-1.2
		c0.2-1.3,0.2-2.6,0.5-3.9c0.3-1.6,0.3-3.1-0.8-4.5c-0.8-1-0.4-2.4-0.3-3.6c0.1-0.7,0.2-1.4,0-2.1c-0.1-0.3-0.2-0.6-0.2-1
		C94.1,51.2,94.4,51,94.8,50.8z"/>
	<path class="st55" d="M97.5,40.2c0.3,0.1,0.5,0.1,0.5-0.3c2.2,3.3,3.8,9.4,3.6,13.4c-0.6-2.4-1.4-4.7-1.7-7
		c-0.4,0.6-0.2,1.2-0.3,1.8C99,45.3,98,42.8,97.5,40.2z"/>
	<path class="st56" d="M98.4,53.1c-0.1-3.5-0.5-6.9-1.6-10.2c-0.3-0.9-1-1.6-1.1-2.6c0.5,0.2,0.5,0.9,1.1,1.1
		c-0.2-1.2-0.9-2.3-0.7-3.5c0,0,0.1,0,0.1,0.1c1.3,4.9,3,9.7,2.9,14.9C99.1,53.4,99,53.8,98.4,53.1z"/>
	<path class="st57" d="M95.5,71.8c0.1,0.1,0.3,0.2,0.4,0c0.4-1.1,0.8-2.3,1.2-3.5c0.8-1.6,1.2-3.4,1.9-5c0,1.5-0.3,3-0.8,4.4
		c-0.5,1.3-1.1,2.7-1.6,4c-0.1,0.2-0.5,0.7,0.3,0.5c0.3,0.4-0.1,0.8-0.3,0.8c-0.9,0.1-1.1,0.9-1.6,1.4c-0.2,0.2-0.4,0.5-0.7,0.2
		C94.2,73.5,94.4,72.5,95.5,71.8z"/>
	<path class="st22" d="M94.4,74.8c0.3-0.2,0.4-0.5,0.6-0.8c0.4-0.4,0.3-1.4,1.3-1c0.2,0.1,0.5-0.4,0.5-0.8l0,0
		c0.4,0,0.4,0.2,0.2,0.5c-0.9,2.1-2.7,3.7-3.9,5.6c-0.1,0.2-0.4,0.2-0.6,0.3c0.4-0.6,0.7-1.2,1.1-2c-0.7,0.2-0.7,1-1.4,1
		c-0.2-0.4,0.1-0.8,0.3-1C93.2,76.1,93.7,75.4,94.4,74.8z"/>
	<path class="st57" d="M97.1,72.7c0-0.2,0-0.4-0.2-0.5c1.1-2.2,2.5-4.2,3.2-6.5C99.6,68.3,98.3,70.5,97.1,72.7z"/>
	<path class="st58" d="M91.2,93c0-0.1,0-0.1,0-0.2c-0.4-0.3-0.6-0.1-0.9,0.2c-0.7,0.7-1.2,1.7-2,2.3l0,0c-0.2,0.1-0.5,0.1-0.7,0.2
		c-0.3,0.1-0.6,0.3-0.9,0c-0.4-0.3-0.1-0.6,0-0.9c0.2-1.6-0.5-3.1-1.1-4.5c-0.3-0.8-1.1-1.4-0.9-2.3c0.6-0.1,0.7,0.3,0.9,0.7
		c0.9,1.2,1,2.7,1.5,4.1c0.1,0.3,0,0.8,0.5,1.1c0.3-2-0.1-3.8-0.7-5.6c-0.2-0.4-0.5-0.8-0.3-1.3c0.3,0,0.6,0,0.7-0.4
		c2,1.8,3.5,3.9,4.4,6.5C91.3,93,91.3,93,91.2,93z"/>
	<path class="st12" d="M85.9,85.3c-0.5-0.1-0.8-0.4-0.9-0.9c0-0.2-0.3-0.5,0-0.7c0.2-0.1,0.5-0.1,0.7,0.1c-0.3,0.2-0.5,0.3-0.2,0.7
		C85.7,84.7,85.9,84.9,85.9,85.3z"/>
	<path class="st59" d="M92,90.2c-0.1-0.7,0.2-1.1,0.9-1.1c0.3,0,0.8,0,0.7,0.5c-0.2,0.7-0.5,1.5-1.2,1.6
		C91.9,91.3,92.2,90.5,92,90.2z"/>
	<path class="st60" d="M8.7,38.8c0-0.1,0-0.2,0-0.2c0.4-1.1,0.7-2.1,1-3.2c0-0.7,0.3-1.4,0.7-1.9c0.7-1.3,1.3-2.6,2.3-3.8
		c0.4-0.5,0.8-1,1.5-0.8c0.7,0.2,0.7,0.8,0.8,1.4c0.3,2.1,1.1,4.2,0.9,6.4c0,0.4,0.1,0.7,0.3,1.1c0.1,0.2,0.4,0.5,0.4,0.7
		c0.1,2,1.3,3.5,1.7,5.4c0.1,0.4,0.2,0.8,0.4,1c1.1,1,1.6,2.4,2.6,3.4c0.6,0.5,0.8,1.2,1,2c0.7,2.7,0.5,5.5,0.2,8.2
		c-0.1,0.7-0.1,1.4,0.2,2c0.8,1.6,1.4,3.3,2.5,4.7c0.6,0.7,0.9,1.5,1.2,2.4c0.7,2.6,1.9,5,2.9,7.5c0.6,1.5,1.9,2.7,3.1,3.8
		c2.3,2.1,4.6,4.2,6.8,6.4c1.8,1.9,3.9,3.4,6,5.1c0.4,0.3,0.8,0.6,1.2,0.8c0.5,0.3,1.4,0.4,0.6,1.3c-0.1,0.1,0,0.2,0.1,0.3
		c1.1,0.6,1,1.9,1.7,2.7c0.1,0.1,0.2,0.3,0.2,0.4c-0.5,1,0.1,2.2-0.4,3.3c-0.3,0.6-0.5,1.2-0.5,2c0,1.2-0.4,1.6-1.6,1.7
		c-2.3,0.4-4.4-0.1-6.4-1.1c-0.9-0.4-1.9-0.6-2.8-0.8c-2.8-0.6-5.3-1.9-7.7-3.4c-3.8-2.2-6.9-5.2-9.9-8.3c-1.7-1.7-3.4-3.4-4.8-5.3
		c-0.7-0.8-1.3-1.7-1.7-2.7c-1.2-2.3-2.4-4.6-3.6-7c-1.4-2.7-2.2-5.6-2.6-8.6c-0.4-3.7-0.9-7.3-1-11.1c0-1.7,0.3-3.2,0.5-4.8
		C6.9,46.1,7.5,42.4,8.7,38.8z"/>
	<path class="st45" d="M8.7,38.8c-0.2,1.6-0.8,3.1-1.1,4.7c-0.4,2.4-0.6,4.8-1.1,7.1C6.2,52.8,6,55,6.2,57.2
		c0.4,4.8,0.5,9.6,2.1,14.2c0.5,1.4,1.2,2.8,2,4.1c1.4,2.4,2.6,5,4,7.4c0.8,1.3,1.9,2.6,3,3.7c3.1,3.3,6.2,6.7,9.9,9.2
		c3.2,2.2,6.6,4.3,10.6,5c1,0.2,2,0.6,3,1.1c2,1,4.1,1.1,6.3,0.8c0.7-0.1,0.9-0.8,0.7-1.4c-0.1-0.5-0.1-1,0.1-1.4
		c0.4-0.7,1-1.4,0.3-2.3c-0.1-0.1,0-0.3,0-0.3c1-0.8,0.3-1.4-0.2-2.2c-0.4-0.7-0.2-1.7-1.3-1.9c-0.3,0-0.4-0.3-0.4-0.6
		c0.1-0.6,0.6,0,0.8-0.4c-0.1-0.7-0.9-0.4-1.3-0.7c-1.7-1.4-3.6-2.5-5.1-4.1c-2.9-2.8-5.8-5.5-8.7-8.3c-1.8-1.7-3.2-3.7-3.9-6.1
		c-0.7-2.1-1.8-4.1-2.2-6.3c-0.1-0.4-0.3-0.7-0.6-1c-1.3-1.6-2.2-3.5-2.9-5.5c-0.5-1.6,0.1-3.4,0-5c-0.1-2.7,0.3-5.6-2.2-7.6
		c-0.3-1.6-2.1-2.3-2.3-4c-0.1-0.7-0.4-1.4-0.8-2.1c-0.4-0.7-0.8-1.4-0.6-2.2c0-0.1,0-0.4,0-0.4c-1.4-1.6-0.6-3.6-1.1-5.3
		c-0.4-1.2-0.6-2.5-0.7-3.8c0-0.3-0.1-0.6-0.5-0.7c-0.4-0.1-0.7,0.1-1,0.4c-0.7,0.9-1.4,1.9-1.9,2.9c-0.2,0.4-0.3,0.9-0.7,1.2
		c-0.3-0.5,0.1-0.9,0.2-1.3c0.4-1.3,1-2.5,1.7-3.7c0.3-0.5,0.6-1,1.2-1.2c1.1-0.6,2.1-0.1,2.2,1.2c0,0.7,0.2,1.4,0.4,2.1
		c0.5,1.6,0.6,3.3,0.6,4.9c0,1.7,0.6,3.2,1.3,4.7c0.4,1,1,2,1.5,2.9c0.1,0.1-0.1,0,0.1,0.1c1.5,1.4,2.1,3.4,3.1,5.1
		c0.4,0.6,0.6,1.2,0.7,1.9c0.3,2.3,0.5,4.5-0.1,6.8c-0.6,2.2,0,4,1.2,5.8c0.3,0.5,0.6,0.8,1.2,0.5c0,0,0.1,0,0.1,0
		c1.5,1.3,2.9,1.1,4.4-0.1c0.4-0.3,1.1-0.7,1.5,0.2c0,0-0.1,0-0.1,0c-1.5,0.2-4.4,3.4-3.8,5.1c1.1,2.8,1.7,5.9,3.5,8.4
		c1,1.4,2.3,2.4,3.6,3.5c1.5,1.3,3,2.5,4.5,3.8c2.1,1.9,4.5,3.5,6.9,4.9c2.7,1.5,5.6,2.8,8.2,4.6c2.4,1.7,2.4,3.3,1.2,5.4
		c-0.3,0.5-0.6,0.7-1.1,1c-1.4,0.8-1.4,1.6-0.1,2.5c0.4,0.3,0.8,0.4,1.2,0.6c0.3,0.1,0.5,0.3,0.5,0.7c0,0.4-0.3,0.5-0.6,0.6
		c-0.8,0.3-1.6,0.5-2.5,0.5c-6.4,0.1-12.4-1.5-18.2-4c-3.5-1.5-6.8-3.5-9.8-5.9c-1.6-1.3-3-2.7-4.5-4.2c-2.3-2.3-4.7-4.6-6.7-7.2
		c-2-2.6-3.3-5.7-4.7-8.7c-1.2-2.5-1.9-5.2-2.5-7.9c-0.1-0.7,0.2-1.4-0.3-2c-0.3-3.5-0.6-7.1-0.9-10.6c-0.2-1.6,0.5-3.1,0.7-4.7
		c0.3-2.8,1-5.6,1.6-8.3C8,40.5,8.1,39.5,8.7,38.8z"/>
	<path class="st61" d="M25.8,63.4c-0.2,0.6-0.7,1.1-1.1,0.3c-1-1.7-2.2-3.4-1.8-5.6c0.2-1.2,0.3-2.3,0.5-3.5
		c0.3-1.7,0.1-3.4-0.4-4.7c-0.7-2-1.3-4.2-3.1-5.7c-0.7-0.6-1-1.7-1.5-2.6c-1.3-2.5-2.1-5.2-1.9-8.1c0.1-1.3-0.6-2.5-0.8-3.7
		c-0.1-0.3-0.2-0.6-0.1-0.9c0.1-0.5,0.1-1.1-0.4-1.3c-0.5-0.2-1.1-0.2-1.6,0.3c-0.7,0.7-1.2,1.6-1.7,2.6c-0.5,1-1.1,2.1-1.3,3.2
		C10,34,9.9,34.7,9.8,35.3c-0.1,0.1-0.2,0.1-0.2,0c0.1-1.7,0.9-3.2,1.5-4.7c1-2.6,2.3-5.1,4.3-7.1c0.5-0.5,1-1.2,1,0.3
		c0,0.1,0.1,0.3,0.1,0.3c0.3,0.2,0.9-0.2,0.8,0.2c-0.3,1.3,0.4,2.4,0.4,3.7c-0.2,3.6-0.7,7.4,1.1,10.7c0.8,1.7,1.7,3.4,3,4.8
		c0.8,0.8,1.4,1.8,1.8,3c1.3,3.8,1.2,7.7,0.2,11.6c-0.3,1.3-0.2,2.5,0.5,3.6c0.5,1,1.7,1.1,2.3,0.1c1.2-1.8,3-3,4.6-4.3
		c2.9-2.2,6.1-4.1,8.8-6.6c3-2.7,6.4-4.6,10-6.2c4.2-1.9,8-4.5,12.2-6.5c2.5-1.2,4.8-2.8,7.4-3.5c0,0.6-0.6,0.8-1,1
		c-3.1,1.5-6,3.5-8.9,5.2c-2,1.2-4.1,2.3-6,3.8c-1.8,1.4-4,2.2-6,3.2c-3.9,1.8-7.3,4.5-10.8,6.9c-2.4,1.7-4.8,3.4-7.2,5.2
		C28.4,61,27.3,62.5,25.8,63.4z"/>
	<path class="st43" d="M78.2,30.8c-1,0.8-2.4,1-3.5,1.8c-0.3,0.2-0.5,0.4-0.9,0.2c-0.7-0.1-1.4,0.1-2.1,0.5
		c-0.7,0.5-1.6,0.3-2.4,0.6c-4.2,2-8.5,3.7-12.6,5.9c-4.1,2.2-8.3,4.3-12.5,6.2c-1.5,0.7-2.8,1.7-4.2,2.6c-1.7,1.1-3.5,2-5.3,3.1
		c-1.7,1.1-3.8,1.9-4.8,4c-0.6,1.3-1.8,2.2-2.8,3.2c-0.3,0.3-0.7,0.6-1.1,0.3c-0.3-0.2-0.2-0.7,0-1.1c0.5-1.3,1.2-2.4,2.1-3.5
		c1.4-1.7,2.6-3.4,4.2-4.9c0.3,1.3-0.9,1.9-1.1,2.8c2.5-2.9,5.7-5.4,8.2-8.5c0.6-0.8,1.3-1.5,2-2c1.1-0.7,2.1-1.6,3.1-2.5
		c0.1-0.1,0.3-0.3,0.4-0.4c0.3-0.2,0.5-0.4,0.8-0.1c0.2,0.3,0.1,0.6,0,0.8c-0.2,0.3-0.4,0.5-0.6,0.7c-0.5,0.5-0.9,1-1.2,1.5
		c-0.2,0.3-0.5,0.7-0.3,1c0.3,0.5,0.7,0.1,1.1,0c3.3-0.6,6.4-2,9.3-3.7c1.9-1.1,3.9-1.8,5.9-2.6c2.7-1.1,5.3-2.4,8.1-3.4
		c2.6-0.9,5.1-2.1,7.9-2.5C76.8,31,77.4,30.2,78.2,30.8z"/>
	<path class="st62" d="M73.8,32.8c0.3-0.2,0.6-0.3,0.9-0.2c-0.7,0.9-1.4,1.6-2.5,2c-1.8,0.5-2.9,2.1-4.6,2.8
		c-0.6,0.3-1.2,0.6-1.9,0.8c-3.5,1.2-6.7,3.1-9.7,5.1c-2.4,1.6-4.8,3.3-7.4,4.6c-3.3,1.7-6.5,3.6-9.5,5.7c-1.9,1.4-3.9,2.6-5.6,4.4
		c-1.1,0.8-2.4,1.5-3.4,2.5c-1.1,0.4-1.7,1.6-2.7,2.2c-0.2,0.1-0.4,0.5-0.1,0.8c0.4,0.3,0.7,0.6,1.2,0.2c0.6-0.5,1.3-0.9,1.9-1.5
		c0.5-0.5,0.9-0.4,1.4-0.1c0.8,0.6,1.6,1.3,2.3,1.9c-0.2,0-0.4,0.1-0.5,0.3c-0.5,0.2-0.8-0.1-1.2-0.3c-0.2-0.2-0.5-0.4-0.6-0.7
		c-0.1-0.1-0.2-0.1-0.2-0.2c-0.6-0.5-1.2-0.2-1.6,0.2c-0.5,0.5-1.1,0.6-1.8,0.8c-1.2,0.3-1.9-0.2-2.5-1c0-0.2,0.1-0.4,0.3-0.6
		c3.3-2.7,6.6-5.3,10.1-7.8c2.7-1.9,5.5-3.8,8.3-5.7c1.5-1,3.2-1.8,4.8-2.5c2.2-0.9,4.1-2.3,6.2-3.6c4-2.4,7.8-5,11.9-7.2
		c0.8-0.4,1.6-0.8,2.3-1.4C71.1,34.1,72.6,33.7,73.8,32.8z"/>
	<path class="st63" d="M39.4,44.2c-1,1.5-2.1,3.1-3.5,4.2c-1.1,0.9-2.1,1.8-3,3c-0.6,0.9-1.6,1.3-2.4,2.1c0.5-1.2,1.4-2.3,1.8-3.6
		c0.6-1.4,1.9-2.2,2.8-3.3c0.6-0.7,1.1-1.6,2-2.1c-0.1,0.7-0.9,1.2-0.7,2.1C37.7,46.1,38.4,44.8,39.4,44.2z"/>
	<path class="st45" d="M9.6,35.3c0.1,0,0.2,0,0.2,0c-0.2,1.1-0.6,2.2-1.1,3.2C8.8,37.4,9.1,36.4,9.6,35.3z"/>
	<path class="st63" d="M41.5,39.7c-0.4,1-1.3,1.6-2.1,2.3C39.8,40.9,40.7,40.4,41.5,39.7z"/>
	<path class="st63" d="M39.4,42c-0.4,1-1.3,1.6-2.1,2.3C37.8,43.2,38.7,42.6,39.4,42z"/>
	<path class="st43" d="M31.9,63.6c0.3,0,0.5,0.2,0.7,0.5c-1.1,0.6-1.1,2-1.8,2.8c-0.1,0.2,0,0.5,0.2,0.6c0.4,0.5,0.5,1,0.6,1.6
		c0.3,1.1,1.2,1.7,2.3,1.5c1-0.1,2,0.1,2.8,0.6c0.6,0.4,1.2,0.7,1.8,1c0.3,0.1,0.6,0.3,0.8,0.6c1.3,1.4,2.7,2.8,4.6,3.4
		c0.9,0.5,1.9,0.9,2.9,1.2c0.8,0.2,1.7,0.6,2.4,1c2.1,1.3,4.3,2.1,6.6,2.9c1.9,0.6,1.9,0.6,2.7-1.1c0.6,0.4,1.2,0.7,1.6,1.3
		c0.4,0.6,0.3,1.1-0.5,1.2c-2.2,0.4-4.4,0.3-6.5-0.6c-2.4-1.1-4.8-2.1-6.9-3.9c-0.8-0.6-1.7-1.1-2.7-1.4c-0.2,0.5,0.4,0.6,0.3,1.1
		c-1.5-0.1-2.6-1.3-4.4-1.5c1.3,1.2,2.4,2.2,3.8,2.7c2.4,0.9,4.6,2,6.7,3.5c1.6,1.2,3.3,2.3,4.9,3.4c1.7,1.2,3,2.7,4.4,4.2
		c0.2,0.2,0.4,0.5,0.2,0.8c-0.2,0.5-0.6,0.7-1.1,0.7c-1.3,0.2-2.4-0.4-3.5-0.8c-4.9-1.9-9.8-3.9-13.8-7.5c-1-0.9-1.8-1.9-2.4-3.1
		c-0.4-0.8-1-1.6-1.8-2.1c-2.1-1.4-3.7-3.3-5.3-5.3c-0.7-0.8-0.6-2-1.3-2.8c-0.3-0.3-0.4-0.7-0.8-0.9c-0.1-0.1-0.2-0.2-0.2-0.2
		c-0.3-0.2-0.5-0.5-0.4-0.7c0.4-1.2,0.1-2.7,1.5-3.4c0.1-0.1,0.1-0.3,0.2-0.4C30.7,63.7,31.2,63.6,31.9,63.6z"/>
	<path class="st32" d="M30.5,64.5c0.1,0.3,0.3,0.5-0.1,0.7c-0.9,0.5-1.5,2.7-1.2,3.8c-0.1,0-0.2,0-0.2,0c-0.7-1.1-0.4-3.1,0.7-3.9
		C29.9,64.9,30.2,64.7,30.5,64.5z"/>
	<path class="st64" d="M51.1,33.8c2.6-1.9,5-4.1,8-5.4c0.7-0.3,1.1-0.4,0.9,0.6c-0.1,0.7,0.3,1.2,0.7,1.7c0.1,0.2,0.4,0.3,0.4,0.5
		c0.2,1,0.9,1,1.7,1c0.5,0,1.1-0.1,0.9,0.8c-0.1,0.7,0.5,0.5,0.9,0.3c3.1-1.3,6.4-2,9.5-3.4c0.9-0.4,1.8-0.7,2.9-0.5
		c0.7,0.1,1.6-0.1,2.3-0.2c-0.1,0.8-0.9,0.9-1.4,1c-3.1,1.1-6.2,2.3-9.3,3.3c-2.8,0.9-5.4,2.4-8.2,3.4c-1.4,0.4-2.8,0.5-4.1,1.2
		c-1.2,0.7-2.4,1.4-3.8,1.9c-0.4,0.1-0.7,0.3-1.1,0.3c-0.6,0.1-1.1-0.2-1.1-0.9c0-0.7-0.1-1.4-0.2-2.1c-0.1-0.7,0.2-1.2,0.6-1.8
		C51,35,51.4,34.5,51.1,33.8z"/>
	<path class="st63" d="M51.1,33.8c0.4,0,0.8,0.1,0.6,0.6c-0.1,0.1-0.1,0.3-0.2,0.4c-1.4,1.3-0.8,3-0.8,4.6c0,0.8,0.5,0.8,1,0.6
		c1.2-0.4,2.3-0.9,3.4-1.5c1.4-0.8,2.8-1.5,4.5-1.7c1.6-0.1,3.1-1,4.5-1.7c3.3-1.6,6.9-2.5,10.2-4c1.7-0.7,3.5-1,5-2.1
		c0.4-0.3,1-0.2,1.4-0.7c0.5-0.2,1-0.4,1.5-0.6c0.8-0.4,1.6-0.6,2.2,0.2c0.2,0.3,0.6,0.1,0.9,0.2c0.1,0.1,0.1,0.1,0.1,0.2
		c0,0.1-0.1,0.1-0.1,0.1c-2.4,0.6-4.8,1.2-7,2.3c-1.1-0.1-2.1,0.5-3.1,0.8c-4.4,1.4-8.8,3-13,5c-2.3,1.1-4.8,1.9-7.1,3
		c-1.3,0.6-2.4,1.6-3.8,2c-2.3,0.8-4.6,1.9-7,2.3c-0.3,0.1-0.6,0-0.8-0.2c-0.3-0.3-0.1-0.5,0-0.8c0.5-1.1,1.2-1.9,2-2.7
		c0.2-0.2,0.6-0.5,0.3-0.8c-0.3-0.3-0.5,0.2-0.7,0.4c-1.1,1-2,2.1-3.5,2.4c1.3-1.2,2.5-2.4,3.8-3.6c0.3-0.3,0.7-0.5,0.9-1
		C47.8,36.3,49.4,35,51.1,33.8z"/>
	<path class="st31" d="M62.2,23.5c-0.2,0.1-0.3,0.3-0.5,0.4c-0.6,0-1,0.6-1.6,0.7c0.1-0.4,0.5-0.8-0.2-0.9c0.4-0.6,1.6-1.2,2.2-1
		C62.5,22.9,62.6,23.2,62.2,23.5z"/>
	<path class="st52" d="M42.8,33.5c-0.7,0.5-1.4,0.9-2,1.4c-1.6,0.7-2.9,2-4.5,2.8c-0.9,0.5-1.7,1-2.6,1.4c-1.2,0.6-2.4,0.3-2.8-0.9
		c-0.8-2-2.1-3.7-3.2-5.5c-1.6-2.5-1.8-5.3-1.1-8.2c0.7-2.9,2.1-5.5,2.6-8.4c0.2-1.2,0.8-2.3,0.5-3.6c-0.3-1.5-1.3-2.1-2.8-1.7
		c-0.4,0.1-0.7,0.2-1.1,0.3c0.9-1.3,2.3-1.5,3.7-1.3c0.8,0.1,1,0.9,1.1,1.7c0.3,2.1-0.6,4-1,6c-0.5,2.2-1.4,4.4-2,6.6
		c-0.7,2.9-0.6,5.6,1.1,8.2c1.1,1.6,1.8,3.3,2.8,4.9c0.8,1.3,1.7,1.7,3.1,1c1.2-0.6,2.4-1.2,3.6-2c1.8-1.3,3.8-2.4,5.5-3.8
		c0.3-0.2,0.6-0.4,0.9-0.4C44.1,32.5,43.5,33,42.8,33.5z"/>
	<path class="st52" d="M62.2,23.5c0.1-0.3,0.3-0.7-0.3-0.5c-0.7,0.2-1.5,0.1-2,0.7c-0.4,0.2-0.8,0.3-1.1,0.5
		c-2.3,0.5-4.3,1.6-6.3,2.7c-2,1.1-3.7,2.7-5.8,3.7c0.2-0.4,0.6-0.6,0.9-0.9c0.1-0.5,0.5-0.7,0.9-1c4-2.8,8.2-5.1,12.9-6.6
		c0.6-0.2,1.2-0.4,1.8-0.4c0.5,0,1.1,0.1,0.9,0.9C63.4,22.8,62.9,23.4,62.2,23.5z"/>
	<path class="st65" d="M58.5,80.2c0.3,1.9-1,2-2.3,1.6c-2.7-1-5.4-2-7.9-3.4c-1.1-0.7-2.5-1-3.7-1.4c-0.3-0.1-0.6-0.4-1-0.6
		c0.7-0.6,1.4-0.6,2.2-0.3c0.6,0.3,1.3,0.6,1.9,0.9c1.6,0.4,2.8,1.3,4.2,2.1c1,0.5,2,1.1,3,1.5c0.3,0.1,0.8,0.4,1-0.1
		c0.1-0.5-0.4-0.6-0.8-0.6c-0.4-0.1-0.9-0.1-1.2-0.5c0.4-1.6,0.4-1.6,1.7-0.7C56.6,79.2,57.6,79.7,58.5,80.2z"/>
	<path class="st66" d="M54,79.3c0.5,0.1,1,0.1,1.5,0.3c0.6,0.1,1,0.5,0.9,1.1c-0.2,0.7-0.7,0.5-1.2,0.3c-1.2-0.4-2.2-1-3.3-1.7
		c0.9-0.8,0.5-1.8,0.6-2.8c0-0.4-0.3-0.7-0.1-1.1c0.7,0,0.7,0.6,0.7,1c0.1,1-0.3,2.1,0.2,3C53.6,79.7,53.8,79.5,54,79.3z"/>
	<path class="st67" d="M86.4,86.8c1,1.7,1.3,3.6,1.5,5.5c0.1,0.6,0.2,1.8-0.6,1.8c-0.8,0.1-0.5-1-0.7-1.6c-0.5-1.7-0.7-3.6-2.1-4.9
		c-1.2-1.1-2.5-2.1-3.5-3.3c-0.2-0.2-0.5-0.3-0.3-0.6c0.2-0.3,0.5-0.1,0.7-0.1C83.4,84.2,85.1,85.2,86.4,86.8z"/>
	<path class="st18" d="M88.2,95.3c0.7-0.9,1.4-1.7,2.1-2.6c0.3-0.3,0.6-0.5,0.8,0.1c-0.9,0-1.2,0.9-1.7,1.4
		C89,94.6,88.8,95.1,88.2,95.3z"/>
	<path class="st14" d="M45.1,56.1c-1.2,0.6-2.3,0.4-3.4-0.1c-0.7-0.3-1.2,0.3-1.8,0.3c0.7-0.7,1.5-1.1,2.5-0.7
		C43.3,55.9,44.3,55.6,45.1,56.1z"/>
	<path class="st34" d="M78.8,51.1c0,0.8,0,1.7,0,2.5c-0.5-0.1-0.4-0.4-0.2-0.7c0-0.6,0-1.2,0-1.8C78.7,51.1,78.7,51.1,78.8,51.1z"/>
	<path class="st68" d="M78.6,52.9c0,0.2,0,0.5,0.2,0.7l0,0c0.7,0.5,1.6,0.6,2.2,1.2c0.3,0.4,0.9,0.6,0.6,1.3c-0.7,0.1-1-0.5-1.4-0.8
		c-0.8-0.5-1.5-0.6-2.3-0.2c-1.1,0.6-2.1,1.4-2.9,2.3c-0.8,0.8-0.6,1.7-0.2,2.6c0.5,1.1,1.3,1.6,2.5,1.7c0.9,0,1.8-0.1,2.1-1.3
		c0.1-0.5,0.5-0.9,1.2-0.5c0.1,0.8-0.6,1.4-0.7,2.2c-0.2,1.3-0.1,2.6,0.1,3.9c0,0.1,0.1,0.2,0.1,0.3c0,1.7,0.7,3.3,1.2,4.9
		c0.1,0.4,0.2,0.9,0.5,1.3c0.8,1.3,1.5,2.6,2.3,3.9c-0.2,0.8-1.7,2.2-2.5,2.3c-1.1,0.1-1.9-0.2-2.5-1.2c-0.8-1.4-2-2.5-2.6-3.9
		c-0.2-0.5-0.5-0.9-0.6-1.5c-0.1-0.6-0.3-0.8-0.8-0.3c-0.6,0.5-1,0.2-1.4-0.3c-1.4-1.6-2.8-3.2-4.2-4.8c-0.5-0.5-1-0.9-0.9-1.7
		c0-0.3-0.3-0.6-0.5-0.8c-1.4-1.4-2-4-1.3-5.8c0.4-1,1.2-1.6,2.2-2c1.1-0.5,2.2-1,3.4-1.5c1.7-0.6,3-2,4.7-2.8
		C77.8,51.9,78.3,52,78.6,52.9z"/>
	<path class="st69" d="M66.1,50.8c1.2-0.2,2.4-0.6,3.3-1.6c0.7-0.8,1.5-1.4,2.5-1.7c0.4-0.1,0.9-0.3,1.3,0.1
		c-1.2,1.1-2.8,1.5-4.2,2.4c-1.1,0.7-2.1,1.3-2.9,2.3c-1.7,2.1-4,3.2-6.4,4.1c-3.3,1.3-6.5,2.6-9.6,4.2c-0.7,0.4-1.4,0.8-2.1,1.3
		c-0.7,0-1.4,0-2.1,0.2c-0.4,0.1-1.1,0.4-1.2-0.4c-0.1-0.3-0.4-0.1-0.7-0.2c-0.4-0.1-0.8,0.1-1.2-0.2c2-0.1,3.9-0.5,5.7-1.6
		c0.9-0.5,1.7-1.1,2.8-1.2c0.2,0,0.4-0.2,0.6-0.4c1.4-1.6,3.3-2.2,5.2-2.8c2.3-0.7,4.4-2,6.5-3.1C64.3,51.8,65.1,51.1,66.1,50.8z"/>
	<path class="st70" d="M79.8,52.7c0-0.1,0-0.3,0-0.4c0.2-0.2,0-0.5,0.2-0.8c0.1-0.1,0.1-0.3,0.2-0.4c1.2-1.5,1.5-1.6,3-0.2
		c0.4,0.3,0.7,0.7,1,1.1c0.8,1,0.9,0.9,1.5-0.2c0.3-0.5,0.5-1,0.9-1.4c0.3-0.2,0.5-0.2,0.5,0.2c-0.8,2.6-0.7,5.3-0.6,8
		c0.1,1,0,2,0.2,2.9c-0.2,0.6-0.7,0.3-1,0.3c-1.2-0.2-2.1,0.2-2.7,1.3c-0.2,0.3-0.5,0.6-0.6,0.9C81.9,65,81,65.5,79.8,65
		c-0.4-0.7-0.2-1.3,0.3-1.9c1.4-1.6,2.2-3.4,2.7-5.4c0.5-2-0.5-3.6-1.6-5.1C80.8,52,80.3,52.8,79.8,52.7z"/>
	<path class="st71" d="M79.8,52.7c1.1-1,1.3-0.9,2.2,0.4c1.9,2.7,1.2,5.4-0.2,8c-0.5,0.9-1,1.9-1.8,2.6c-0.4,0.3-0.3,0.8-0.3,1.3
		c0.2,0.3,0.2,0.6,0.2,0.9c0,0.2-0.1,0.4-0.3,0.5c-0.6-2.2-0.6-4.3,0.7-6.4c0-0.2,0.1-0.3,0.2-0.4c1.2-0.9,1.3-2.1,1-3.5
		c-0.3-1.1-1.3-1.5-2.1-2c-0.2-0.1-0.6-0.1-0.6-0.6C79.7,53.8,79.7,53.2,79.8,52.7z"/>
	<path class="st72" d="M80,51.5c0,0.2,0,0.5-0.2,0.7c0-0.2,0-0.3,0-0.5c0.1-0.8,0.2-1.6,0.3-2.5c0.4-0.9,0.5-1.8,0.7-2.7
		c0.4-0.3,0.2-0.8,0.6-1c0.2,0,0.2,0.3,0.3,0.4c0.1,0.5-0.5,1.2,0,1.3c0.5,0.2,1.2-0.1,1.8-0.3c0.6-0.2,1.1-0.5,1.6-0.8
		c1.5-1,3.2-1.2,4.8-1.5c1.4,0.7,0.3,1.4,0,2c-0.9,0-1.4,0.9-2.2,1.1c-1.2,0.1-2.5,0.3-3.7,0.3c-1.1,0-1.8,0.6-2.5,1.4
		C80.8,50.1,80.4,50.8,80,51.5z"/>
	<path class="st3" d="M72,88.3c-0.6-0.3-0.8-0.6-0.5-1.1c0-0.1,0.2-0.1,0.3-0.1C72.2,87.4,72,87.8,72,88.3z"/>
	<path class="st73" d="M79.7,66.3c0-0.2,0.1-0.3,0.1-0.5c0.3-0.9,0.7-0.5,1-0.1c0.4,0.6,0.7,1.3,1.1,2c0.2,0.3,0.4,0.6,0.8,0.5
		c0.5-0.1,0.5-0.5,0.5-0.9c-0.2-1,0.4-1.7,0.9-2.5c0.3-0.4,0.6-0.6,1.1-0.5c0.5,0.1,0.5,0.6,0.5,1c0,0.5-0.1,0.9,0.4,1.2
		c1.5,0.6,1.6,1.9,1.4,3.2c0,0.2-0.1,0.4,0,0.7c0.4-0.2,0.4-0.7,0.6-1c0.2-0.4,0.4-0.9,1-0.8c0.6,0,0.7,0.5,0.8,1
		c0.1,0.7,0.3,1.2,0.6,1.8c0,0.1,0,0.2,0,0.3c-0.2,1.1-0.5,2.2-0.7,3.3c0,0.2-0.1,0.4-0.2,0.6c0.3-0.4,0.8-0.5,1.2-0.6
		c0.6-0.1,0.8,0.2,0.9,0.8c0.2,0.9,0.1,1.8-0.4,2.6c-0.1,0.3-0.4,0.5-0.6,0.4c-1.2-0.8-2.7-0.4-3.9-1.5c-3-2.8-4.9-6.3-6-10.2
		c-0.1-0.2,0-0.5-0.3-0.4c-0.1,0-0.1,0.3-0.2,0.5C79.6,67.1,80.1,66.6,79.7,66.3L79.7,66.3z"/>
	<path class="st74" d="M91.2,78.4c-0.1-0.1-0.2-0.4-0.2-0.4c0.9-0.7,0.1-1.5,0.3-2.3c0.2-0.8-0.7-0.3-1.1-0.3
		c-0.3,0-0.9,0.8-0.9-0.3c0.5-1.1,0.7-2.2,0.9-3.4c0-0.1,0-0.1,0-0.2c-0.2-0.7-0.5-1.4-0.2-2.1c0.6-0.1,0.6-0.1,0.7,0.5
		c0.1,0.9,0.3,1.9,0.4,2.8c0.7-0.9,1.4-1.7,1-3c-0.3-1.1-0.5-2.2,0.2-3.3c0.4-0.5,0.6-1.2,1.4-1c0.8,0.2,1.5,0.9,1.5,1.8
		c0,0.5-0.2,1.1,0.7,0.7c0.4-1.2,0.8-2.4,1.3-3.5c0.1,0,0.2,0.1,0.3,0.1c-0.3,2.5-1.8,4.8-2,7.3c-0.6,0.9-1,1.9-1.1,3
		c-0.2,0.8-0.8,1.3-1.3,1.9c-0.3,0.3-0.6,0.7-0.7,1.1C91.9,77.9,91.7,78.4,91.2,78.4z"/>
	<path class="st71" d="M79.8,66.3c0.3,0.2,0.1,0.6,0.4,0.8c0.2,1.4,0.7,2.8,1.2,4.1c0.2,0.5,0.3,0.9,0.3,1.4
		C80.6,70.7,80,68.6,79.8,66.3z"/>
	<path class="st75" d="M52.4,75.4c0.8,1.1,0.4,2.3,0.4,3.5c0,0.5-0.5,0.4-0.9,0.4c-1.4-0.7-2.6-1.7-4.1-2.1c-1.4-1.3-3.2-1.3-4.9-2
		c-0.3-0.1-0.7-0.1-0.9-0.4c-0.8-0.9-1.9-1.4-2.9-2c-0.2-0.2-0.5-0.3-0.7-0.5c-1.9-1.3-4.2-2.1-6.1-3.4c-1.2-0.8-1.3-1.7-0.2-2.7
		c0.1-0.1,0.3-0.2,0.3-0.4c0.5-1.2,0.8-1.3,1.9-0.7c0.4,0.2,0.7,0.6,1.2,0.9c0.1,0,0.3,0,0.4,0c1.5,1.1,2.9,2.4,4.6,3.4
		c1.5,0.9,3,1.6,4.5,2.3c0.8,0.4,1.1,1.2,1.3,2c0.3,0.2,0.3,0.4,0.3,0.8c0.1-0.4,0.3-0.7,0.5-1c0.1-0.1,0.1-0.2,0.2-0.3
		c1.2,0.4,2.1,1.1,2,2.6c0,0.2,0,0.5,0.2,0.6c0.3,0.1,0.4-0.2,0.5-0.4C50.7,75.2,51.4,74.6,52.4,75.4z"/>
	<path class="st44" d="M47.2,73.6c0,0.6-0.3,1.1,0,1.8c-1-0.4-0.6-1.1-0.7-1.6C46.7,73.8,46.9,73.7,47.2,73.6z"/>
	<path class="st76" d="M35.6,66.1c-0.7-0.1-1-0.9-1.8-0.9c-0.6,0-1.2-0.3-0.9,0.7c0.1,0.4-0.1,0.6-0.4,0.6c-0.6,0.1-0.7,0.4-0.8,0.9
		c-0.1,0.5,0.2,1,0.7,1.2c1.8,0.8,3.2,2.3,5.1,2.8c0.4,0.1,0.8,0.6,1,1c-0.9-0.1-1.6-0.8-2.3-1.2c-0.7-0.4-1.5-0.5-2.3-0.4
		c-1.3,0.1-2.5-0.7-2.7-2c0-0.5-0.2-0.9-0.6-1.2c-0.3-0.3-0.4-0.6-0.2-1c0.3-0.7,1.1-1.2,1-2.2c0-0.4,0.7-0.5,1.2-0.4
		c0.4,0.2,0.8,0.3,1.1,0.5C34.3,65.1,35.1,65.4,35.6,66.1z"/>
	<path class="st21" d="M47.2,29.6c-3.2,2-6.3,4.2-9.6,6c-0.4,0.2-0.8,0.3-1.2,0.5c-1.9,0.7-2.1,0.4-3.4-1.2
		c-1.5-1.7-2.2-3.8-3.3-5.7c-0.9-1.6-1-3.5-0.6-5.2c0.7-3.1,1.6-6.2,2.4-9.3c0.4-1.4,0.7-2.8,0.6-4.2c0-1.4-1.1-2.4-2.5-2.2
		c-0.5,0.1-1.1,0.1-1.6,0.1c1.6-1.1,3.2-1.8,5.2-1.6c0.7,0.1,1.1,0.3,1.3,0.9c0.3,1,0.4,1.9,0.2,3c-0.8,2.9-2.2,5.6-2.6,8.7
		c-0.5,3.1-0.9,6.1,0.6,9.1c1,1.9,2,3.8,4.2,4.7c0.7,0.3,1.3,0.2,2,0c2.8-0.8,5.3-2.2,7.7-3.8c2.7-1.7,5.2-3.7,8-5.1
		c3.9-1.9,7.7-4.1,12.1-4.8c0.6-0.1,1.1-0.5,2-0.3c-1.2,1-2.1,2.1-3.3,2.8c-0.3-0.7-0.8-0.8-1.5-0.6c-2,0.5-3.8,1.3-5.6,2
		c-3.6,1.4-6.8,3.6-10,5.7C47.8,29.3,47.5,29.4,47.2,29.6z"/>
	<path class="st29" d="M47.2,29.6c1.7-1.4,3.6-2.5,5.4-3.7c3.6-2.3,7.4-3.9,11.5-5c1-0.3,1.3,0,1.1,1c-0.3,0.4-0.8,0.5-1.1,0.7
		c-0.1-0.8-0.7-0.8-1.2-0.6c-2.7,0.8-5.3,1.7-7.8,3c-2.6,1.3-5,3-7.4,4.7C47.5,29.6,47.3,29.6,47.2,29.6z"/>
	<path class="st43" d="M85.2,28.5c0-0.1,0-0.2,0-0.2c1.2-0.3,2.4-0.6,3.6-1C88,28.8,86.7,28.8,85.2,28.5z"/>
	<path class="st77" d="M76.8,42.6c0.1,0.5-0.2,1-0.5,1.4c-1,1.3-2.3,2-3.9,2.3c0-0.4,0.8-0.6,0.5-1c-0.2-0.3-0.7-0.1-1.1-0.1
		c-0.3,0-0.5,0-0.8-0.1C73,44.2,74.9,43.4,76.8,42.6z"/>
	<path class="st78" d="M78,36c0.2,0,0.5,0,0.7,0c0.2,0,0.3,0.1,0.3,0.3c0,0.1-0.1,0.3-0.1,0.3c-1.9,0.2-3.1,1.9-5,2.1
		c-0.2,0-0.3,0.1-0.4,0c-0.1,0-0.3-0.1-0.4-0.2c-0.1-0.2,0.1-0.3,0.3-0.4c1.2-0.6,2.3-1.2,3.4-1.9C77.2,35.9,77.5,36,78,36z"/>
	<path class="st77" d="M67.3,46.8c-1.8,0.7-3.3,1.3-5,1.5c-0.3,0-1,0.3-1-0.3c0-0.5,0.3-1,0.9-1.1C63.8,46.9,65.4,46.6,67.3,46.8z"
		/>
	<path class="st77" d="M72.5,46.3c-0.9,1-2.1,0.6-3.2,0.7C70.3,46.7,71.4,46.5,72.5,46.3z"/>
	<path class="st79" d="M89.3,64.3c-2.6-2.8-2.1-6.3-2.2-9.7c0-1.3,0.1-2.7,0.6-3.9c0.5-1.3,1-2.4,2.6-2.8c0.8-0.2,1.3,0.1,1.6,0.7
		c1.2,2.1,1.7,4.4,1.4,6.9c-0.1,1.1-0.2,2.2-0.1,3.3c0.3,0.3,0.2,0.7,0.1,1.1c-0.3,1.3-0.7,2.6-1.3,3.9c-0.4,0.8-1,1.5-2,1.2
		C89.6,64.8,89.4,64.6,89.3,64.3z"/>
	<path class="st80" d="M90.2,69.3c0,0.8,0,1.5,0,2.3c-0.5-0.5-0.7-1.1-0.7-1.9c0-0.3-0.1-0.7-0.5-0.8c-0.5-0.1-0.6,0.3-0.8,0.7
		c-0.1,0.3-0.2,0.6-0.3,0.9c-0.1,0.4-0.2,0.9-0.7,0.7c-0.4-0.1-0.3-0.6-0.2-1c0.4-2.2,0.4-2.2-1.5-3.4c-0.5-0.3-0.3-0.7-0.2-1.1
		c0.1-0.4,0.3-0.9-0.2-1.1c-0.4-0.1-0.7,0.2-1,0.6c-0.4,0.7-1,1.4-0.6,2.4c0.2,0.5-0.3,0.8-0.7,1c-0.4,0.2-0.7,0-0.9-0.4
		c-0.4-0.8-0.9-1.6-1.3-2.4c-0.3-0.5-0.5-0.4-0.8-0.1c0-0.3,0-0.6,0-0.9c1.6,0.3,2.3-0.8,2.9-2c0.9-1.8,2.1-1.9,4.1-1.4
		c0.2,0.1,0.1,0.3,0.2,0.5c0,0.4,0.2,0.7,0.5,0.9c0.2,0.4,0.6,0.7,0.7,1.1c0.3,1.2,1.2,1.5,2.3,1.7c1.1,0.2,1.2,0.4,0.8,1.4
		C91,67.9,90.8,68.7,90.2,69.3z"/>
	<path class="st81" d="M90.2,69.3c0-0.9,0.6-1.6,0.9-2.4c0.2-0.6,0.1-0.8-0.5-0.8c-1.6-0.1-2.3-0.6-2.6-2c0.8,0,1.3,0.5,2,0.8
		c0.9,0.3,1.3-0.3,1.8-0.9c0.5-0.8,0.9-1.7,1.2-2.7c0.2-0.8,0.6-1,1.3-0.3c0.1-1.7,0-3.4,0.1-5c0-0.5-0.1-1.1,0.3-1.5
		c0-0.6,0-1.2,0-1.8c0.4,1.3,0.1,2.7,0.2,4c0,0.8,0,1.4,0.7,2.1c1,1,0.8,2.5,0.6,3.8c-0.3,1.6-0.3,3.1-0.6,4.7
		c-0.1,0.5,0.1,0.6,0.5,0.7c-0.2,0.3-0.2,0.9-0.7,0.8c-0.4-0.1-0.2-0.7-0.2-1c-0.1-0.5,0.1-1-0.4-1.4c-0.5-0.3-1-1-1.5-0.6
		c-0.6,0.5-1.2,1.4-1,2.3c0.1,0.7,0,1.5,0.5,2.3c0.3,0.6-0.3,1.4-0.7,2.1c-0.1,0.3-0.4,0.5-0.5,0.7c-0.1,0.2-0.1,0.6-0.5,0.4
		c-0.3-0.1-0.2-0.4-0.2-0.6c-0.1-1-0.2-2-0.2-3C90.4,69.7,90.4,69.4,90.2,69.3z"/>
	<path class="st82" d="M94.8,50.8c-0.1,0.3-0.5,0.5-0.4,0.9c-0.2-0.1-0.3-0.4-0.3-0.6c0.1-1.6-0.9-2.9-0.9-4.5
		c0-1.1-0.7-2.3-1.4-3.3c-0.8-1.2-1.3-2.5-1.9-3.9c-0.3-0.8-0.1-1.3,0.7-1.5c0.7-0.2,1.4-0.5,2.1-0.9c0.5-0.3,1-0.3,1.5,0.3
		c0.6,0.8,1,1.6,1.3,2.5c-0.6-0.5-1.2-0.4-1.6,0.2c-0.6,0.8-1.1,1.7-0.8,2.7c0.6,2.3,0.6,4.6,1.1,6.9C94.2,50.2,94.6,50.4,94.8,50.8
		z"/>
	<path class="st83" d="M94.5,54.5c0,2.4,0.2,4.7-0.1,7.1c-0.4-0.1-0.4-0.3-0.5-0.5c-0.1-0.1-0.3-0.3-0.4-0.4c-0.3,0-0.3,0.3-0.3,0.5
		c-0.2,1.1-0.8,2.1-1.5,3c-0.5,0.6-1,1.3-1.9,0.7c-0.1-0.1-0.1-0.2,0-0.3c1,0.3,1.5-0.3,1.9-1.1c0.7-1.5,1.2-3.2,1.5-4.8
		c0.4-1.3,0.2-2.6,0.4-3.8C93.7,54.1,93.9,54,94.5,54.5z"/>
	<path class="st84" d="M87,62c-0.2-0.1-0.2-0.3-0.2-0.5c-0.4-2.7-0.6-5.4-0.3-8.2c0.1-1.1,0.4-2.1,0.6-3.2c-0.5-1,0-1.8,0.7-2.5
		c0.7-0.3,1-1.5,2-0.9c0.2,0.4,0.1,0.6-0.2,0.8c-2,1.6-2.7,3.8-2.8,6.3C86.7,56.6,86.8,59.3,87,62z"/>
	<path class="st84" d="M89.8,64.7c0,0.1,0,0.2,0,0.3c-0.6-0.3-1.2-0.6-1.8-0.9c-0.2-0.4-0.3-0.8-0.5-1.1c0.7,0.3,1,1.2,1.8,1.4
		C89.5,64.4,89.6,64.5,89.8,64.7z"/>
	<path class="st62" d="M37,98c-2.2-0.2-4-1.1-5.8-2.1c-1.7-0.9-3.5-1.8-5-2.9c-2.2-1.6-4.4-3-6.1-5.1c-1.2-1.5-2.7-2.6-3.7-4.2
		c-3.2-5-6.2-10-7.7-15.8C7.8,64.5,7.2,61,7.3,57.6c0.1-2.9-0.2-5.9,0.2-8.8c0.4-3.2,0.8-6.5,2.1-9.6c0.3-0.8,1-1.4,1.5-2.1
		c0.1-0.2,0.3-0.4,0.6-0.2c0.2,0.2,0.2,0.4,0.1,0.6c-0.5,0.6-0.2,1.2,0.2,1.6c0.7,0.8,1.2,1.6,1.3,2.6c0.1,1.7,1.5,2.8,2,4.2
		c0.2,0.6,0.4,1.1,0.6,1.7c0.2,0.8,0.1,1.8,1.1,2.2c0.1,0,0.2,0.2,0.2,0.3c0.1,2.1,1.5,3.8,1.8,6c0.3,2.8,1.5,5.4,2.3,8.1
		c0.7,2.3,1.7,4.5,2.5,6.7c0.6,1.5,1.5,3,1.9,4.5c0.6,2.2,2.3,3.7,3.2,5.7c0.4,1.1,1.2,2.1,2.5,2.4c0.7,1.8,3.1,1.9,3.5,4.1
		c0.2,1.4,1.6,2.3,2.5,3.4c0.7,0.7,0.9,1.7,1.6,2.3c0.1,0.1,0.1,0.4,0,0.5c-0.5,0.5-0.1,0.8,0.2,1.1c0.7,0.7,0.6,1.3-0.3,1.8
		C38.2,97.4,37.8,98.2,37,98z"/>
	<path class="st85" d="M38.4,77.6c0.7,0.3,1.2,0.3,1.5,0.6c2.3,1.9,5.2,2.9,7.6,4.8c1.6,1.3,3.3,2.5,5,3.8c0.6,0.4,1.3,0.7,2,1.1
		c0.5,0.3,0.9,0.8,0.7,1.3c-0.2,0.6-0.9,0.5-1.4,0.3c-3.5-1.1-6.8-2.7-9.8-4.9c-0.7-0.5-1.2-1.2-1.4-2c-0.5-1.5-1.4-2.6-2.8-3.5
		C39.2,78.8,38.8,78.4,38.4,77.6z"/>
	<path class="st66" d="M39.2,72.9c1.1,0.2,2,0.8,2.8,1.5c1,0.8,2.3,1.1,3.5,1.4c1,0.2,1.8,0.5,2.3,1.4c-0.3-0.1-0.7-0.2-1-0.4
		c-1-0.6-2-0.9-3.1-0.5C41.8,75.8,40.4,74.5,39.2,72.9z"/>
	<path class="st86" d="M81.6,56.1c0.9,1.5,0.6,2.5-1.1,3.9c-0.4,0.1-0.9,0.2-0.9,0.7c-0.1,1.6-1.4,1.4-2.3,1.5
		c-2.1,0.2-3.9-2.7-2.8-4.4c1-1.5,2.5-2.6,4.3-3.2c0.9-0.3,1.5,0.5,2.2,1C81.1,55.7,81.3,55.9,81.6,56.1z"/>
	<path class="st87" d="M87.7,47.6c-0.2,0.8-0.8,1.6-0.7,2.5c-0.6,0.6-0.9,1.3-1.2,2c-0.6,1.1-1,1.1-1.7,0.1
		c-0.5-0.7-1.2-1.4-1.9-1.9c-0.6-0.4-1.1-0.5-1.4,0.3c-0.1,0.3-0.5,0.5-0.8,0.8c0.5-1.7,2-3.9,4.3-3.6C85.4,48,86.6,47.5,87.7,47.6z
		"/>
	<path class="st80" d="M90.2,71.8c0.1,1.2-0.1,2.4-0.9,3.4C89.6,74.1,89.7,72.9,90.2,71.8z"/>
</g>
</svg>
