<?xml version="1.0" encoding="utf-8"?>
<!-- Generator: Adobe Illustrator 16.0.0, SVG Export Plug-In . SVG Version: 6.00 Build 0)  -->
<!DOCTYPE svg PUBLIC "-//W3C//DTD SVG 1.1//EN" "http://www.w3.org/Graphics/SVG/1.1/DTD/svg11.dtd">
<svg version="1.1" id="Layer_1" xmlns="http://www.w3.org/2000/svg" xmlns:xlink="http://www.w3.org/1999/xlink" x="0px" y="0px"
	 width="64px" height="64px" viewBox="-0.5 -0.5 64 64" enable-background="new -0.5 -0.5 64 64" xml:space="preserve">
<g>
	<path id="path2922" fill="#60A5DA" d="M48.923,36.544c0.002,8.899-7.354,16.116-16.425,16.116
		c-9.071,0.002-16.427-7.215-16.428-16.116l0,0c0-8.903,7.355-16.119,16.426-16.12c9.073-0.001,16.427,7.215,16.427,16.118V36.544z"
		/>
	<g id="path2922-5">
		<path fill="#075EA0" d="M32.5,53.5c-4.606,0-8.936-1.76-12.194-4.955c-3.261-3.199-5.055-7.453-5.056-11.978
			c0-4.527,1.795-8.782,5.055-11.98c3.258-3.196,7.587-4.957,12.193-4.957c9.511,0,17.249,7.596,17.249,16.933
			c0.002,4.528-1.795,8.782-5.055,11.981C41.435,51.74,37.105,53.5,32.5,53.5L32.5,53.5L32.5,53.5z M32.5,20.72
			c-0.002,0-0.002,0-0.002,0c-4.319,0-8.377,1.648-11.43,4.645c-3.048,2.992-4.729,6.971-4.729,11.201
			c0.001,4.231,1.68,8.21,4.731,11.202c3.052,2.994,7.112,4.645,11.43,4.645l0,0l0,0c4.318-0.002,8.378-1.65,11.429-4.646
			c3.051-2.992,4.73-6.971,4.73-11.2C48.657,27.828,41.407,20.72,32.5,20.72z"/>
	</g>
	<path id="path3706" fill="#075EA0" d="M20.82,46.25c0.307,0.387,0.916-0.041,1.527-0.469c0.732,0.084,1.43,0.244,1.958,0.742
		c0.522,0.314,1.051,0.643,1.368,0.549c0.283-0.16,0.551-0.324,0.627-0.588c0.137-0.318,0.059-0.711-0.117-1.135
		c0.085-0.279,0.095-0.586,0.782-0.664c0.141-0.111,0.538-0.504,0.313-0.822l-1.41-2.271c-0.494-0.988,0.16-1.248,0.783-1.525
		c0.562-0.324,1.258-0.547,0.51-1.879c-1.334-1.376-2.414-2.815-2.506-4.501c-0.184,0.078-1.375-0.348-2.113-0.548
		c-0.81-0.184-1.634-0.686-2.74,0.821c-0.141,0.906-0.291,1.176-0.783,2.309c-0.271,0.796-0.273,1.456-0.352,2.153
		c0.049-0.152-0.047,0.676-0.096,2.582c-0.012,0.439,0.104,1.033,0.096,1.527c0.189,0.865,0.775,2.006,1.409,2.662l0.079,0.469
		C20.339,45.922,20.355,46.461,20.82,46.25L20.82,46.25z"/>
	<path id="path3708" fill="#075EA0" d="M44.233,41.77l3.246-3.611c0.68-0.918,0.113-1.166-0.438-1.421l-1.678-0.547
		c-0.238-0.688-0.658-1.131-1.605-0.875c-0.535-0.83-0.227-1.827,0-2.809c0.287-0.354,0.566-0.732,0.621-1.861
		c-0.504-0.806-0.727-1.668-0.84-2.553l-0.035-2.115c-0.797-0.229-1.361-0.123-1.605,0.438c-0.461,0.889-0.689,1.932-1.385,2.662
		l-2.443-0.474c0.037-3.591-0.281-6.356-1.968-5.944c-0.238,0.793-3.637-0.424-4.698,0.239c-1.286,1.401-1.244,2.373-1.504,3.407
		c-0.524,0.586-0.445,1.232-0.184,1.896c0.877,1.244,1.352,1.986,1.277,2.042c-0.047,0.828-0.144,1.777,0.037,2.079
		c0.027,0.603,0.278,0.958,1.094,0.694c1.375-0.142,3.355-0.619,4.084-0.4c0.238,1.542,1.441,3.011,0.695,4.631l-0.037,0.73
		c1.329,1.506,2.212,3.211,1.995,3.871c-0.396,0.607-0.363,1.32-0.465,1.998c-0.258,0.939-0.574,1.334-0.987,1.662
		c-0.25,0.443-0.385,1.125-0.318,1.566c0.322,0.086,0.592,0.037,0.759-0.273c1.492-1.092,2.604-1.705,3.465-2.006L44.233,41.77
		L44.233,41.77z"/>
	<path id="path4134" fill="#99A2B5" d="M15.2,25.146c0.003-0.701-0.047-1.397,0.658-2.156l1.159-1.361l0.703,0.681L15.2,25.146z"/>
	<path id="path3716" fill="#EBEBEB" d="M37.87,10.191l4.971,1.027c1.811,1.233,3.365,2.761,4.625,4.627
		c0.693,1.162,1.055,2.863,1.113,5.055c-0.814,3.188-0.133,4.486,0.514,5.825c0.701,1.735,1.572,3.481,1.287,5.14
		c-2.381,2.125-2.57,2.056-3.598,2.828c-1.029,0.521-2.057-0.346-3.084-1.712c0.779-0.861,1.977-1.79,2.217-2.727
		c-1.885-1.599-3.697-3.426-5.283-5.175c-0.062,1.499-0.176,3.08-0.619,4.731c-0.662,2.18-0.248,3.366,0.086,4.626
		c-0.074,1.408-1.355,2.01-2.314,2.827c-1.319,0.215-1.653-0.392-2.054-0.942l-1.627-8.14c-1.982-3.307-3.444-2.153-5.055-2.312
		c-1.311,0.908-3.041,1.733-5.143,2.484c-1.303,0.827-1.673,1.853-1.884,2.913c-3.347,1.857-4.973,3.652-7.001,5.509
		c-0.964-0.055-1.669-0.258-2.08-0.627c-0.719-0.291-0.553-0.85-0.514-1.369l1.5-4.819c0.211-1.05,0.285-2.101,0.642-3.149
		c0.729-2.199,2.371-3.627,4.112-4.969l4.455-4.026c2.287-2.353,5.307-6.209,7.299-7.38C32.121,9.155,34.803,9.847,37.87,10.191z"/>
	<path id="path4132" fill="#737F98" d="M19.945,26.69c0,0,1.021-0.726,1.543-1.567c0.523-0.839-0.544-1.089-0.544-1.089
		l-2.134,2.111C18.929,26.64,19.001,27.193,19.945,26.69z"/>
	<path id="path4130" fill="#99A2B5" d="M18.333,26.099c-0.105-0.203,0.09-0.408,0.408-0.613l0.704-1.021
		c0.242-0.213,0.068-0.208,1.498-1.044c0.335,0.197,0.695,0.163,0.977,0.862c0.004,0.606,0.054,1.197-0.113,1.861
		c-0.307,0.246-0.586,0.324-0.773-0.092c-0.031-0.203-0.046-0.448,0.16-1.248c0.062-0.191-0.066-0.32-0.182-0.454
		c-0.378,0.104-0.621,0.298-0.816,0.522c-0.41,0.635-0.834,1.223-1.362,1.498C18.41,26.494,18.409,26.265,18.333,26.099z"/>
	<path id="path4136" fill="#737F98" d="M16.333,30.313l1.308,0.718c0.321,0.008,0.67,0.045,0.755-0.184
		c0.207-0.127,0.31-0.306,0.423-0.479c-0.163-0.232-0.66-0.078-1.104,0.018l-1.05-0.479L16.333,30.313L16.333,30.313z"/>
	<path id="path4138" fill="#737F98" d="M14.407,29.355l0.686,0.184l0.449,0.037L15.518,30l-1.395,0.018L14.407,29.355z"/>
	<path id="path4142" fill="#737F98" d="M12.909,34.126l1.767,0.477c0.128,0.484-0.176,0.824-0.312,1.217
		c0.446,0.014,1.467-0.609,1.675-1.123c0.239-0.406,0.359-0.904,0.774-1.179c0.203,0.056,0.337,0.247,0.295,0.79
		c-0.645,1.156-1.412,1.574-2.119,2.359l-2.468-0.773L12.909,34.126z"/>
	<path id="path3716-6" fill="none" stroke="#737F98" stroke-width="0.9081" stroke-linecap="round" stroke-linejoin="round" d="
		M38.052,9.998l4.969,1.028c1.812,1.233,3.367,2.76,4.625,4.626c0.695,1.162,1.055,2.865,1.117,5.055
		c-0.816,3.188-0.137,4.486,0.514,5.826c0.699,1.734,1.568,3.481,1.285,5.14c-2.381,2.124-2.57,2.055-3.6,2.827
		c-1.027,0.521-2.055-0.346-3.082-1.713c0.779-0.859,1.977-1.789,2.217-2.724c-1.885-1.6-3.699-3.427-5.283-5.176
		c-0.062,1.498-0.176,3.08-0.619,4.73c-0.662,2.181-0.248,3.365,0.086,4.626c-0.074,1.408-1.355,2.01-2.312,2.827
		c-1.319,0.215-1.655-0.392-2.056-0.94l-1.627-8.14c-1.98-3.308-3.442-2.154-5.057-2.313c-1.309,0.908-3.037,1.734-5.139,2.484
		c-1.305,0.826-1.674,1.853-1.886,2.912c-3.347,1.857-4.972,3.653-7.001,5.508c-0.964-0.053-1.668-0.254-2.079-0.625
		c-0.719-0.293-0.553-0.85-0.514-1.369l1.499-4.819c0.212-1.05,0.286-2.099,0.642-3.149c0.729-2.199,2.372-3.627,4.112-4.969
		l4.455-4.026c2.287-2.353,5.307-6.21,7.299-7.382C32.303,8.961,34.986,9.655,38.052,9.998z"/>
	<path id="path3722" fill="#FFFFFF" stroke="#737F98" stroke-width="0.9081" stroke-linecap="round" stroke-linejoin="round" d="
		M40.825,19.942c0.049,0.054,0.188,0.202,0.176,0.293c-0.006,0.057-0.045,0.031-0.076,0.048c-0.006,0.003-0.006,0.014-0.01,0.021
		c0,0.065,0,0.135,0.016,0.199c0.004,0.021,0.016,0.039,0.02,0.059c0.025,0.072,0.02,0.057,0.027,0.135
		c0.02,0.056,0.031,0.111,0.033,0.17c0,0.025-0.004,0.049-0.004,0.072c0.004,0.029,0.018,0.062,0.027,0.09
		c0.023,0.045-0.004,0.095,0.004,0.143c0,0.016,0.023,0.076,0.029,0.092c0.035,0.053-0.01,0.12,0.002,0.172
		c0.002,0.01,0.012,0.018,0.016,0.027c0.037,0.059,0.035,0.127,0.025,0.193c-0.002,0.013-0.006,0.023-0.004,0.035
		c0.002,0.009,0.008,0.014,0.014,0.021c0.051,0.082,0.021,0.184,0.02,0.275c0.014,0.064,0.039,0.129,0.045,0.195
		c0.006,0.062-0.004,0.127-0.008,0.189c-0.002,0.019,0,0.037-0.004,0.057c-0.002,0.02-0.012,0.039-0.016,0.061
		c-0.008,0.02-0.014,0.041-0.018,0.062c-0.031,0.175,0.01-0.024-0.006,0.122c-0.002,0.021-0.01,0.041-0.014,0.061
		c-0.006,0.021-0.01,0.041-0.014,0.062s-0.004,0.045-0.008,0.067c-0.023,0.122-0.012,0-0.033,0.114
		c-0.006,0.048-0.004,0.08-0.002,0.129c-0.018,0.051-0.018,0.109-0.035,0.16c-0.004,0.014-0.014,0.025-0.018,0.04
		c-0.016,0.036-0.023,0.073-0.037,0.109c-0.027,0.054-0.012,0.095-0.016,0.145c-0.004,0.036-0.02,0.069-0.025,0.105
		c-0.004,0.022-0.006,0.044-0.008,0.065c0,0.023,0.002,0.049,0,0.072c-0.004,0.02-0.025,0.098-0.029,0.119
		c-0.025,0.133,0.01-0.017-0.008,0.126c-0.002,0.021-0.008,0.04-0.014,0.06c-0.041,0.162,0.012-0.055-0.02,0.117
		c-0.01,0.043-0.025,0.084-0.033,0.128s-0.004,0.069-0.002,0.114c0.008,0.109,0.01,0.222,0.008,0.332h-0.035l0,0
		c0-0.109,0-0.221-0.008-0.331c-0.002-0.051-0.006-0.073,0.004-0.124c0.006-0.042,0.021-0.082,0.031-0.123
		c0.031-0.176-0.018,0.034,0.02-0.122c0.004-0.017,0.012-0.032,0.016-0.052c0.016-0.149-0.02,0.006,0.006-0.135
		c0.008-0.037,0.023-0.072,0.027-0.11c0.006-0.024,0.002-0.051,0.002-0.076c0.004-0.024,0.006-0.048,0.008-0.07
		c0.006-0.032,0.021-0.063,0.025-0.095c0.002-0.018-0.004-0.035-0.004-0.053c0-0.043,0.01-0.062,0.02-0.105
		c0.014-0.037,0.023-0.076,0.039-0.113c0.004-0.011,0.014-0.02,0.018-0.03c0.016-0.049,0.016-0.104,0.033-0.154
		c-0.002-0.054-0.004-0.084,0.004-0.138c0.031-0.188-0.002,0.068,0.031-0.109c0.004-0.023,0.004-0.048,0.008-0.072
		c0.006-0.02,0.01-0.041,0.016-0.062c0.002-0.017,0.01-0.034,0.012-0.051c0.016-0.15-0.025,0.046,0.008-0.131
		c0.006-0.04,0.027-0.076,0.033-0.115c0.002-0.019,0-0.037,0.002-0.057c0.006-0.059,0.016-0.12,0.008-0.18
		c-0.006-0.068-0.033-0.136-0.045-0.203c0.004-0.086,0.031-0.182-0.016-0.259c-0.006-0.014-0.016-0.026-0.018-0.04
		c0-0.012,0.004-0.023,0.006-0.034c0.008-0.061,0.01-0.122-0.021-0.176c-0.008-0.016-0.018-0.029-0.02-0.046
		c-0.012-0.05,0.029-0.106,0.002-0.156c-0.014-0.03-0.031-0.076-0.037-0.107c-0.004-0.043,0.02-0.086,0-0.128
		c-0.012-0.035-0.023-0.063-0.025-0.103c-0.004-0.023,0-0.046,0-0.068c0-0.059-0.014-0.113-0.031-0.17
		c-0.008-0.072,0-0.055-0.025-0.126c-0.008-0.022-0.018-0.043-0.021-0.066c-0.018-0.071-0.02-0.151-0.01-0.225
		c0.012-0.012,0.02-0.026,0.033-0.034c0.016-0.008,0.047,0.011,0.049-0.005c0.006-0.095-0.123-0.227-0.174-0.284L40.825,19.942
		L40.825,19.942z"/>
	<path id="path3724" fill="#FFFFFF" stroke="#737F98" stroke-width="0.9081" stroke-linecap="round" stroke-linejoin="round" d="
		M37.012,20.277c0.041,0.099,0.021,0.227,0.086,0.317c0.023,0.034,0.027,0.019,0.059,0.045c0.008,0.009,0.016,0.019,0.023,0.028
		c0.008,0.017,0.018,0.034,0.021,0.053c0.006,0.019,0.008,0.039,0.012,0.057c0.016,0.069,0.045,0.148,0.084,0.207
		c0.01,0.014,0.023,0.023,0.039,0.033c0.049,0.043-0.008-0.014,0.027,0.065c0.002,0.007,0.014,0.009,0.021,0.013
		c0.008,0.016,0.02,0.029,0.025,0.047c0.041,0.113-0.016,0.035,0.045,0.107c0.037,0.033,0.066,0.072,0.076,0.121
		c0.002,0.016-0.004,0.031,0,0.047c0.006,0.011,0.018,0.018,0.025,0.026c0.008,0.011,0.018,0.021,0.027,0.032
		c0.031,0.051,0.061,0.101,0.104,0.145c0.016,0.018,0.036,0.033,0.05,0.051c0.031,0.033,0.053,0.072,0.082,0.107
		c0.037,0.057,0.068,0.117,0.115,0.164c0.01,0.01,0.023,0.016,0.031,0.028c0.016,0.024,0.021,0.054,0.037,0.078
		c0.029,0.063,0.102,0.092,0.139,0.153c0.066,0.115-0.018,0.025,0.053,0.096c0.01,0.016,0.018,0.029,0.027,0.045
		c0.012,0.006,0.025,0.008,0.035,0.018c0.033,0.037,0.012,0.041,0.029,0.072c0.006,0.008,0.014,0.012,0.018,0.02
		c0.008,0.016,0.014,0.033,0.018,0.052c0.014,0.009,0.025,0.017,0.035,0.026c0.016,0.015,0.021,0.035,0.037,0.049
		c0.027,0.026,0.074,0.031,0.105,0.047c0.045,0.021,0.045,0.027,0.076,0.062c0.041,0.043,0.078,0.121,0.125,0.154
		c0.055,0.037,0.062-0.014,0.1,0.059c0.012,0.059-0.002,0.018,0.043,0.085c0.014,0.019,0.021,0.041,0.037,0.06
		c0.041,0.049,0.104,0.07,0.156,0.106c0.023,0.024,0.068,0.07,0.086,0.099c0.016,0.025,0.014,0.045,0.035,0.062
		c0.016,0.014,0.035,0.021,0.053,0.033c0.014,0.012,0.029,0.021,0.039,0.034c0.039,0.044,0.076,0.103,0.117,0.146
		c0.008,0.01,0.02,0.017,0.029,0.023c0.012,0.014,0.025,0.027,0.037,0.041c0.004,0.009,0.018,0.057,0.035,0.066
		c0.01,0.008,0.025,0.009,0.037,0.016c0.014,0.007,0.025,0.018,0.039,0.027c0.016,0.01,0.035,0.018,0.047,0.031
		s0.014,0.031,0.02,0.047c0.016,0.037-0.006,0.078,0.02,0.111c0.014,0.017,0.033,0.029,0.047,0.047
		c0.088,0.115-0.002,0.034,0.094,0.11c0.035,0.021,0.057,0.059,0.09,0.083c0.008,0.008,0.02,0.009,0.029,0.016
		c0.031,0.025,0.074,0.072,0.102,0.104c0.062,0.042,0.062,0.125,0.1,0.186c0.01,0.012,0.021,0.02,0.031,0.031
		c0.01,0.015,0.016,0.03,0.025,0.045c0.043,0.016,0.072,0.061,0.092,0.103c0.006,0.016,0.006,0.032,0.014,0.046
		s0.021,0.021,0.031,0.031c0.01,0.012,0.018,0.023,0.027,0.035c0.035,0.026,0.086,0.058,0.105,0.1
		c0.004,0.011,0.027,0.126,0.029,0.131c0.006,0.02,0.016,0.039,0.023,0.059c0.08-0.066,0,0.066,0.027,0.074
		c0.002,0-0.002-0.008-0.004-0.011c0.01,0.013,0.021,0.026,0.029,0.04c0.02,0.035,0.023,0.057,0.037,0.095
		c0.006,0.007,0.016,0.013,0.02,0.021c0.006,0.013,0.012,0.027,0.016,0.041c0.012,0.021,0.043,0.079,0.051,0.096l-0.029,0.016l0,0
		c-0.031-0.055-0.053-0.114-0.092-0.164c-0.004-0.016-0.008-0.031-0.016-0.047c-0.006-0.016-0.016-0.029-0.021-0.047
		c0-0.006,0.012-0.012,0.006-0.017c-0.006-0.008-0.02-0.004-0.029-0.01c-0.021-0.015,0.018-0.082-0.025-0.074
		c-0.01-0.022-0.021-0.043-0.027-0.065c-0.008-0.023-0.01-0.047-0.016-0.07c-0.004-0.016-0.002-0.032-0.008-0.045
		c-0.018-0.043-0.07-0.074-0.104-0.1c-0.021-0.026-0.049-0.05-0.064-0.08c-0.006-0.011-0.006-0.025-0.012-0.037
		c-0.02-0.047-0.049-0.082-0.094-0.105c-0.064-0.129,0.043,0.075-0.059-0.078c-0.035-0.059-0.031-0.137-0.096-0.176
		c-0.062-0.08,0.004-0.004-0.062-0.065c-0.01-0.009-0.016-0.021-0.025-0.03c-0.014-0.009-0.025-0.012-0.037-0.02
		c-0.033-0.025-0.053-0.062-0.088-0.083c-0.111-0.093-0.01,0.003-0.096-0.113c-0.018-0.021-0.041-0.036-0.055-0.058
		c-0.023-0.035-0.01-0.073-0.02-0.112c-0.002-0.009,0-0.021-0.006-0.029c-0.053-0.058-0.15-0.058-0.166-0.146
		c-0.01-0.013-0.02-0.023-0.031-0.036c-0.014-0.01-0.025-0.018-0.037-0.029c-0.014-0.014-0.021-0.031-0.033-0.047
		c-0.014-0.015-0.027-0.026-0.041-0.041c-0.014-0.018-0.021-0.037-0.037-0.055c-0.01-0.012-0.023-0.02-0.037-0.031
		c-0.02-0.014-0.043-0.023-0.061-0.041c-0.029-0.026-0.012-0.025-0.033-0.062c-0.018-0.024-0.061-0.07-0.08-0.092
		c-0.057-0.041-0.121-0.062-0.168-0.117c-0.014-0.018-0.021-0.039-0.035-0.058c-0.047-0.075-0.035-0.036-0.047-0.095
		c0.008-0.02,0.008-0.009-0.029-0.021c-0.02-0.008-0.043-0.011-0.061-0.023c-0.051-0.033-0.086-0.111-0.129-0.156
		c-0.045-0.056-0.064-0.046-0.129-0.077c-0.076-0.036-0.035-0.022-0.082-0.077c-0.016-0.016-0.031-0.027-0.047-0.041
		c-0.027-0.089,0.006,0-0.035-0.071c-0.006-0.008-0.008-0.018-0.01-0.026c-0.002-0.01,0.002-0.021-0.004-0.028
		c-0.109-0.115-0.006,0.048-0.072-0.069c-0.104-0.115,0.018,0.033-0.055-0.096c-0.037-0.063-0.113-0.092-0.145-0.159
		c-0.004-0.011-0.014-0.021-0.016-0.032c-0.004-0.012-0.004-0.027-0.012-0.037c-0.008-0.014-0.023-0.02-0.033-0.031
		c-0.047-0.049-0.082-0.107-0.117-0.166c-0.025-0.033-0.051-0.071-0.079-0.104c-0.057-0.064-0.119-0.115-0.158-0.198
		c-0.016-0.019-0.051-0.06-0.059-0.081c-0.004-0.012,0.002-0.023,0.002-0.035c-0.01-0.047-0.037-0.08-0.07-0.11
		c-0.072-0.1-0.014-0.001-0.047-0.111c-0.033-0.095-0.012,0.019-0.053-0.075c-0.027-0.061,0.055,0.021-0.018-0.041
		c-0.014-0.016-0.033-0.027-0.045-0.044c-0.064-0.094-0.078-0.208-0.113-0.312c-0.025-0.033-0.064-0.043-0.088-0.08
		c-0.064-0.096-0.047-0.225-0.088-0.328H37.012L37.012,20.277z"/>
</g>
</svg>
