<?xml version="1.0" encoding="utf-8"?>
<!-- Generator: Adobe Illustrator 16.0.0, SVG Export Plug-In . SVG Version: 6.00 Build 0)  -->
<!DOCTYPE svg PUBLIC "-//W3C//DTD SVG 1.1//EN" "http://www.w3.org/Graphics/SVG/1.1/DTD/svg11.dtd">
<svg version="1.1" id="Layer_1" xmlns="http://www.w3.org/2000/svg" xmlns:xlink="http://www.w3.org/1999/xlink" x="0px" y="0px"
	 width="64px" height="64px" viewBox="-0.5 -0.5 64 64" enable-background="new -0.5 -0.5 64 64" xml:space="preserve">
<circle fill="#FFFFFF" cx="31.328" cy="31.516" r="21.516"/>
<g>
	<g>
		<path fill="#DE5833" d="M50.098,31.5c0,10.272-8.326,18.599-18.598,18.599c-10.272,0-18.599-8.326-18.599-18.599
			c0-10.273,8.326-18.6,18.599-18.6C41.771,12.9,50.098,21.227,50.098,31.5z M53.5,31.5c0,12.15-9.85,22-22,22s-22-9.85-22-22
			c0-12.15,9.85-22,22-22S53.5,19.35,53.5,31.5z M51.797,31.5c0-11.21-9.088-20.295-20.297-20.295
			c-11.21,0-20.295,9.085-20.295,20.295c0,11.208,9.085,20.296,20.295,20.296C42.709,51.796,51.797,42.708,51.797,31.5z"/>
		<g>
			<g>
				<g>
					<g>
						<g>
							<g>
								<defs>
									<path id="SVGID_1_" d="M50.344,31.499c0,10.391-8.449,18.844-18.844,18.844c-10.39,0-18.84-8.451-18.84-18.844
										c0-10.388,8.45-18.841,18.84-18.841C41.891,12.658,50.344,21.111,50.344,31.499z"/>
								</defs>
								<clipPath id="SVGID_2_">
									<use xlink:href="#SVGID_1_"  overflow="visible"/>
								</clipPath>
								<g clip-path="url(#SVGID_2_)">
									<path fill="#FFFFFF" d="M39.699,58.4c-0.641-2.948-4.367-9.632-5.781-12.458c-1.412-2.827-2.826-6.808-2.182-9.379
										c0.115-0.467-1.228-4.031-0.838-4.279c2.994-1.958,3.787,0.212,4.988-0.665c0.617-0.455,1.457,0.373,1.672-0.377
										c0.768-2.695-1.072-7.397-3.125-9.452c-0.672-0.667-1.701-1.091-2.863-1.312c-0.445-0.611-1.167-1.198-2.185-1.738
										c-1.138-0.604-3.605-1.404-4.888-1.617c-0.887-0.147-1.089,0.103-1.467,0.165c0.353,0.03,2.029,0.859,2.354,0.908
										c-0.325,0.219-1.284-0.012-1.895,0.263c-0.311,0.14-0.539,0.669-0.538,0.919c1.75-0.176,4.48-0.004,6.092,0.712
										c-1.283,0.146-3.234,0.309-4.075,0.75c-2.438,1.287-3.516,4.287-2.874,7.887c0.646,3.594,3.47,16.699,4.37,21.066
										c0.899,4.367-1.926,7.193-3.725,7.962l1.927,0.131L24.026,59.3c2.31,0.254,4.881-0.515,4.881-0.515
										c-0.513,1.411-3.982,1.929-3.982,1.929s1.67,0.512,4.368-0.518c2.697-1.027,4.367-1.67,4.367-1.67l1.285,3.34l2.441-2.438
										l1.027,2.569C38.416,62.001,40.34,61.356,39.699,58.4z"/>
									<path fill="#FFFFFF" d="M40.262,57.839c-0.639-2.953-4.367-9.635-5.781-12.461c-1.414-2.828-2.826-6.809-2.182-9.378
										c0.115-0.466,0.119-2.377,0.504-2.63c2.996-1.96,2.785-0.065,3.986-0.943c0.621-0.453,1.115-0.999,1.332-1.75
										c0.77-2.697-1.072-7.398-3.127-9.454c-0.668-0.668-1.697-1.091-2.857-1.312c-0.445-0.612-1.168-1.197-2.188-1.738
										c-1.921-1.021-4.301-1.429-6.507-1.029c0.354,0.033,1.16,0.762,1.484,0.809c-0.493,0.333-1.8,0.291-1.791,1.033
										c1.751-0.174,3.669,0.102,5.284,0.817c-1.283,0.146-2.477,0.463-3.317,0.906c-2.44,1.281-3.083,3.851-2.44,7.452
										c0.643,3.595,3.47,16.699,4.366,21.066c0.9,4.366-1.926,7.192-3.725,7.964l1.927,0.128l-0.641,1.415
										c2.311,0.256,4.881-0.514,4.881-0.514c-0.512,1.414-3.983,1.926-3.983,1.926s1.669,0.516,4.37-0.516
										c2.697-1.028,4.367-1.666,4.367-1.666l1.285,3.339l2.441-2.441l1.029,2.572C38.98,61.437,40.906,60.794,40.262,57.839z"/>
									<circle fill="#2C4E8D" cx="26.843" cy="28.343" r="1.35"/>
									<circle fill="#FFFFFF" cx="27.442" cy="27.894" r="0.35"/>
									<circle fill="#2C4E8D" cx="35.863" cy="27.543" r="1.159"/>
									<path fill="#FFFFFF" d="M36.08,27.157c0-0.164,0.133-0.3,0.295-0.3c0.172,0,0.303,0.134,0.303,0.3s-0.131,0.3-0.303,0.3
										C36.213,27.458,36.08,27.323,36.08,27.157z"/>
									
										<linearGradient id="SVGID_3_" gradientUnits="userSpaceOnUse" x1="916.1758" y1="1268.8828" x2="919.2295" y2="1268.8828" gradientTransform="matrix(1 0 0 1 -892 -1244)">
										<stop  offset="0.0056" style="stop-color:#5D7CFE"/>
										<stop  offset="0.691" style="stop-color:#192DC5"/>
									</linearGradient>
									<path fill="url(#SVGID_3_)" d="M27.229,24.435c0,0-1.02-0.46-2.006,0.16c-0.987,0.621-0.951,1.255-0.951,1.255
										s-0.524-1.17,0.874-1.741C26.545,23.536,27.229,24.435,27.229,24.435z"/>
									
										<linearGradient id="SVGID_4_" gradientUnits="userSpaceOnUse" x1="925.7773" y1="1267.9551" x2="928.5586" y2="1267.9551" gradientTransform="matrix(1 0 0 1 -892 -1244)">
										<stop  offset="0.0056" style="stop-color:#5D7CFE"/>
										<stop  offset="0.691" style="stop-color:#192DC5"/>
									</linearGradient>
									<path fill="url(#SVGID_4_)" d="M36.559,24.341c0,0-0.729-0.418-1.297-0.409c-1.164,0.017-1.484,0.53-1.484,0.53
										s0.197-1.228,1.689-0.981C36.273,23.615,36.559,24.341,36.559,24.341z"/>
								</g>
							</g>
						</g>
					</g>
				</g>
			</g>
			<path fill="#FDD204" d="M30.973,33.498c0.137-0.818,2.244-2.36,3.738-2.454c1.498-0.094,1.963-0.073,3.211-0.37
				c1.246-0.298,4.467-1.101,5.355-1.514c0.895-0.411,4.668,0.205,2.004,1.688c-1.148,0.646-4.254,1.827-6.473,2.49
				c-2.217,0.664-3.561-0.632-4.295,0.454c-0.582,0.87-0.121,2.055,2.525,2.303c3.576,0.33,7.004-1.61,7.385-0.582
				c0.379,1.032-3.074,2.321-5.176,2.361c-2.1,0.039-6.336-1.389-6.967-1.83C31.646,35.602,30.797,34.573,30.973,33.498z"/>
		</g>
	</g>
	<g>
		<path fill="#5B9E4D" d="M32.076,44.646c0,0-5.025-2.679-5.107-1.592c-0.085,1.088,0,5.526,0.585,5.863
			c0.587,0.334,4.774-2.178,4.774-2.178L32.076,44.646z"/>
		<path fill="#5B9E4D" d="M34,44.479c0,0,3.436-2.596,4.191-2.43c0.75,0.169,0.918,5.526,0.248,5.78
			c-0.67,0.249-4.6-1.361-4.6-1.361L34,44.479z"/>
		<path fill="#4D913B" d="M30.859,44.93c0,1.757-0.254,2.512,0.502,2.679c0.752,0.167,2.178,0,2.68-0.334
			c0.5-0.335,0.082-2.595-0.086-3.017C33.787,43.841,30.859,44.177,30.859,44.93z"/>
		<path fill="#5B9E4D" d="M31.178,44.54c0,1.758-0.252,2.511,0.504,2.68c0.752,0.168,2.176,0,2.678-0.336
			c0.504-0.336,0.084-2.594-0.084-3.016C34.107,43.45,31.178,43.788,31.178,44.54z"/>
	</g>
</g>
</svg>
