<?xml version="1.0" encoding="UTF-8" standalone="no"?>
<svg width="64px" height="64px" viewBox="0 0 64 64" version="1.1" xmlns="http://www.w3.org/2000/svg" xmlns:xlink="http://www.w3.org/1999/xlink" xmlns:sketch="http://www.bohemiancoding.com/sketch/ns">
    <!-- Generator: Sketch 3.3.2 (12043) - http://www.bohemiancoding.com/sketch -->
    <title>iPhone 6</title>
    <desc>Created with Sketch.</desc>
    <defs></defs>
    <g id="Page-1" stroke="none" stroke-width="1" fill="none" fill-rule="evenodd" sketch:type="MSPage">
        <g id="iPhone-6" sketch:type="MSArtboardGroup" fill="#3177BC">
            <g id="edge" sketch:type="MSLayerGroup" transform="translate(12.000000, 10.000000)">
                <g id="Page-1" sketch:type="MSShapeGroup">
                    <path d="M8.22613878,11.6537797 C2.99167889,14.9121547 0,19.5424645 0,19.5424645 C0,19.5424645 0.775239389,9.83350396 8.22613878,4.15240911 C11.1894508,1.89296959 15.2408211,0 20.6899476,0 C22.7370127,0 27.0297246,0.356151562 30.8963848,2.74006847 C34.763045,5.12398538 36.3252655,7.12088725 38.0672818,10.0444912 C38.8189691,11.3060383 39.431184,12.9267137 39.8130877,14.4900286 C40.5286263,17.4190715 40.6156378,20.9220968 40.6156378,20.9220968 L40.6156378,25.5366603 L12.9814078,25.5366603 C12.9814078,25.5366603 12.3064999,34.8210324 25.015272,34.8210324 C29.4352187,34.8210324 30.9829421,34.126679 32.4366667,33.6961858 C34.7124368,33.0222594 36.9099264,31.5200863 36.9099264,31.5200863 L36.9141147,40.7962814 C36.9141147,40.7962814 31.7128958,44 23.855224,44 C21.6424501,44 19.3105031,43.8144183 17.0615695,43.0847658 C15.0963957,42.4471774 10.980774,40.7273878 8.22613878,36.696774 C7.25172285,35.2709974 6.19585851,33.3737373 5.67289655,31.5200863 C5.1075271,29.5161209 5.11446207,27.5693211 5.11446207,26.4967688 C5.11446207,22.4853032 6.4849687,18.6553492 8.86315296,15.8866133 C11.9436172,12.3002674 15.8372019,10.7213936 15.8372019,10.7213936 C15.8372019,10.7213936 14.5689573,12.1999486 13.7888442,14.0407879 C13.0087312,15.8816273 12.7953295,17.7337351 12.7953295,17.7337351 L28.399203,17.7337351 C28.399203,17.7337351 29.311827,8.40967425 19.5699375,8.40967425 C15.8992446,8.40967425 11.3909341,9.68374071 8.22613878,11.6537797 L8.22613878,11.6537797 Z" id="Microsoft-Edge-logo"></path>
                </g>
            </g>
        </g>
    </g>
</svg>