<?xml version="1.0" encoding="utf-8"?>
<!-- Generator: Adobe Illustrator 16.0.4, SVG Export Plug-In . SVG Version: 6.00 Build 0)  -->
<!DOCTYPE svg PUBLIC "-//W3C//DTD SVG 1.1//EN" "http://www.w3.org/Graphics/SVG/1.1/DTD/svg11.dtd" [
	<!ENTITY ns_extend "http://ns.adobe.com/Extensibility/1.0/">
	<!ENTITY ns_ai "http://ns.adobe.com/AdobeIllustrator/10.0/">
	<!ENTITY ns_graphs "http://ns.adobe.com/Graphs/1.0/">
	<!ENTITY ns_vars "http://ns.adobe.com/Variables/1.0/">
	<!ENTITY ns_imrep "http://ns.adobe.com/ImageReplacement/1.0/">
	<!ENTITY ns_sfw "http://ns.adobe.com/SaveForWeb/1.0/">
	<!ENTITY ns_custom "http://ns.adobe.com/GenericCustomNamespace/1.0/">
	<!ENTITY ns_adobe_xpath "http://ns.adobe.com/XPath/1.0/">
]>
<svg version="1.1"
	 id="Layer_1" xmlns:x="&ns_extend;" xmlns:i="&ns_ai;" xmlns:graph="&ns_graphs;" xmlns:dc="http://purl.org/dc/elements/1.1/" xmlns:rdf="http://www.w3.org/1999/02/22-rdf-syntax-ns#" xmlns:inkscape="http://www.inkscape.org/namespaces/inkscape" xmlns:svg="http://www.w3.org/2000/svg" xmlns:sodipodi="http://sodipodi.sourceforge.net/DTD/sodipodi-0.dtd" xmlns:cc="http://creativecommons.org/ns#" sodipodi:docname="logo_homepage_small.normal.v103.svg" inkscape:version="0.48.4 r9939"
	 xmlns="http://www.w3.org/2000/svg" xmlns:xlink="http://www.w3.org/1999/xlink" x="0px" y="0px" width="166px" height="130px"
	 viewBox="0 0 166 130" enable-background="new 0 0 166 130" xml:space="preserve">
<metadata>
	<sfw  xmlns="&ns_sfw;">
		<slices></slices>
		<sliceSourceBounds  y="-11.298" x="-31.105" width="161.211" height="123.596" bottomLeftOrigin="true"></sliceSourceBounds>
	</sfw>
</metadata>
<g>
	<g id="g60">
		<g id="g62">
			<path id="path64" inkscape:connector-curvature="0" fill="#FFFFFF" d="M2.395,126.436V107.1H9.41c6.678,0,9.72,4.902,9.72,9.459
				c0,4.916-3.005,9.873-9.72,9.873L2.395,126.436L2.395,126.436L2.395,126.436z M4.625,124.207H9.41
				c5.174,0,7.488-3.854,7.488-7.676c0-3.513-2.344-7.287-7.488-7.287H4.625V124.207z"/>
		</g>
		<g id="g66">
			<path id="path68" inkscape:connector-curvature="0" fill="#FFFFFF" d="M27.962,126.658c-3.584,0-5.9-2.467-5.9-6.281v-7.51h2.092
				v7.481c0,2.747,1.601,4.39,4.282,4.39c2.515-0.029,4.338-1.955,4.338-4.586v-7.285h2.092v13.568h-1.899l-0.119-2.359
				l-0.324,0.406C31.394,125.898,29.859,126.631,27.962,126.658L27.962,126.658z"/>
		</g>
		<g id="g70">
			<path id="path72" inkscape:connector-curvature="0" fill="#FFFFFF" d="M45.062,126.686c-3.533,0-7.099-2.177-7.099-7.035
				c0-4.207,2.854-7.035,7.099-7.035c1.858,0,3.491,0.662,4.854,1.967l-1.314,1.365c-0.925-0.863-2.188-1.354-3.482-1.354
				c-2.966,0-5.035,2.078-5.035,5.057c0,3.496,2.514,5.059,5.008,5.059c1.402,0,2.675-0.498,3.599-1.404l1.365,1.363
				C48.679,126.008,47,126.686,45.062,126.686L45.062,126.686z"/>
		</g>
		<g id="g74">
			<polygon id="polygon76" fill="#FFFFFF" points="54.867,118.807 60.67,112.869 63.373,112.869 56.973,119.262 64.156,126.408 
				64.156,126.436 61.505,126.436 54.867,119.805 54.867,126.436 52.804,126.436 52.804,107.127 54.867,107.127 			"/>
		</g>
		<g id="g78">
			<path id="path80" inkscape:connector-curvature="0" fill="#FFFFFF" d="M66.725,126.436V107.1h7.016
				c6.679,0,9.72,4.902,9.72,9.459c0,4.916-3.003,9.873-9.72,9.873L66.725,126.436L66.725,126.436L66.725,126.436z M68.954,124.207
				h4.783c5.174,0,7.491-3.854,7.491-7.676c0-3.513-2.345-7.287-7.491-7.287h-4.783V124.207z"/>
		</g>
		<g id="g82">
			<path id="path84" inkscape:connector-curvature="0" fill="#FFFFFF" d="M92.289,126.658c-3.583,0-5.898-2.467-5.898-6.281v-7.51
				h2.092v7.481c0,2.747,1.604,4.39,4.281,4.39c2.512-0.029,4.338-1.955,4.338-4.586v-7.285h2.09v13.568h-1.897l-0.117-2.359
				l-0.321,0.406C95.721,125.898,94.189,126.631,92.289,126.658z"/>
		</g>
		<g id="g86">
			<path id="path88" inkscape:connector-curvature="0" fill="#FFFFFF" d="M109.391,126.686c-3.531,0-7.097-2.177-7.097-7.035
				c0-4.207,2.853-7.035,7.097-7.035c1.858,0,3.492,0.662,4.855,1.967l-1.314,1.365c-0.926-0.863-2.188-1.354-3.481-1.354
				c-2.968,0-5.036,2.078-5.036,5.057c0,3.496,2.518,5.059,5.007,5.059c1.403,0,2.679-0.498,3.603-1.405l1.324,1.328l-0.068,0.067
				l0.039,0.037C112.951,126.031,111.297,126.686,109.391,126.686L109.391,126.686z"/>
		</g>
		<g id="g90">
			<polygon id="polygon92" fill="#FFFFFF" points="119.197,118.807 124.996,112.869 127.704,112.869 121.305,119.262 
				128.484,126.408 128.484,126.436 125.834,126.436 119.197,119.805 119.197,126.436 117.135,126.436 117.135,107.127 
				119.197,107.127 			"/>
		</g>
		<g id="g94">
			<path id="path96" inkscape:connector-curvature="0" fill="#FFFFFF" d="M139.436,126.798c-7.44,0-10.084-5.306-10.084-9.851
				c-0.014-2.959,0.989-5.603,2.82-7.441c1.807-1.811,4.307-2.77,7.236-2.77c2.648,0,5.143,1.006,7.031,2.834l-1.266,1.469
				c-1.482-1.385-3.685-2.241-5.767-2.241c-5.396,0-7.854,4.225-7.854,8.149c0,3.858,2.442,7.762,7.907,7.762
				c1.988,0,3.845-0.682,5.356-1.975l0.067-0.061v-4.77h-6.081v-1.949h8.088v7.582C144.814,125.742,142.381,126.798,139.436,126.798
				L139.436,126.798z"/>
		</g>
		<g id="g98">
			<path id="path100" inkscape:connector-curvature="0" fill="#FFFFFF" d="M156.537,126.686c-4.081,0-7.043-2.945-7.043-7.006
				c0-4.125,2.963-7.119,7.043-7.119c4.16,0,7.068,2.928,7.068,7.119C163.605,123.74,160.633,126.686,156.537,126.686z
				 M156.562,114.453c-2.934,0-4.979,2.147-4.979,5.227c0,2.93,2.083,5.059,4.952,5.059c2.918,0,4.979-2.08,5.005-5.058
				C161.544,116.65,159.449,114.453,156.562,114.453z"/>
		</g>
	</g>
	<g id="g12">
		<g id="g14">
			<g id="g16">
				<g id="g18">
					<g id="g20">
						<g id="g22">
							<g>
								<g>
									<g>
										<g>
											<defs>
												<path id="SVGID_1_" d="M124.469,46.451c0,22.845-18.604,41.424-41.472,41.424c-22.864,0-41.465-18.582-41.465-41.424
													c0-22.84,18.601-41.422,41.465-41.422C105.865,5.029,124.469,23.61,124.469,46.451z"/>
											</defs>
											<clipPath id="SVGID_2_">
												<use xlink:href="#SVGID_1_"  overflow="visible"/>
											</clipPath>
											<g id="g30" clip-path="url(#SVGID_2_)">
												<path id="path32" inkscape:connector-curvature="0" fill="#B5B5B5" d="M99.586,106.799
													c-1.424-6.551-9.701-21.375-12.84-27.645c-3.14-6.271-6.284-15.111-4.852-20.812c0.259-1.038-2.718-8.939-1.861-9.499
													c6.656-4.339,8.415,0.473,11.081-1.474c1.377-1.006,3.237,0.828,3.715-0.836c1.707-5.981-2.379-16.412-6.938-20.972
													c-1.492-1.485-3.777-2.418-6.354-2.914c-0.993-1.354-2.592-2.657-4.857-3.856c-2.522-1.342-8.009-3.112-10.854-3.587
													c-1.974-0.323-2.419,0.229-3.263,0.365c0.787,0.069,4.511,1.908,5.237,2.018c-0.726,0.488-2.854-0.023-4.213,0.585
													c-0.685,0.308-1.197,1.483-1.192,2.04c3.887-0.393,9.951-0.014,13.532,1.579c-2.85,0.325-7.185,0.686-9.049,1.664
													c-5.419,2.854-7.812,9.516-6.387,17.498c1.428,7.965,7.706,37.041,9.703,46.75c2,9.69-4.279,15.959-8.273,17.67
													l4.28,0.287l-1.427,3.138c5.132,0.567,10.838-1.142,10.838-1.142c-1.138,3.135-8.844,4.276-8.844,4.276
													s3.711,1.136,9.701-1.146c5.994-2.276,9.703-3.705,9.703-3.705l2.854,7.408l5.426-5.41l2.279,5.699
													C96.732,114.785,101.014,113.355,99.586,106.799L99.586,106.799z"/>
												<path id="path34" inkscape:connector-curvature="0" fill="#FFFFFF" d="M101.309,105.469
													c-1.42-6.553-9.697-21.379-12.84-27.65c-3.139-6.271-6.277-15.109-4.85-20.806c0.266-1.035,0.27-5.272,1.131-5.834
													c6.654-4.345,6.184-0.146,8.85-2.091c1.379-1.004,2.479-2.218,2.959-3.884c1.713-5.985-2.377-16.413-6.938-20.973
													c-1.488-1.485-3.771-2.421-6.353-2.914c-0.99-1.358-2.588-2.658-4.852-3.858c-4.268-2.264-9.556-3.168-14.455-2.279
													c0.783,0.072,2.574,1.689,3.298,1.797c-1.093,0.739-4,0.645-3.981,2.29c3.892-0.39,8.152,0.225,11.739,1.815
													c-2.85,0.324-5.505,1.028-7.369,2.011c-5.423,2.848-6.85,8.548-5.423,16.533c1.429,7.981,7.709,37.054,9.699,46.745
													c2,9.689-4.275,15.959-8.271,17.67l4.279,0.285l-1.425,3.144c5.131,0.562,10.838-1.146,10.838-1.146
													c-1.14,3.143-8.846,4.273-8.846,4.273s3.708,1.141,9.7-1.143c5.995-2.277,9.704-3.703,9.704-3.703l2.852,7.412
													l5.426-5.416l2.285,5.701C98.463,113.451,102.742,112.023,101.309,105.469L101.309,105.469z"/>
												<path id="path36" inkscape:connector-curvature="0" fill="#2D4F8E" d="M68.507,40.021c0-1.654,1.341-2.995,2.999-2.995
													c1.655,0,2.997,1.341,2.997,2.995c0,1.656-1.342,2.996-2.997,2.996C69.848,43.016,68.507,41.678,68.507,40.021z"/>
												<path id="path38" inkscape:connector-curvature="0" fill="#FFFFFF" d="M72.058,39.024c0-0.431,0.35-0.778,0.775-0.778
													c0.43,0,0.777,0.348,0.777,0.778c0,0.429-0.348,0.777-0.777,0.777C72.407,39.804,72.058,39.454,72.058,39.024z"/>
												<path id="path40" inkscape:connector-curvature="0" fill="#2D4F8E" d="M88.963,38.246c0-1.417,1.156-2.568,2.574-2.568
													c1.426,0,2.576,1.149,2.576,2.568c0,1.423-1.152,2.575-2.576,2.575C90.117,40.821,88.963,39.669,88.963,38.246z"/>
												<path id="path42" inkscape:connector-curvature="0" fill="#FFFFFF" d="M92.016,37.391c0-0.367,0.297-0.666,0.662-0.666
													c0.377,0,0.668,0.299,0.668,0.666c0,0.37-0.291,0.665-0.668,0.665C92.312,38.056,92.016,37.762,92.016,37.391z"/>
												
													<linearGradient id="path49_1_" gradientUnits="userSpaceOnUse" x1="1567.3271" y1="2165.5449" x2="1574.1084" y2="2165.5449" gradientTransform="matrix(1 0 0 0.999 -1501.75 -2131.0339)">
													<stop  offset="0.0056" style="stop-color:#6176B9"/>
													<stop  offset="0.691" style="stop-color:#394A9F"/>
												</linearGradient>
												<path id="path49" inkscape:connector-curvature="0" fill="url(#path49_1_)" d="M72.358,31.348
													c0,0-2.259-1.021-4.456,0.357c-2.191,1.377-2.11,2.786-2.11,2.786s-1.166-2.595,1.94-3.867
													C70.845,29.351,72.358,31.348,72.358,31.348z"/>
												
													<linearGradient id="path56_1_" gradientUnits="userSpaceOnUse" x1="1588.6602" y1="2163.4785" x2="1594.834" y2="2163.4785" gradientTransform="matrix(1 0 0 0.999 -1501.75 -2131.0339)">
													<stop  offset="0.0056" style="stop-color:#6176B9"/>
													<stop  offset="0.691" style="stop-color:#394A9F"/>
												</linearGradient>
												<path id="path56" inkscape:connector-curvature="0" fill="url(#path56_1_)" d="M93.084,31.141
													c0,0-1.621-0.926-2.879-0.91c-2.588,0.034-3.295,1.176-3.295,1.176s0.434-2.724,3.746-2.178
													C92.449,29.527,93.084,31.141,93.084,31.141z"/>
											</g>
										</g>
									</g>
								</g>
							</g>
						</g>
					</g>
				</g>
			</g>
		</g>
		<path id="path58" inkscape:connector-curvature="0" fill="#FDD20A" d="M80.679,51.567c0.299-1.812,4.983-5.239,8.302-5.445
			c3.326-0.208,4.357-0.163,7.129-0.823c2.773-0.663,9.92-2.44,11.896-3.354c1.979-0.914,10.367,0.453,4.455,3.746
			c-2.561,1.431-9.453,4.058-14.381,5.526c-4.92,1.47-7.904-1.405-9.541,1.013c-1.301,1.921-0.268,4.555,5.613,5.101
			c7.943,0.735,15.561-3.573,16.396-1.284c0.844,2.289-6.824,5.145-11.494,5.235c-4.662,0.088-14.068-3.081-15.475-4.061
			C82.17,56.239,80.287,53.953,80.679,51.567L80.679,51.567z"/>
	</g>
	<g id="g102">
		<path id="path104" inkscape:connector-curvature="0" fill="#65BC46" d="M84.273,73.918c0,0-11.157-5.943-11.341-3.533
			c-0.188,2.416,0,12.261,1.302,13.006c1.303,0.74,10.602-4.83,10.602-4.83L84.273,73.918L84.273,73.918z"/>
		<path id="path106" inkscape:connector-curvature="0" fill="#65BC46" d="M88.549,73.543c0,0,7.623-5.76,9.303-5.387
			c1.67,0.377,2.043,12.26,0.553,12.821c-1.487,0.552-10.215-3.016-10.215-3.016L88.549,73.543z"/>
		<path id="path108" inkscape:connector-curvature="0" fill="#43A244" d="M81.571,74.549c0,3.898-0.56,5.57,1.115,5.941
			c1.675,0.375,4.835,0,5.95-0.74c1.115-0.746,0.184-5.758-0.186-6.694C88.078,72.131,81.571,72.877,81.571,74.549L81.571,74.549z"
			/>
		<path id="path110" inkscape:connector-curvature="0" fill="#65BC46" d="M82.282,73.683c0,3.899-0.561,5.571,1.115,5.944
			c1.671,0.373,4.833,0,5.948-0.744c1.117-0.744,0.188-5.754-0.186-6.691C88.785,71.264,82.282,72.012,82.282,73.683z"/>
	</g>
	<circle fill="none" stroke="#FFFFFF" stroke-width="3" stroke-miterlimit="10" cx="83" cy="46.453" r="41.75"/>
</g>
</svg>
