<?xml version="1.0" encoding="utf-8"?>
<!-- Generator: Adobe Illustrator 16.0.4, SVG Export Plug-In . SVG Version: 6.00 Build 0)  -->
<!DOCTYPE svg PUBLIC "-//W3C//DTD SVG 1.1//EN" "http://www.w3.org/Graphics/SVG/1.1/DTD/svg11.dtd">
<svg version="1.1" id="Layer_1" xmlns="http://www.w3.org/2000/svg" xmlns:xlink="http://www.w3.org/1999/xlink" x="0px" y="0px"
	 width="60px" height="60px" viewBox="0 0 60 60" enable-background="new 0 0 60 60" xml:space="preserve">
<g>
	<g>
		<g>
			<g>
				<g>
					<g>
						<g>
							<g>
								<g>
									<defs>
										<path id="SVGID_1_" d="M50.127,29.999c0,11.099-9.025,20.128-20.127,20.128c-11.099,0-20.125-9.027-20.125-20.128
											C9.875,18.902,18.902,9.874,30,9.874C41.1,9.874,50.127,18.902,50.127,29.999z"/>
									</defs>
									<clipPath id="SVGID_2_">
										<use xlink:href="#SVGID_1_"  overflow="visible"/>
									</clipPath>
									<g clip-path="url(#SVGID_2_)">
										<path fill="#FFFFFF" d="M38.758,58.734c-0.684-3.15-4.666-10.289-6.176-13.31s-3.02-7.272-2.332-10.018
											c0.123-0.5-1.309-4.308-0.895-4.572c3.2-2.091,4.043,0.229,5.329-0.709c0.657-0.484,1.557,0.396,1.787-0.402
											c0.819-2.881-1.146-7.902-3.341-10.097c-0.717-0.714-1.815-1.165-3.057-1.403c-0.477-0.652-1.246-1.279-2.334-1.855
											c-1.215-0.646-3.854-1.5-5.221-1.728c-0.947-0.157-1.163,0.109-1.566,0.177c0.375,0.033,2.168,0.918,2.516,0.969
											c-0.348,0.234-1.373-0.012-2.025,0.281c-0.33,0.148-0.576,0.715-0.574,0.982c1.868-0.188,4.785-0.005,6.508,0.76
											c-1.373,0.156-3.457,0.329-4.354,0.801c-2.605,1.375-3.756,4.58-3.07,8.424c0.688,3.84,3.707,17.838,4.668,22.501
											c0.961,4.667-2.061,7.687-3.979,8.507l2.058,0.143l-0.685,1.51c2.468,0.271,5.214-0.549,5.214-0.549
											c-0.547,1.508-4.255,2.062-4.255,2.062s1.784,0.545,4.667-0.554c2.88-1.098,4.664-1.782,4.664-1.782l1.373,3.565
											l2.607-2.604l1.098,2.744C37.387,62.58,39.443,61.893,38.758,58.734z"/>
										<path fill="#FFFFFF" d="M39.359,58.133c-0.687-3.154-4.666-10.291-6.178-13.311c-1.511-3.021-3.021-7.271-2.332-10.016
											c0.125-0.498,0.131-2.539,0.543-2.812c3.198-2.094,2.975-0.07,4.258-1.009c0.662-0.483,1.188-1.065,1.424-1.868
											c0.82-2.881-1.148-7.901-3.342-10.098c-0.715-0.715-1.814-1.164-3.053-1.4c-0.479-0.655-1.249-1.28-2.337-1.859
											c-2.053-1.09-4.596-1.525-6.952-1.1c0.377,0.036,1.239,0.814,1.586,0.865c-0.526,0.356-1.923,0.311-1.914,1.103
											c1.871-0.185,3.92,0.11,5.646,0.874c-1.371,0.156-2.647,0.496-3.543,0.969c-2.608,1.369-3.293,4.113-2.608,7.959
											c0.688,3.842,3.708,17.838,4.665,22.502c0.961,4.664-2.057,7.684-3.979,8.508l2.059,0.137l-0.686,1.512
											c2.469,0.273,5.215-0.551,5.215-0.551c-0.547,1.512-4.256,2.061-4.256,2.061s1.783,0.551,4.666-0.553
											c2.885-1.098,4.666-1.777,4.666-1.777l1.373,3.564l2.609-2.605l1.098,2.746C37.988,61.977,40.047,61.289,39.359,58.133z"
											/>
										<circle fill="#2C4E8D" cx="25.025" cy="26.628" r="1.442"/>
										<circle fill="#FFFFFF" cx="25.664" cy="26.147" r="0.374"/>
										<circle fill="#2C4E8D" cx="34.66" cy="25.773" r="1.238"/>
										<path fill="#FFFFFF" d="M34.889,25.361c0-0.176,0.146-0.322,0.318-0.322c0.182,0,0.322,0.145,0.322,0.322
											c0,0.177-0.141,0.32-0.322,0.32C35.035,25.682,34.889,25.539,34.889,25.361z"/>
										
											<linearGradient id="SVGID_3_" gradientUnits="userSpaceOnUse" x1="974.1758" y1="-1807.9326" x2="977.4375" y2="-1807.9326" gradientTransform="matrix(1 0 0 -1 -952 -1785)">
											<stop  offset="0.0056" style="stop-color:#5D7CFE"/>
											<stop  offset="0.691" style="stop-color:#192DC5"/>
										</linearGradient>
										<path fill="url(#SVGID_3_)" d="M25.438,22.453c0,0-1.088-0.492-2.143,0.171c-1.055,0.663-1.016,1.34-1.016,1.34
											s-0.561-1.248,0.934-1.858C24.707,21.492,25.438,22.453,25.438,22.453z"/>
										
											<linearGradient id="SVGID_4_" gradientUnits="userSpaceOnUse" x1="984.4336" y1="-1806.9404" x2="987.4043" y2="-1806.9404" gradientTransform="matrix(1 0 0 -1 -952 -1785)">
											<stop  offset="0.0056" style="stop-color:#5D7CFE"/>
											<stop  offset="0.691" style="stop-color:#192DC5"/>
										</linearGradient>
										<path fill="url(#SVGID_4_)" d="M35.404,22.353c0,0-0.781-0.446-1.387-0.437c-1.244,0.018-1.584,0.566-1.584,0.566
											s0.209-1.312,1.801-1.049C35.098,21.577,35.404,22.353,35.404,22.353z"/>
									</g>
								</g>
							</g>
						</g>
					</g>
				</g>
			</g>
			<path fill="#FDD204" d="M29.438,32.135c0.145-0.875,2.396-2.521,3.992-2.622c1.6-0.101,2.096-0.077,3.43-0.396
				c1.332-0.318,4.771-1.174,5.724-1.615c0.953-0.439,4.983,0.217,2.144,1.803c-1.23,0.689-4.545,1.953-6.916,2.66
				c-2.369,0.709-3.806-0.676-4.59,0.486c-0.621,0.928-0.13,2.193,2.698,2.459c3.817,0.354,7.479-1.721,7.89-0.621
				c0.401,1.102-3.283,2.479-5.531,2.521c-2.24,0.041-6.769-1.484-7.439-1.955C30.156,34.381,29.248,33.283,29.438,32.135z"/>
		</g>
	</g>
	<g>
		<path fill="#65BC46" d="M30.613,44.043c0,0-5.367-2.863-5.453-1.701c-0.092,1.162,0,5.902,0.624,6.262
			c0.628,0.357,5.099-2.324,5.099-2.324L30.613,44.043z"/>
		<path fill="#65BC46" d="M32.67,43.863c0,0,3.67-2.773,4.477-2.596c0.806,0.181,0.982,5.901,0.267,6.176
			C36.697,47.709,32.5,45.99,32.5,45.99L32.67,43.863z"/>
		<path fill="#4D913B" d="M29.314,44.346c0,1.877-0.271,2.684,0.537,2.861c0.805,0.18,2.322,0,2.861-0.357
			c0.535-0.356,0.088-2.771-0.092-3.223C32.443,43.182,29.314,43.541,29.314,44.346z"/>
		<path fill="#65BC46" d="M29.656,43.93c0,1.877-0.27,2.682,0.537,2.861c0.803,0.18,2.325,0,2.859-0.357
			c0.537-0.358,0.091-2.771-0.09-3.223C32.785,42.766,29.656,43.125,29.656,43.93z"/>
	</g>
</g>
<g>
	<path fill="#FFFFFF" d="M30.002,10.32c10.851,0,19.678,8.828,19.678,19.68s-8.827,19.68-19.678,19.68
		c-10.852,0-19.68-8.828-19.68-19.68S19.15,10.32,30.002,10.32 M30.002,8.32c-11.975,0-21.68,9.705-21.68,21.68
		c0,11.973,9.706,21.68,21.68,21.68c11.973,0,21.678-9.707,21.678-21.68C51.68,18.025,41.975,8.32,30.002,8.32L30.002,8.32z"/>
</g>
</svg>
