<?xml version="1.0" encoding="utf-8"?>
<!-- Generator: Adobe Illustrator 16.0.4, SVG Export Plug-In . SVG Version: 6.00 Build 0)  -->
<!DOCTYPE svg PUBLIC "-//W3C//DTD SVG 1.1//EN" "http://www.w3.org/Graphics/SVG/1.1/DTD/svg11.dtd">
<svg version="1.1" id="Layer_1" xmlns="http://www.w3.org/2000/svg" xmlns:xlink="http://www.w3.org/1999/xlink" x="0px" y="0px"
	 width="50px" height="50px" viewBox="0 0 50 50" enable-background="new 0 0 50 50" xml:space="preserve">
<g>
	<g>
		<g>
			<g>
				<g>
					<g>
						<g>
							<g>
								<g>
									<defs>
										<path id="SVGID_1_" d="M43.201,24.999C43.201,35.035,35.039,43.2,25,43.2c-10.036,0-18.197-8.163-18.197-18.201
											C6.803,14.965,14.965,6.801,25,6.801C35.037,6.801,43.201,14.965,43.201,24.999z"/>
									</defs>
									<clipPath id="SVGID_2_">
										<use xlink:href="#SVGID_1_"  overflow="visible"/>
									</clipPath>
									<g clip-path="url(#SVGID_2_)">
										<path fill="#FFFFFF" d="M32.92,50.982c-0.619-2.849-4.22-9.303-5.585-12.033c-1.364-2.73-2.73-6.576-2.109-9.059
											c0.112-0.453-1.183-3.896-0.809-4.136c2.894-1.891,3.657,0.207,4.817-0.642c0.597-0.438,1.408,0.358,1.617-0.363
											c0.74-2.605-1.037-7.146-3.021-9.13c-0.646-0.646-1.643-1.054-2.764-1.27c-0.431-0.589-1.126-1.156-2.11-1.678
											c-1.099-0.584-3.483-1.356-4.72-1.562c-0.856-0.143-1.052,0.099-1.417,0.159c0.34,0.03,1.96,0.83,2.275,0.876
											c-0.315,0.212-1.242-0.011-1.832,0.255c-0.299,0.135-0.521,0.646-0.52,0.888c1.69-0.169,4.327-0.004,5.885,0.688
											c-1.241,0.142-3.125,0.298-3.936,0.724c-2.355,1.244-3.396,4.142-2.776,7.618c0.622,3.472,3.351,16.13,4.22,20.347
											c0.869,4.22-1.862,6.95-3.598,7.692l1.861,0.129l-0.619,1.365c2.231,0.242,4.714-0.498,4.714-0.498
											c-0.494,1.364-3.847,1.863-3.847,1.863s1.614,0.493,4.22-0.499c2.605-0.993,4.217-1.612,4.217-1.612l1.242,3.226
											l2.356-2.356l0.993,2.481C31.68,54.461,33.539,53.839,32.92,50.982z"/>
										<path fill="#FFFFFF" d="M33.463,50.439c-0.619-2.854-4.219-9.307-5.586-12.037c-1.363-2.731-2.729-6.574-2.107-9.057
											c0.113-0.449,0.117-2.296,0.49-2.541c2.893-1.895,2.689-0.063,3.85-0.912c0.6-0.438,1.076-0.964,1.287-1.688
											c0.742-2.605-1.037-7.146-3.021-9.132c-0.646-0.646-1.64-1.053-2.76-1.267c-0.433-0.592-1.129-1.157-2.113-1.681
											c-1.855-0.985-4.156-1.38-6.286-0.994c0.341,0.032,1.121,0.736,1.434,0.782c-0.476,0.322-1.739,0.281-1.731,0.997
											c1.692-0.167,3.545,0.1,5.105,0.79c-1.241,0.142-2.395,0.448-3.205,0.876c-2.358,1.238-2.978,3.72-2.358,7.197
											c0.623,3.474,3.353,16.13,4.218,20.348c0.869,4.217-1.86,6.946-3.597,7.692l1.861,0.123l-0.62,1.367
											c2.232,0.247,4.715-0.498,4.715-0.498c-0.495,1.367-3.848,1.863-3.848,1.863s1.612,0.498,4.219-0.5
											c2.607-0.992,4.22-1.607,4.22-1.607l1.24,3.225l2.358-2.355l0.994,2.482C32.225,53.915,34.085,53.293,33.463,50.439z"/>
										<circle fill="#2C4E8D" cx="20.501" cy="21.951" r="1.304"/>
										<circle fill="#FFFFFF" cx="21.08" cy="21.516" r="0.338"/>
										<circle fill="#2C4E8D" cx="29.214" cy="21.178" r="1.119"/>
										<path fill="#FFFFFF" d="M29.422,20.806c0-0.159,0.133-0.291,0.287-0.291c0.164,0,0.291,0.13,0.291,0.291
											c0,0.16-0.127,0.289-0.291,0.289C29.553,21.095,29.422,20.966,29.422,20.806z"/>
										
											<linearGradient id="SVGID_3_" gradientUnits="userSpaceOnUse" x1="969.9258" y1="-1813.6094" x2="972.875" y2="-1813.6094" gradientTransform="matrix(1 0 0 -1 -952 -1795)">
											<stop  offset="0.0056" style="stop-color:#5D7CFE"/>
											<stop  offset="0.691" style="stop-color:#192DC5"/>
										</linearGradient>
										<path fill="url(#SVGID_3_)" d="M20.875,18.176c0,0-0.983-0.445-1.938,0.154c-0.954,0.6-0.918,1.212-0.918,1.212
											s-0.507-1.129,0.844-1.681C20.215,17.307,20.875,18.176,20.875,18.176z"/>
										
											<linearGradient id="SVGID_4_" gradientUnits="userSpaceOnUse" x1="979.2012" y1="-1812.7119" x2="981.8867" y2="-1812.7119" gradientTransform="matrix(1 0 0 -1 -952 -1795)">
											<stop  offset="0.0056" style="stop-color:#5D7CFE"/>
											<stop  offset="0.691" style="stop-color:#192DC5"/>
										</linearGradient>
										<path fill="url(#SVGID_4_)" d="M29.887,18.085c0,0-0.705-0.403-1.254-0.396c-1.125,0.017-1.432,0.513-1.432,0.513
											s0.188-1.187,1.629-0.948C29.609,17.384,29.887,18.085,29.887,18.085z"/>
									</g>
								</g>
							</g>
						</g>
					</g>
				</g>
			</g>
			<path fill="#FDD204" d="M24.491,26.932c0.131-0.793,2.167-2.281,3.61-2.372c1.445-0.092,1.895-0.07,3.102-0.357
				c1.204-0.288,4.314-1.062,5.174-1.461c0.861-0.397,4.508,0.196,1.938,1.63c-1.11,0.624-4.108,1.767-6.254,2.405
				c-2.141,0.642-3.438-0.61-4.149,0.439c-0.562,0.84-0.115,1.983,2.44,2.225c3.453,0.318,6.765-1.558,7.133-0.562
				c0.365,0.996-2.969,2.241-5,2.28c-2.026,0.036-6.121-1.343-6.729-1.769C25.141,28.961,24.321,27.969,24.491,26.932z"/>
		</g>
	</g>
	<g>
		<path fill="#65BC46" d="M25.555,37.698c0,0-4.853-2.589-4.931-1.538c-0.083,1.051,0,5.337,0.565,5.662
			c0.567,0.322,4.61-2.102,4.61-2.102L25.555,37.698z"/>
		<path fill="#65BC46" d="M27.415,37.536c0,0,3.317-2.509,4.048-2.349c0.727,0.164,0.889,5.338,0.24,5.586
			c-0.646,0.24-4.442-1.314-4.442-1.314L27.415,37.536z"/>
		<path fill="#4D913B" d="M24.38,37.973c0,1.696-0.245,2.426,0.486,2.588c0.728,0.162,2.101,0,2.587-0.324
			c0.484-0.322,0.08-2.506-0.082-2.913C27.209,36.92,24.38,37.244,24.38,37.973z"/>
		<path fill="#65BC46" d="M24.689,37.596c0,1.697-0.244,2.426,0.486,2.588c0.728,0.162,2.103,0,2.587-0.322
			c0.485-0.325,0.08-2.508-0.082-2.914C27.52,36.543,24.689,36.868,24.689,37.596z"/>
	</g>
</g>
<g>
	<path fill="#FFFFFF" d="M25.002,7.097c9.872,0,17.903,8.032,17.903,17.904c0,9.872-8.031,17.903-17.903,17.903
		C15.13,42.903,7.099,34.872,7.099,25C7.099,15.128,15.13,7.097,25.002,7.097 M25.002,5.396C14.174,5.396,5.398,14.172,5.398,25
		c0,10.826,8.776,19.603,19.604,19.603c10.826,0,19.603-8.777,19.603-19.603C44.605,14.172,35.83,5.396,25.002,5.396L25.002,5.396z"
		/>
</g>
</svg>
