<?xml version="1.0" encoding="utf-8"?>
<!-- Generator: Adobe Illustrator 16.0.0, SVG Export Plug-In . SVG Version: 6.00 Build 0)  -->
<!DOCTYPE svg PUBLIC "-//W3C//DTD SVG 1.1//EN" "http://www.w3.org/Graphics/SVG/1.1/DTD/svg11.dtd">
<svg version="1.1"
	 id="Layer_1" xmlns:svg="http://www.w3.org/2000/svg" xmlns:rdf="http://www.w3.org/1999/02/22-rdf-syntax-ns#" xmlns:inkscape="http://www.inkscape.org/namespaces/inkscape" xmlns:cc="http://creativecommons.org/ns#" xmlns:sodipodi="http://sodipodi.sourceforge.net/DTD/sodipodi-0.dtd" xmlns:dc="http://purl.org/dc/elements/1.1/" inkscape:version="0.48.4 r9939" sodipodi:docname="logo_homepage_small.normal.v103.svg"
	 xmlns="http://www.w3.org/2000/svg" xmlns:xlink="http://www.w3.org/1999/xlink" x="0px" y="0px" width="166px" height="130px"
	 viewBox="0 0 166 130" enable-background="new 0 0 166 130" xml:space="preserve">
<g>
	<circle fill="#DE5833" cx="83.001" cy="48.507" r="40.5"/>
	<circle fill="none" stroke="#DE5833" stroke-width="3.9" stroke-miterlimit="10" cx="83" cy="48.507" r="45.3"/>
	<g id="g60">
		<g id="g62">
			<path id="path64" inkscape:connector-curvature="0" fill="#4C4C4C" d="M2.395,128.381v-19.336H9.41
				c6.678,0,9.72,4.902,9.72,9.459c0,4.916-3.005,9.873-9.72,9.873L2.395,128.381L2.395,128.381L2.395,128.381z M4.625,126.152H9.41
				c5.174,0,7.488-3.854,7.488-7.676c0-3.514-2.344-7.287-7.488-7.287H4.625V126.152z"/>
		</g>
		<g id="g66">
			<path id="path68" inkscape:connector-curvature="0" fill="#4C4C4C" d="M27.962,128.604c-3.584,0-5.9-2.467-5.9-6.283v-7.508
				h2.091v7.48c0,2.748,1.602,4.391,4.283,4.391c2.515-0.029,4.337-1.957,4.337-4.586v-7.287h2.093v13.568h-1.899l-0.119-2.359
				l-0.325,0.406C31.394,127.844,29.858,128.576,27.962,128.604L27.962,128.604z"/>
		</g>
		<g id="g70">
			<path id="path72" inkscape:connector-curvature="0" fill="#4C4C4C" d="M45.062,128.631c-3.533,0-7.098-2.177-7.098-7.035
				c0-4.205,2.853-7.033,7.098-7.033c1.858,0,3.491,0.662,4.854,1.967l-1.315,1.365c-0.924-0.859-2.188-1.354-3.481-1.354
				c-2.967,0-5.035,2.077-5.035,5.057c0,3.496,2.514,5.062,5.008,5.062c1.402,0,2.675-0.5,3.599-1.408l1.365,1.367
				C48.679,127.953,47,128.631,45.062,128.631L45.062,128.631z"/>
		</g>
		<g id="g74">
			<polygon id="polygon76" fill="#4C4C4C" points="54.867,120.752 60.67,114.814 63.374,114.814 56.973,121.207 64.156,128.354 
				64.156,128.381 61.505,128.381 54.867,121.75 54.867,128.381 52.804,128.381 52.804,109.072 54.867,109.072 			"/>
		</g>
		<g id="g78">
			<path id="path80" inkscape:connector-curvature="0" fill="#4C4C4C" d="M66.725,128.381v-19.336h7.014
				c6.681,0,9.722,4.902,9.722,9.459c0,4.916-3.003,9.873-9.722,9.873L66.725,128.381L66.725,128.381L66.725,128.381z
				 M68.954,126.152h4.782c5.175,0,7.491-3.854,7.491-7.676c0-3.514-2.345-7.287-7.491-7.287h-4.782V126.152z"/>
		</g>
		<g id="g82">
			<path id="path84" inkscape:connector-curvature="0" fill="#4C4C4C" d="M92.289,128.604c-3.583,0-5.898-2.467-5.898-6.283v-7.508
				h2.092v7.48c0,2.748,1.604,4.391,4.281,4.391c2.512-0.029,4.338-1.957,4.338-4.586v-7.287h2.09v13.568h-1.896l-0.116-2.359
				l-0.32,0.406C95.721,127.844,94.189,128.576,92.289,128.604z"/>
		</g>
		<g id="g86">
			<path id="path88" inkscape:connector-curvature="0" fill="#4C4C4C" d="M109.391,128.631c-3.531,0-7.097-2.177-7.097-7.035
				c0-4.205,2.853-7.033,7.097-7.033c1.858,0,3.492,0.662,4.855,1.967l-1.314,1.365c-0.926-0.859-2.188-1.354-3.479-1.354
				c-2.97,0-5.036,2.077-5.036,5.057c0,3.496,2.52,5.062,5.007,5.062c1.403,0,2.681-0.5,3.604-1.408l1.324,1.327l-0.068,0.065
				l0.039,0.037C112.951,127.977,111.297,128.631,109.391,128.631L109.391,128.631z"/>
		</g>
		<g id="g90">
			<polygon id="polygon92" fill="#4C4C4C" points="119.197,120.752 124.996,114.814 127.704,114.814 121.305,121.207 
				128.484,128.354 128.484,128.381 125.834,128.381 119.197,121.75 119.197,128.381 117.135,128.381 117.135,109.072 
				119.197,109.072 			"/>
		</g>
		<g id="g94">
			<path id="path96" inkscape:connector-curvature="0" fill="#4C4C4C" d="M139.436,128.743c-7.438,0-10.084-5.306-10.084-9.851
				c-0.014-2.959,0.989-5.604,2.82-7.441c1.807-1.811,4.307-2.77,7.236-2.77c2.648,0,5.143,1.006,7.031,2.834l-1.268,1.469
				c-1.48-1.385-3.686-2.241-5.767-2.241c-5.396,0-7.854,4.225-7.854,8.151c0,3.855,2.441,7.76,7.906,7.76
				c1.988,0,3.846-0.68,5.355-1.973l0.066-0.062v-4.77h-6.081v-1.947h8.089v7.58C144.814,127.688,142.381,128.743,139.436,128.743
				L139.436,128.743z"/>
		</g>
		<g id="g98">
			<path id="path100" inkscape:connector-curvature="0" fill="#4C4C4C" d="M156.537,128.631c-4.081,0-7.043-2.945-7.043-7.006
				c0-4.125,2.963-7.119,7.043-7.119c4.16,0,7.068,2.93,7.068,7.119C163.605,125.686,160.633,128.631,156.537,128.631z
				 M156.562,116.398c-2.936,0-4.979,2.146-4.979,5.227c0,2.93,2.083,5.059,4.952,5.059c2.918,0,4.979-2.08,5.005-5.058
				C161.544,118.596,159.449,116.398,156.562,116.398z"/>
		</g>
	</g>
	<g id="g12">
		<g id="g14">
			<g id="g16">
				<g id="g18">
					<g id="g20">
						<g id="g22">
							<g>
								<g>
									<g>
										<g>
											<g>
												<g>
													<defs>
														<path id="SVGID_1_" d="M123.848,48.397c0,22.5-18.324,40.798-40.847,40.798c-22.52,0-40.838-18.301-40.838-40.798
															c0-22.495,18.319-40.796,40.838-40.796C105.523,7.601,123.848,25.902,123.848,48.397z"/>
													</defs>
													<clipPath id="SVGID_2_">
														<use xlink:href="#SVGID_1_"  overflow="visible"/>
													</clipPath>
													<g id="g30" clip-path="url(#SVGID_2_)">
														<path id="path32" inkscape:connector-curvature="0" fill="#B5B5B5" d="M99.59,108.744
															c-1.424-6.551-9.701-21.375-12.84-27.645c-3.141-6.271-6.284-15.111-4.853-20.812c0.261-1.038-2.717-8.94-1.86-9.499
															c6.656-4.338,8.415,0.473,11.081-1.472c1.377-1.006,3.237,0.827,3.715-0.836c1.707-5.983-2.379-16.412-6.938-20.971
															c-1.492-1.486-3.773-2.419-6.354-2.914c-0.993-1.354-2.591-2.656-4.857-3.856c-2.522-1.341-8.009-3.113-10.854-3.587
															c-1.974-0.325-2.419,0.228-3.263,0.364c0.787,0.069,4.511,1.908,5.237,2.017c-0.726,0.488-2.854-0.023-4.213,0.585
															c-0.684,0.308-1.197,1.484-1.192,2.04c3.887-0.392,9.951-0.013,13.532,1.58c-2.85,0.326-7.185,0.686-9.049,1.665
															c-5.419,2.853-7.812,9.515-6.387,17.497c1.428,7.965,7.706,37.042,9.704,46.75c2,9.688-4.28,15.957-8.274,17.67
															l4.28,0.287l-1.427,3.137c5.132,0.566,10.839-1.141,10.839-1.141c-1.139,3.133-8.845,4.275-8.845,4.275
															s3.711,1.137,9.701-1.146c5.994-2.276,9.702-3.707,9.702-3.707l2.854,7.41l5.426-5.412l2.279,5.699
															C96.736,116.73,101.018,115.301,99.59,108.744L99.59,108.744z"/>
														<path id="path34" inkscape:connector-curvature="0" fill="#FFFFFF" d="M101.314,107.414
															c-1.42-6.553-9.697-21.379-12.842-27.65c-3.143-6.271-6.28-15.109-4.854-20.806c0.268-1.035,0.271-5.273,1.131-5.834
															c6.652-4.344,6.188-0.145,8.854-2.091c1.379-1.003,2.479-2.218,2.959-3.883c1.713-5.986-2.377-16.413-6.941-20.974
															c-1.488-1.485-3.771-2.421-6.353-2.914c-0.99-1.357-2.587-2.657-4.852-3.858c-4.268-2.264-9.556-3.168-14.455-2.28
															c0.783,0.073,2.574,1.69,3.298,1.797c-1.093,0.739-4,0.645-3.981,2.29c3.892-0.39,8.152,0.225,11.739,1.816
															c-2.85,0.325-5.505,1.028-7.369,2.01c-5.423,2.848-6.85,8.548-5.423,16.534c1.429,7.98,7.709,37.053,9.699,46.744
															c2,9.688-4.275,15.959-8.271,17.67l4.279,0.285l-1.425,3.144c5.131,0.562,10.838-1.146,10.838-1.146
															c-1.139,3.144-8.845,4.272-8.845,4.272s3.708,1.142,9.7-1.144c5.997-2.276,9.706-3.701,9.706-3.701l2.85,7.41
															l5.424-5.414l2.287,5.701C98.467,115.396,102.746,113.969,101.314,107.414L101.314,107.414z"/>
														<path id="path36" inkscape:connector-curvature="0" fill="#2D4F8E" d="M68.51,41.968c0-1.654,1.341-2.995,2.999-2.995
															c1.655,0,2.997,1.341,2.997,2.995c0,1.655-1.342,2.996-2.997,2.996C69.852,44.96,68.51,43.623,68.51,41.968z"/>
														<path id="path38" inkscape:connector-curvature="0" fill="#FFFFFF" d="M72.062,40.97c0-0.431,0.35-0.778,0.775-0.778
															c0.43,0,0.778,0.347,0.778,0.778c0,0.429-0.349,0.777-0.778,0.777C72.411,41.749,72.062,41.4,72.062,40.97z"/>
														<path id="path40" inkscape:connector-curvature="0" fill="#2D4F8E" d="M88.967,40.191
															c0-1.417,1.156-2.569,2.574-2.569c1.426,0,2.576,1.15,2.576,2.569c0,1.424-1.152,2.574-2.576,2.574
															C90.121,42.767,88.967,41.615,88.967,40.191z"/>
														<path id="path42" inkscape:connector-curvature="0" fill="#FFFFFF" d="M92.02,39.336c0-0.367,0.299-0.667,0.662-0.667
															c0.377,0,0.668,0.3,0.668,0.667c0,0.37-0.291,0.666-0.668,0.666C92.316,40.002,92.02,39.707,92.02,39.336z"/>
														
															<linearGradient id="path49_1_" gradientUnits="userSpaceOnUse" x1="2146.0801" y1="2851.0527" x2="2152.8613" y2="2851.0527" gradientTransform="matrix(1 0 0 0.998 -2080.5 -2811.0598)">
															<stop  offset="0.0056" style="stop-color:#6176B9"/>
															<stop  offset="0.691" style="stop-color:#394A9F"/>
														</linearGradient>
														<path id="path49" inkscape:connector-curvature="0" fill="url(#path49_1_)" d="M72.361,33.293
															c0,0-2.259-1.021-4.455,0.358c-2.192,1.376-2.111,2.785-2.111,2.785s-1.166-2.596,1.94-3.867
															C70.85,31.296,72.361,33.293,72.361,33.293z"/>
														
															<linearGradient id="path56_1_" gradientUnits="userSpaceOnUse" x1="2167.4141" y1="2848.9844" x2="2173.5879" y2="2848.9844" gradientTransform="matrix(1 0 0 0.998 -2080.5 -2811.0598)">
															<stop  offset="0.0056" style="stop-color:#6176B9"/>
															<stop  offset="0.691" style="stop-color:#394A9F"/>
														</linearGradient>
														<path id="path56" inkscape:connector-curvature="0" fill="url(#path56_1_)" d="M93.088,33.086
															c0,0-1.621-0.926-2.879-0.91c-2.588,0.034-3.295,1.176-3.295,1.176s0.436-2.723,3.746-2.178
															C92.453,31.473,93.088,33.086,93.088,33.086z"/>
													</g>
												</g>
											</g>
										</g>
									</g>
								</g>
							</g>
						</g>
					</g>
				</g>
			</g>
		</g>
		<path id="path58" inkscape:connector-curvature="0" fill="#FDD20A" d="M80.683,53.513c0.299-1.812,4.983-5.238,8.301-5.445
			c3.326-0.208,4.355-0.163,7.129-0.824c2.775-0.663,9.922-2.44,11.896-3.354c1.982-0.914,10.367,0.453,4.455,3.745
			c-2.561,1.431-9.449,4.058-14.381,5.526c-4.92,1.471-7.9-1.404-9.541,1.013c-1.301,1.921-0.268,4.555,5.615,5.101
			c7.941,0.735,15.559-3.573,16.396-1.285c0.842,2.29-6.826,5.145-11.496,5.236c-4.662,0.088-14.066-3.081-15.475-4.061
			C82.174,58.185,80.292,55.898,80.683,53.513L80.683,53.513z"/>
	</g>
	<g id="g102">
		<path id="path104" inkscape:connector-curvature="0" fill="#65BC46" d="M84.277,77.754c0,0-11.158-5.943-11.342-3.533
			c-0.188,2.415,0,12.26,1.302,13.006c1.303,0.74,10.603-4.83,10.603-4.83L84.277,77.754L84.277,77.754z"/>
		<path id="path106" inkscape:connector-curvature="0" fill="#65BC46" d="M88.555,77.379c0,0,7.621-5.76,9.301-5.387
			c1.67,0.377,2.045,12.26,0.559,12.824c-1.49,0.549-10.221-3.02-10.221-3.02L88.555,77.379z"/>
		<path id="path108" inkscape:connector-curvature="0" fill="#43A244" d="M81.577,78.385c0,3.898-0.561,5.57,1.113,5.941
			c1.675,0.374,4.835,0,5.951-0.74c1.114-0.746,0.187-5.758-0.187-6.693C88.082,75.967,81.577,76.714,81.577,78.385L81.577,78.385z"
			/>
		<path id="path110" inkscape:connector-curvature="0" fill="#65BC46" d="M82.286,77.52c0,3.898-0.561,5.57,1.115,5.943
			c1.671,0.373,4.833,0,5.949-0.744c1.116-0.744,0.188-5.754-0.188-6.691C88.789,75.1,82.286,75.848,82.286,77.52z"/>
	</g>
</g>
</svg>
