<?xml version="1.0" encoding="utf-8"?>
<!-- Generator: Adobe Illustrator 16.0.0, SVG Export Plug-In . SVG Version: 6.00 Build 0)  -->
<!DOCTYPE svg PUBLIC "-//W3C//DTD SVG 1.1//EN" "http://www.w3.org/Graphics/SVG/1.1/DTD/svg11.dtd">
<svg version="1.1" id="Layer_1" xmlns="http://www.w3.org/2000/svg" xmlns:xlink="http://www.w3.org/1999/xlink" x="0px" y="0px"
	 width="64px" height="64px" viewBox="-0.5 -0.5 64 64" enable-background="new -0.5 -0.5 64 64" xml:space="preserve">
<path fill="#EC2227" d="M31.53,53.5c-2.657,0-5.138-0.521-7.426-1.571c-2.285-1.052-4.341-2.61-6.162-4.654
	c-1.99-2.193-3.464-4.569-4.401-7.13c-0.938-2.554-1.396-5.431-1.396-8.616c0-3.188,0.457-6.061,1.396-8.616
	c0.937-2.558,2.41-4.937,4.401-7.13c1.841-2.061,3.899-3.634,6.189-4.697c2.29-1.059,4.759-1.586,7.398-1.586
	c2.638,0,5.109,0.527,7.396,1.586c2.288,1.063,4.352,2.636,6.188,4.697c1.972,2.176,3.434,4.54,4.36,7.087
	c0.929,2.543,1.38,5.434,1.38,8.657c0,3.225-0.451,6.117-1.38,8.657c-0.927,2.549-2.389,4.911-4.358,7.09
	c-1.824,2.045-3.871,3.602-6.162,4.654C36.664,52.979,34.188,53.5,31.53,53.5L31.53,53.5z M31.53,50.659
	c2.984,0,4.888-1.141,5.959-3.354c1.149-2.361,1.799-7.535,1.799-15.776c0-8.236-0.649-13.413-1.799-15.779
	c-1.071-2.208-2.975-3.349-5.959-3.349c-3.003,0-4.922,1.151-6.007,3.382c-1.161,2.383-1.812,7.549-1.812,15.747
	c0,8.199,0.65,13.367,1.812,15.75C26.608,49.508,28.527,50.659,31.53,50.659L31.53,50.659z"/>
</svg>
