<?xml version="1.0" encoding="utf-8"?>
<!-- Generator: Adobe Illustrator 16.0.0, SVG Export Plug-In . SVG Version: 6.00 Build 0)  -->
<!DOCTYPE svg PUBLIC "-//W3C//DTD SVG 1.1//EN" "http://www.w3.org/Graphics/SVG/1.1/DTD/svg11.dtd">
<svg version="1.1" id="Layer_1" xmlns="http://www.w3.org/2000/svg" xmlns:xlink="http://www.w3.org/1999/xlink" x="0px" y="0px"
	 width="64px" height="64px" viewBox="-0.5 -0.5 64 64" enable-background="new -0.5 -0.5 64 64" xml:space="preserve">
<g>
	<g>
		<defs>
			<circle id="SVGID_1_" cx="31.5" cy="31.5" r="22"/>
		</defs>
		<clipPath id="SVGID_2_">
			<use xlink:href="#SVGID_1_"  overflow="visible"/>
		</clipPath>
		<g id="_x30_jvhw2_1_" clip-path="url(#SVGID_2_)">
			<g>
				<path fill="#7CB5E1" d="M36.347,21.82c0.048-0.447,0.84-0.11,0.956,0C37.152,22.492,36.633,22.041,36.347,21.82z"/>
				<path fill="#98C5E7" d="M8.989,28.897c0.361-1.806,0.554-3.782,1.339-5.164c0.638,2.365-2.005,5.241,0.191,7.077
					c-1.105,0.412-0.771-0.887-1.147-1.72c-0.601,0.266,0.263,0.943-0.191,1.146C8.753,30.154,9.104,29.295,8.989,28.897z"/>
				<path fill="#60A5DA" d="M28.502,26.22c0.716-0.203,0.545,0.476,1.146,0.383c-0.059,0.449-0.301,0.718-0.189,1.339
					c-0.37-0.225-0.971,0.176-1.341-0.382C28.375,26.887,28.788,27.1,28.502,26.22z"/>
				<path fill="#98C5E7" d="M40.173,28.324c0.825-0.251,0.236,0.911,0.955,0.765c-0.864,1.034,0.235,1.943-0.382,2.87
					c-0.983,0-0.874,0.101-1.53,0.574C39.178,30.927,38.851,29.474,40.173,28.324z"/>
				<path fill="#D3E1F0" d="M53.754,29.28c0.319,1.47,0.319,4.271,0,5.74C53.754,33.106,53.754,31.194,53.754,29.28z"/>
				<path fill="#E0EEF8" d="M29.842,30.62c0.279,0.612,0.936,0.849,0.764,1.913c-1.034-0.61-1.595,0.141-2.104-1.339
					C28.961,31.016,29.01,30.424,29.842,30.62z"/>
				<path fill="#E0EEF8" d="M21.998,33.298c0.678,0.379,0.377,0.25,1.147,0c0.054,1.01-0.012,1.902-0.384,2.487
					C21.683,35.777,21.183,34.038,21.998,33.298z"/>
				<path fill="#6C89CF" d="M41.32,35.594c0.031-0.224,0.349-0.16,0.573-0.191c-0.139,0.585,0.33,0.563,0.191,1.147
					C41.378,36.685,41.755,35.732,41.32,35.594z"/>
				<path fill="#98C5E7" d="M38.067,37.508c0.802,0.261,0.175,1.461-0.573,1.338c-0.245-0.497-0.42-0.576-0.191-1.146
					C37.606,37.683,38.033,37.79,38.067,37.508z"/>
				<path fill="#7CB5E1" d="M25.249,42.289c0.391,0.122,0.053,0.968,0.766,0.765c-0.347,0.292,0.036,1.312-0.766,1.147
					c0.086-0.169,0.169-0.341,0.382-0.383C25.188,43.46,24.849,42.998,25.249,42.289z"/>
				<path fill="#7CB5E1" d="M37.303,50.324c0.117,0.266,0.736,0.029,0.765,0.383c0.019,0.415-1.329,0.496-0.382,1.146
					c0,0.64-0.769,0.508-0.957,0.957c-0.236-0.084-0.395-0.244-0.383-0.574C37.6,52.108,36.671,50.963,37.303,50.324z"/>
				<path fill="#6C89CF" d="M26.78,53.577c-0.064,0-0.128,0-0.192,0c-0.058-0.261-0.478-0.16-0.765-0.192
					c-0.469-0.822,0.975-0.087,1.53-0.19C27.352,53.51,26.823,53.302,26.78,53.577z"/>
				<path fill="#98C5E7" d="M26.78,53.768c-0.453,0.158-0.881-0.27-0.192-0.191c0.064,0,0.128,0,0.192,0
					c0.519,0.119,1.519-0.243,1.722,0.191C27.929,53.768,27.355,53.768,26.78,53.768z"/>
				<path fill="#D3E1F0" d="M12.051,19.524c2.172-3.566,4.974-6.504,8.799-8.417C17.634,13.63,14.37,16.105,12.051,19.524z"/>
				<path fill="#D3E1F0" d="M10.902,40.758c0.154-0.1,0.311-0.198,0.574-0.19c0.172,0.56,0.172,0.587,0,1.147
					C11.252,41.428,10.924,41.249,10.902,40.758z"/>
				<path fill="#D3E1F0" d="M14.346,46.116c0.692,0.838,1.457,1.604,2.296,2.295C15.638,47.885,14.872,47.119,14.346,46.116z"/>
				<path fill="#D3E1F0" d="M24.867,53.194c-1.071-0.141-2.004-0.418-2.679-0.957c0.444-0.062,0.735,0.03,0.957,0.191
					C23.619,52.783,24.463,52.769,24.867,53.194z"/>
				<path fill="#7CB5E1" d="M31.562,9.002c0.336,0.11,1.126-0.231,1.148,0.191c-1.514,0.337-3.359,0.34-4.019,1.532
					c-1.181-0.034-2.398-0.104-2.678,0.765c-1.272-0.643-2.538,0.228-3.253,0.765c1.007,1.351,2.227,0.098,3.635-0.192
					c-0.091,0.93-1.425,0.616-1.531,1.531c-1.567-0.893-1.794,1.073-3.251,1.722c-1.073,0.478-2.475,0.255-2.486,1.147
					c0.267-1.326,1.942-1.247,2.296-2.487c0.088-0.599-0.481-0.539-0.766-0.765C22.754,10.539,27.012,10.014,31.562,9.002z"/>
				<path fill="#7CB5E1" d="M19.128,16.654c-0.158,0.542,0.27,0.496,0.191,0.957c-0.983,0.036-0.646,1.395-1.148,1.913
					c0.176,0.642,0.355,0.095,0.957,0.192c-0.074,0.784,1.086,1.326,0.574,1.913c0.966,1.002,2.952,1.644,3.635,0.191
					c1.652-0.045,2.415,1.339,4.208,0.575c-0.043,0.362,0.217,0.422,0.191,0.765c0.663-0.421,1.284-0.883,1.723-1.531
					c-0.101-0.283-0.283-0.482-0.384-0.765c-0.709,0.472-1.735-0.098-1.912-0.765c0.74-0.979,1.845-1.599,2.678-2.487
					c0.144-0.653-0.777-0.243-0.573-0.957c1.229,0.109,1.342,1.336,1.913,2.104c-0.139,0.188-1.459-0.062-1.913-0.191
					c-0.25,1.014,0.937,0.593,0.765,1.531c1.026,0.197,1.015-0.643,1.722-0.765c-0.168,0.614,0.632,0.262,0.574,0.765
					c0.072,0.907-0.85,0.935-0.382,1.721c-0.837,0.249-1.073,1.097-1.341,1.913c-0.891,0.067-1.273,0.641-1.722,1.149
					c0.679,0.26,0.303,0.384,0.573,0.955c1.813-1.32,3.755-0.722,5.166,0.192c0.739,0.037,0.515-0.89,1.339-0.765
					c-0.251-0.594,0.052-0.547,0-1.34c0.623,0.05,0.921-0.228,0.957-0.765c0.608,0.088,0.378,0.827,0,0.956
					c0.689,0.607,1.272,0.964,1.146,2.104c0.764-0.117,0.997,0.906,1.53,1.53c0.63-0.392,1.82,0.017,2.298,0.383
					c0.043,0.746-0.412,0.992-0.575,1.531c0.635-0.188,0.309,0.482,0.383,0.574c0.398,0.486,1.08,0.175,1.531,0.574
					c0.946,0.839,0.586,2.261,0.381,3.443c0.954,1.188,0.214,2.67-0.191,4.017c-0.588,0.135-0.367,0.135-0.955,0
					c0.093,0.859-0.098,1.434-0.191,2.104c-0.265,0.008-0.42-0.09-0.574-0.191c-0.482-0.096,0.532,0.949-0.383,0.765
					c0.268,0.887,0.547,1.146,1.339,1.147c-0.164,0.602-0.723,0.807-0.766,1.531c-1.061-0.253-2.452,0.703-2.677,1.913
					c0.757,0.031-0.062-0.295,0.381-0.575c0.567,0.418,0.161,0.815,0.575,1.532c-0.542,0.158-0.495-0.271-0.956-0.192
					c-0.011,0.584,0.688,0.459,0.573,1.147c-1.25,0.243-0.088,1.241-0.766,1.913c-0.139-0.389-0.808-0.548-1.146-0.19
					c0.32,0.182,0.597,0.634,0,0.764c-0.809,0.297,0.041-1.062-0.766-0.764c-0.168,0.747,0.279,1.089-0.765,1.53
					c0.06,0.447,0.302,0.718,0.191,1.338c-0.468,0.271-1.678-0.208-1.146,0.575c-1.501,0.25-3.303,0.924-5.549,0.956
					c0.085,0.553,1.445-0.169,1.531,0.383c-1.166,0.144-1.735-0.306-2.869-0.191c-0.205-0.435-1.203-0.073-1.723-0.191
					c0.043-0.276,0.57-0.066,0.574-0.382c-0.556,0.104-2.001-0.632-1.531,0.19c-0.461,0.078-0.416-0.35-0.957-0.19
					c-0.403-0.427-1.247-0.412-1.722-0.768c1.993,0.235-3.449-1.862-3.634-1.72c-1.068-0.653-1.923-1.521-2.87-2.296
					c-0.839-0.691-1.604-1.458-2.296-2.296c-0.055-0.392-0.518-0.375-0.574-0.766c0.052-0.192-0.095-0.141-0.189-0.19
					c2.489,1.307,5.562,7.225,10.521,5.93c0.244-0.755-0.523-0.496-0.765-0.765c0.176-0.335,0.599-0.422,1.147-0.383
					c-0.375,0.296-0.56,0.873,0.573,0.956c0.036-0.673-0.451-0.823-0.765-1.147c0.303-2.105,3.587-0.054,4.974-0.955
					c-0.438,0.284,0.654-0.77,0.383-0.766c0.241-0.004,0.653,1.237,1.339,0.956c1.78-0.328,2.849-1.176,3.252-3.251
					c0.226,0.029,0.162,0.349,0.192,0.573c1.241-1.799,0.983-3.953,2.297-5.548c0.076-0.46-0.871,0.105-0.575-0.574
					c0.337-0.354,0.559,0.083,0.957,0.191c-0.103-1.204-2.01-2.54-1.147-3.443c-1.029,0.121-0.268-1.193,0.192-1.722
					c-0.853-0.52-0.807-1.354,0-1.913c-0.205-0.758-0.582,0.049-1.148,0c0.031-0.223-0.042-0.34-0.192-0.383
					c0.134-0.385,0.871-0.83,0.957-0.19c0.516-0.505,0.775-1.268,1.339-1.723c-0.253-0.728-0.699-0.41-1.339-0.957
					c0.219-0.42,0.494-0.782,0.384-1.531c0.317,0,0.638,0,0.955,0c0.765-1.063-0.153-1.649-0.573-2.485
					c-1.375-0.174-1.602,0.639-2.104,1.53c-0.521,0.139-0.385-0.38-0.765-0.382c-0.03,1.05-0.227,2.081-1.148,2.678
					c-1.638-0.767-3.318-0.993-4.017,0.765c-0.7-0.193-2.641-0.59-2.87-2.295c0.363-0.723,1.335-0.833,2.104-1.147
					c0.215-1.555-0.502-2.176-0.573-3.443c-1.717-0.313-4.836,1.788-6.313-0.383c-1.006,0.093-1.394,1.335-1.146,2.104
					c-0.257,0-0.511,0-0.766,0c0.124,0.194,0.439,0.197,0.383,0.574c-0.171,0.085-0.343,0.168-0.383,0.383
					c-1.063-0.213-0.872-1.678-1.913-1.913c0.896-3.228-3.656-2.184-3.061,0.573c0.963,0.452,3.073,1.99,1.531,3.06
					c0.94,0.822,0.418,2.848,0.766,3.637c1.242-0.625,0.669,1.082,1.912,0.956c-0.537,0.164-0.368,1.035-0.382,1.721
					c0.151-0.484,0.55-0.725,0.573-1.339c0.389,0.209,1.216,0.484,0.765,0.957c-0.494-0.94-0.843,0.721-0.573,1.147
					c-1.449,0.72-2.629,1.708-3.443,3.061c-1.401-0.766-1.755-2.581-3.443-3.061c0.231-2.317-0.563-3.096-1.148-4.209
					c0-0.063,0-0.126,0-0.192c-2.196-1.836,0.446-4.713-0.19-7.077c0.016-0.75,0.336-1.193,0.574-1.722
					c1.229-1.852,2.935-5.199,4.973-4.974c-0.143-0.713,0.444-1.847,1.722-1.721c0.05,1.005-0.848,1.064-1.338,1.531
					c0.53,0.598,0.172,0.948,0.189,1.913c0.96,0.444,2.463-0.512,2.487-2.104C19.001,16.654,19.064,16.654,19.128,16.654z
					 M13.198,19.142c-2.191,2.691-3.003,7.027-3.253,10.522c0.935,0.469,0.964,1.842,1.722,2.487
					c0.139-0.584-0.195-0.697-0.19-1.148c0.74-0.216,0.94-0.972,1.722-1.147c-0.38-0.393,0.507-1.142,0.573-1.722
					c-1.992-2.403,0.316-5.665,0.956-8.991C13.948,19.3,14.069,19.172,13.198,19.142z M28.12,27.56
					c0.368,0.558,0.969,0.157,1.339,0.382c-0.111-0.621,0.131-0.89,0.191-1.339c-0.604,0.092-0.433-0.586-1.146-0.383
					C28.788,27.1,28.375,26.887,28.12,27.56z M39.216,32.533c0.656-0.474,0.547-0.574,1.53-0.574
					c0.617-0.927-0.482-1.836,0.382-2.87c-0.719,0.146-0.13-1.016-0.955-0.765C38.851,29.474,39.178,30.927,39.216,32.533z
					 M12.624,33.873c-0.179,0.203-0.706,0.059-0.573,0.573c0.355,0.473,0.754,0.903,0.956,1.53c0.601-0.13,0.781,0.021,0.956-0.191
					c-0.684-0.161-0.022-0.471-0.191-1.146c-0.615-0.169-0.263,0.63-0.765,0.573c0.496-0.503-0.31-0.15-0.192-0.766
					c0.924-0.254,0.285-1.186,0.192-1.912c-0.475,0.248-0.929-0.427-0.956,0C12.597,33.033,12.491,33.191,12.624,33.873z
					 M42.085,36.551c0.139-0.585-0.33-0.562-0.191-1.147c-0.225,0.03-0.542-0.033-0.573,0.191
					C41.755,35.732,41.378,36.685,42.085,36.551z M37.303,37.698c-0.23,0.571-0.054,0.65,0.191,1.147
					c0.748,0.122,1.375-1.078,0.573-1.34C38.033,37.79,37.606,37.683,37.303,37.698z"/>
				<path fill="#60A5DA" d="M47.633,32.151c-0.06-0.697,0.03-1.246,0.191-1.723c-1.982-0.758-0.951-4.533-3.825-4.399
					c-0.177,1.139-0.21,1.669-0.575,2.296c-3.026-0.672-4.864-2.532-5.738-5.357c0.412-0.417,0.771-0.888,0.957-1.531
					c-0.244-0.488-0.938,0.178-0.957-0.191c-0.464-1.496-0.266-3.799-0.191-5.165c0.155-0.036,0.189-0.192,0.382-0.192
					c2.201,0.35,2.827,2.275,3.444,4.209c1.299,0.215,1.305-0.863,1.722-1.531c0.378,0.003,1.773,0.427,2.296,0.287
					c-0.286-1.818-2.895-2.75-3.635-4.113c-0.561,0.172-0.588,0.172-1.148,0c-0.029-1.118-0.962-1.333-1.914-1.531
					c-0.361-2.285-2.779-1.47-4.591-2.104c-0.124-0.958,0.638-1.147,0.575-1.531c1.618,0.167,2.907,0.664,4.399,0.957
					c-1.051-0.671-2.446-1-4.018-1.147c-0.979,0.15-1.39-0.269-2.296-0.192c-1.514,0.337-3.359,0.34-4.019,1.532
					c-1.181-0.034-2.398-0.104-2.678,0.765c-1.272-0.643-2.538,0.228-3.253,0.765c1.007,1.351,2.227,0.098,3.635-0.192
					c-0.091,0.93-1.425,0.616-1.531,1.531c-1.567-0.893-1.794,1.073-3.251,1.722c-1.073,0.478-2.475,0.255-2.486,1.147
					c0,0.064,0,0.127,0,0.191c-0.158,0.542,0.269,0.496,0.191,0.957c-0.984,0.036-0.646,1.395-1.148,1.913
					c0.176,0.642,0.355,0.095,0.957,0.192c-0.074,0.784,1.086,1.326,0.573,1.913c0.967,1.002,2.952,1.644,3.635,0.191
					c1.652-0.045,2.416,1.339,4.209,0.575c-0.045,0.362,0.215,0.422,0.19,0.765c0.662-0.421,1.284-0.883,1.722-1.531
					c-0.099-0.283-0.282-0.482-0.382-0.765c-0.709,0.472-1.736-0.098-1.913-0.765c0.741-0.979,1.844-1.599,2.679-2.487
					c0.144-0.653-0.777-0.243-0.575-0.957c1.231,0.109,1.342,1.336,1.914,2.104c-0.14,0.188-1.458-0.062-1.914-0.191
					c-0.248,1.014,0.937,0.593,0.765,1.531c1.028,0.197,1.017-0.643,1.723-0.765c-0.169,0.614,0.631,0.262,0.575,0.765
					c0.072,0.907-0.85,0.935-0.384,1.721c-0.835,0.249-1.072,1.097-1.34,1.913c-0.89,0.067-1.272,0.641-1.721,1.149
					c0.678,0.26,0.303,0.384,0.573,0.955c1.812-1.32,3.755-0.722,5.166,0.192c0.737,0.037,0.513-0.89,1.339-0.765
					c-0.251-0.594,0.052-0.547,0-1.34c0.621,0.05,0.921-0.228,0.957-0.765c0.608,0.088,0.378,0.827,0,0.956
					c0.688,0.607,1.271,0.964,1.146,2.104c0.764-0.117,0.998,0.906,1.531,1.53c0.63-0.392,1.818,0.017,2.296,0.383
					c0.045,0.746-0.41,0.992-0.573,1.531c0.635-0.188,0.308,0.482,0.383,0.574c0.398,0.486,1.078,0.175,1.531,0.574
					c0.946,0.839,0.586,2.261,0.381,3.443c0.954,1.188,0.214,2.67-0.191,4.017c-0.588,0.135-0.368,0.135-0.957,0
					c0.095,0.859-0.096,1.434-0.191,2.104c-0.265,0.008-0.42-0.09-0.573-0.191c-0.482-0.096,0.533,0.949-0.384,0.765
					c0.27,0.887,0.549,1.146,1.341,1.147c-0.166,0.602-0.725,0.807-0.766,1.531c-1.062-0.253-2.452,0.703-2.679,1.913
					c0.757,0.031-0.062-0.295,0.382-0.575c0.566,0.418,0.162,0.815,0.575,1.532c-0.541,0.158-0.496-0.271-0.957-0.192
					c-0.01,0.584,0.689,0.459,0.573,1.147c-1.249,0.243-0.088,1.241-0.764,1.913c-0.139-0.389-0.81-0.548-1.148-0.19
					c0.322,0.182,0.599,0.634,0,0.764c-0.807,0.297,0.043-1.062-0.765-0.764c-0.167,0.747,0.28,1.089-0.764,1.53
					c0.06,0.447,0.301,0.718,0.189,1.338c-0.468,0.271-1.677-0.208-1.145,0.575c-1.503,0.25-3.303,0.924-5.55,0.956
					c0.086,0.553,1.446-0.169,1.53,0.383c0.662,0.294,1.745,0.169,2.681,0.191c1.416-0.241,2.875-0.439,4.016-0.956
					c-1.487-0.274,1.459-0.922,2.487-2.104c1.017-1.17,1.324-3.849,3.252-4.209c-0.125-2.103,1.42-2.533,2.296-3.635
					c0.144-2.915,0.771-5.37,0.766-8.227c-1.26-0.399-2.58-0.735-2.487-2.487c0.619-0.523,0.793-1.531,0.575-1.912
					C46.592,30.386,46.957,31.424,47.633,32.151z M32.328,16.654c-0.482-0.346-1.073-0.584-1.147-1.339
					c-0.523,0.044-1.399-0.612-2.295-0.765c-0.035-0.541,0.719-0.445,0.189-0.957c-0.439,1.339-1.666-0.921-2.677-0.191
					c-0.283-0.857,0.56-0.587,0.382-1.339c2.862-0.08,3.727,2.167,6.312,1.339c-0.053,0.5,0.069,0.823,0.575,0.765
					C33.642,15.417,31.91,14.961,32.328,16.654z M36.347,21.82c0.048-0.447,0.84-0.11,0.956,0
					C37.152,22.492,36.633,22.041,36.347,21.82z M37.686,51.855c0.002,0.638-0.769,0.508-0.957,0.957
					c-0.234-0.085-0.393-0.246-0.382-0.575c1.253-0.127,0.326-1.274,0.956-1.913c0.117,0.266,0.736,0.029,0.765,0.383
					C38.087,51.122,36.738,51.203,37.686,51.855z"/>
				<path fill="#7CB5E1" d="M33.668,14.168c-0.026,1.25-1.758,0.793-1.34,2.486c-0.482-0.346-1.073-0.584-1.147-1.339
					c-0.523,0.044-1.399-0.612-2.295-0.765c-0.035-0.541,0.719-0.445,0.189-0.957c-0.439,1.339-1.666-0.921-2.677-0.191
					c-0.283-0.857,0.56-0.587,0.382-1.339c2.862-0.08,3.727,2.167,6.312,1.339C33.04,13.903,33.164,14.226,33.668,14.168z"/>
				<path fill="#6C89CF" d="M19.512,50.707c0.185-0.143,5.627,1.956,3.634,1.721c-0.222-0.16-0.513-0.252-0.957-0.191
					C21.404,51.617,20.362,51.259,19.512,50.707z"/>
				<g>
					<path fill="#98C5E7" d="M29.194,48.835c0.019-0.009,0.04-0.02,0.073-0.042C29.244,48.809,29.219,48.821,29.194,48.835z"/>
					<path fill="#98C5E7" d="M13.771,45.35c0.009-0.032,0.01-0.055,0.009-0.076c-0.062-0.037-0.122-0.073-0.184-0.106
						C13.656,45.23,13.711,45.293,13.771,45.35z"/>
					<path fill="#98C5E7" d="M13.58,45.159c0.005,0.003,0.012,0.007,0.017,0.01c-0.002-0.002-0.003-0.003-0.005-0.005
						C13.588,45.162,13.585,45.161,13.58,45.159z"/>
					<path fill="#98C5E7" d="M36.537,26.029c-1.375-0.174-1.602,0.639-2.104,1.53c-0.522,0.139-0.386-0.38-0.766-0.383
						c-0.029,1.05-0.227,2.081-1.148,2.679c-1.638-0.769-3.318-0.994-4.016,0.765c-0.701-0.192-2.642-0.589-2.871-2.296
						c0.363-0.721,1.336-0.832,2.104-1.147c0.215-1.554-0.502-2.177-0.573-3.443c-1.717-0.312-4.836,1.787-6.313-0.383
						c-1.006,0.093-1.394,1.335-1.146,2.104c-0.256,0-0.511,0-0.766,0c0.124,0.194,0.44,0.198,0.383,0.574
						c-0.171,0.085-0.343,0.167-0.383,0.382c-1.063-0.211-0.872-1.676-1.912-1.912c0.896-3.227-3.657-2.183-3.062,0.574
						c0.963,0.451,3.073,1.989,1.531,3.061c0.94,0.82,0.419,2.847,0.766,3.634c1.243-0.624,0.669,1.084,1.912,0.958
						c-0.537,0.163-0.368,1.034-0.382,1.721c0.152-0.484,0.551-0.726,0.573-1.338c0.39,0.208,1.217,0.482,0.766,0.955
						c-0.494-0.939-0.843,0.721-0.573,1.147c-1.45,0.72-2.63,1.708-3.444,3.061c-1.4-0.766-1.755-2.58-3.443-3.061
						c0.232-2.316-0.562-3.096-1.147-4.208c0-0.064,0-0.128,0-0.192c-1.106,0.411-0.771-0.887-1.147-1.722
						c-0.601,0.267,0.263,0.943-0.191,1.147c-0.427-0.082-0.078-0.942-0.191-1.339c-0.363,1.77-0.312,4.774,0.191,6.312
						c0.261,2.163,1.032,3.814,1.722,5.548c0.154-0.1,0.311-0.198,0.573-0.19c0.172,0.56,0.172,0.587,0,1.147
						c0.632,1.223,1.208,2.502,2.117,3.447c0.079,0.035,0.182,0.016,0.188,0.111c0.448,0.274,0.916,0.684,1.411,1.163l0,0l0,0l0,0
						l0,0c0.104,0.126,0.211,0.25,0.321,0.372c0.01,0.01,0.018,0.02,0.027,0.029c0.111,0.124,0.227,0.244,0.343,0.364
						c0.003,0.003,0.008,0.006,0.012,0.01c0.242,0.244,0.495,0.476,0.758,0.695c0.002,0,0.002,0.002,0.002,0.002l0,0
						c0.002,0.002,0.003,0.003,0.005,0.005c-0.002-0.002-0.003-0.003-0.005-0.005c1.953,1.952,4.326,3.995,7.447,3.18
						c0.244-0.755-0.524-0.497-0.766-0.766c0.176-0.333,0.599-0.422,1.146-0.382c-0.374,0.295-0.56,0.872,0.574,0.956
						c0.036-0.673-0.452-0.823-0.765-1.147c0.298-2.07,3.475-0.124,4.901-0.915c-0.192,0.081,0.597-0.701,0.489-0.797
						c0.246,0.099,0.65,1.216,1.306,0.947c1.778-0.327,2.849-1.176,3.252-3.253c0.225,0.031,0.162,0.349,0.191,0.574
						c1.241-1.799,0.983-3.953,2.296-5.549c0.076-0.457-0.871,0.107-0.573-0.573c0.337-0.355,0.559,0.083,0.955,0.191
						c-0.103-1.203-2.008-2.54-1.147-3.443c-1.029,0.12-0.268-1.193,0.192-1.722c-0.852-0.518-0.807-1.354,0-1.913
						c-0.203-0.757-0.58,0.05-1.147,0c0.031-0.223-0.041-0.34-0.191-0.383c0.132-0.386,0.871-0.828,0.955-0.19
						c0.516-0.506,0.775-1.267,1.341-1.722c-0.255-0.729-0.701-0.411-1.341-0.957c0.22-0.42,0.496-0.782,0.384-1.53
						c0.318,0,0.638,0,0.957,0C37.876,27.451,36.957,26.866,36.537,26.029z M15.494,45.159c-0.619-0.147-1.002-0.529-1.148-1.147
						c0.817-0.193,0.512-0.834,0.191-1.53c1.474-0.915,2.628,0.72,3.634,1.147c-0.123,0.466-0.387,0.984,0.384,0.956
						c-0.224,0.351-0.501,0.648-0.766,0.958c-0.517-0.245-0.866-0.518-1.147-0.193C16.808,44.963,15.729,44.452,15.494,45.159z
						 M14.363,45.295c-0.014-0.021-0.028-0.043-0.041-0.064C14.335,45.252,14.35,45.273,14.363,45.295z M18.555,49.144
						c-0.033-0.016-0.064-0.029-0.098-0.047C18.49,49.112,18.523,49.128,18.555,49.144z M18.29,49.01
						c-0.028-0.015-0.057-0.029-0.084-0.045C18.233,48.98,18.261,48.996,18.29,49.01z M18.03,48.869
						c-0.021-0.014-0.045-0.026-0.067-0.039C17.985,48.843,18.009,48.856,18.03,48.869z M25.249,42.289
						c0.391,0.122,0.053,0.968,0.766,0.765c-0.347,0.292,0.036,1.312-0.766,1.147c0.086-0.169,0.169-0.341,0.382-0.383
						C25.188,43.46,24.849,42.998,25.249,42.289z M22.762,35.785c-1.079-0.008-1.579-1.747-0.764-2.487
						c0.678,0.379,0.377,0.25,1.147,0C23.2,34.308,23.136,35.2,22.762,35.785z M23.529,41.142c-0.435,0.843-1.198,1.354-1.914,1.914
						c0.245-0.931-0.764-1.611-1.34-1.722c0.363-0.926,0.344-1.271,0.956-2.104C22.536,39.328,22.504,40.763,23.529,41.142z
						 M29.842,30.62c0.279,0.612,0.936,0.849,0.764,1.913c-1.034-0.61-1.595,0.141-2.104-1.339
						C28.961,31.016,29.01,30.424,29.842,30.62z M28.311,32.151c0.519,0.246,0.681,0.85,1.531,0.764
						c-0.18,0.945,0.231,1.298,0.574,1.723c0.585,0.139,0.562-0.331,1.146-0.192c0.038,1.517-0.748,2.3-0.573,3.443
						c0.165,0.537,0.996,0.407,1.34,0.766c0,0.383,0,0.766,0,1.146c-0.616,0.278-0.977,0.809-1.913,0.766
						c-0.078,0.46,0.349,0.416,0.189,0.957c-1.07-0.509-1.086-0.621-2.295-0.191c-0.267-0.627-0.797-0.988-0.764-1.914
						c0.363-0.082,0.346-0.546,0.955-0.382c-0.962-0.888,0.218-1.947,0.573-2.679c-0.017-0.222-0.215-0.101-0.189,0
						C28.557,35.017,27.922,33.457,28.311,32.151z M18.938,31.768c-3.383,0.501-1.451-4.615-1.722-5.356
						c1.06-0.165,1.742,1.699,2.486,2.486c1.052-0.737,0.612-2.261,0.573-3.442c1.756-1.055,4.004-0.576,5.739-0.384
						c0.761,1.39-0.528,2.237-0.766,3.253c-0.78,0.058,0.033-0.265-0.19-0.765c-0.748,0.181-0.163,0.966-0.191,1.531
						c1.936,1.316,2.582,3.921,3.635,6.12c-1.313-0.051-2.398-1.918-3.826-2.485c0.02-0.491,0.713-0.309,0.955-0.574
						c0.006-0.451-0.329-0.563-0.19-1.148c-0.655-0.088-2.1,0.191-2.295,1.148c-0.824-0.262-1.456-0.713-2.104-1.148
						c-0.168-0.613,0.496-0.397,0.573-0.765c-0.479-0.676-0.861,0.932-1.147,0c-0.319,0.023,0.218,0.815-0.573,0.765
						c0-0.318,0-0.638,0-0.956C19.163,30.209,19.254,31.191,18.938,31.768z M19.513,49.527c-0.052-0.019-0.105-0.035-0.158-0.053
						C19.407,49.492,19.46,49.509,19.513,49.527z M19.235,49.432c-0.052-0.019-0.104-0.04-0.155-0.06
						C19.131,49.394,19.184,49.413,19.235,49.432z M18.962,49.325c-0.083-0.033-0.164-0.069-0.246-0.105
						C18.798,49.256,18.879,49.292,18.962,49.325z M11.093,37.315c0.205-0.179,0.06-0.705,0.574-0.575
						c-0.005-0.185-0.233-0.146-0.383-0.19c0.646-0.738,0.91,1.254,0.575,1.531C11.146,38.282,11.483,37.437,11.093,37.315z
						 M14.106,44.866c-0.001-0.001-0.002-0.002-0.003-0.005C14.104,44.864,14.105,44.865,14.106,44.866z M13.907,44.495
						c-0.013-0.026-0.026-0.054-0.04-0.08C13.881,44.441,13.895,44.469,13.907,44.495z M13.699,44.061
						c-0.002-0.004-0.004-0.007-0.005-0.011C13.695,44.054,13.697,44.057,13.699,44.061z M13.547,43.69
						c-0.012-0.028-0.023-0.059-0.033-0.088C13.523,43.632,13.535,43.662,13.547,43.69z M14.866,46.024
						c0.014,0.018,0.026,0.035,0.04,0.054C14.893,46.06,14.879,46.043,14.866,46.024z M17.776,48.719
						c-0.012-0.007-0.023-0.015-0.033-0.021C17.753,48.704,17.765,48.712,17.776,48.719z M20.186,49.7
						c0.095,0.02,0.188,0.036,0.281,0.05C20.374,49.736,20.28,49.72,20.186,49.7z M19.631,49.562
						c0.056,0.017,0.111,0.031,0.166,0.048C19.742,49.593,19.687,49.578,19.631,49.562z M19.906,49.638
						c0.062,0.016,0.125,0.03,0.188,0.043C20.032,49.668,19.969,49.652,19.906,49.638z"/>
				</g>
				<path fill="#98C5E7" d="M10.902,22.011c0.296-0.916,0.939-1.484,1.148-2.487c2.319-3.419,5.583-5.895,8.799-8.417
					c2.279-0.91,4.668-1.71,7.461-2.104c1.084,0,2.168,0,3.252,0c-4.551,1.011-8.809,1.536-10.904,4.209
					c0.284,0.226,0.854,0.166,0.766,0.765c-0.354,1.241-2.028,1.161-2.296,2.487c0,0.063,0,0.127,0,0.191c-0.064,0-0.128,0-0.191,0
					c-0.025,1.592-1.527,2.548-2.487,2.104c-0.019-0.964,0.34-1.314-0.191-1.913c0.491-0.466,1.39-0.524,1.34-1.531
					c-1.276-0.124-1.864,1.009-1.722,1.722C13.838,16.813,12.132,20.159,10.902,22.011z"/>
				<path fill="#E0EEF8" d="M20.275,25.455c1.756-1.055,4.004-0.576,5.739-0.384c0.761,1.39-0.528,2.237-0.766,3.253
					c-0.78,0.058,0.033-0.265-0.19-0.765c-0.748,0.181-0.163,0.966-0.191,1.531c1.936,1.316,2.582,3.921,3.635,6.12
					c-1.312-0.051-2.398-1.918-3.826-2.485c0.02-0.491,0.713-0.309,0.955-0.574c0.006-0.451-0.329-0.563-0.19-1.148
					c-0.655-0.088-2.1,0.191-2.295,1.148c-0.824-0.262-1.456-0.713-2.104-1.148c-0.168-0.613,0.496-0.397,0.573-0.765
					c-0.479-0.676-0.861,0.932-1.147,0c-0.319,0.023,0.218,0.815-0.573,0.765c0-0.318,0-0.638,0-0.956
					c-0.73,0.162-0.64,1.145-0.956,1.721c-3.383,0.502-1.451-4.614-1.722-5.356c1.06-0.164,1.742,1.7,2.486,2.486
					C20.754,28.162,20.314,26.638,20.275,25.455z"/>
				<path fill="#60A5DA" d="M14.729,19.142c-0.641,3.326-2.948,6.588-0.957,8.992c-0.066,0.58-0.953,1.328-0.573,1.722
					c-0.78,0.176-0.981,0.932-1.722,1.147c-0.004,0.449,0.33,0.563,0.191,1.146c-0.757-0.646-0.787-2.019-1.722-2.486
					c0.249-3.494,1.062-7.83,3.252-10.522C14.069,19.172,13.948,19.3,14.729,19.142z"/>
				<path fill="#60A5DA" d="M12.051,32.533c0.027-0.427,0.481,0.249,0.956,0c0.093,0.726,0.731,1.659-0.192,1.913
					c-0.117,0.615,0.688,0.263,0.192,0.765c0.502,0.057,0.15-0.742,0.765-0.573c0.169,0.677-0.492,0.985,0.191,1.147
					c-0.176,0.213-0.355,0.06-0.956,0.191c-0.203-0.627-0.601-1.058-0.956-1.531c-0.133-0.514,0.395-0.37,0.573-0.574
					C12.491,33.191,12.597,33.033,12.051,32.533z"/>
				<path fill="#98C5E7" d="M11.667,36.74c-0.005-0.185-0.233-0.146-0.383-0.19c0.646-0.738,0.91,1.254,0.575,1.531
					c-0.712,0.201-0.375-0.646-0.767-0.766C11.298,37.137,11.152,36.61,11.667,36.74z"/>
				<path fill="#E0EEF8" d="M15.494,45.159c-0.619-0.147-1.002-0.529-1.148-1.147c0.817-0.193,0.512-0.834,0.191-1.53
					c1.474-0.915,2.628,0.72,3.634,1.147c-0.123,0.466-0.387,0.984,0.384,0.956c-0.224,0.351-0.501,0.648-0.766,0.958
					c-0.517-0.245-0.866-0.518-1.147-0.193C16.808,44.963,15.729,44.452,15.494,45.159z"/>
				<path fill="#D3E1F0" d="M32.711,9.194c-0.022-0.422-0.812-0.082-1.146-0.191c-1.084,0-2.168,0-3.253,0
					c2.014-0.417,5.125-0.28,6.697,0.383C34.028,9.536,33.617,9.117,32.711,9.194z"/>
				<path fill="#D3E1F0" d="M28.502,53.768c1.136-0.115,1.705,0.335,2.869,0.191c0.662,0.295,1.745,0.169,2.681,0.192
					c-2.296,0.507-5.104-0.127-7.271-0.384C27.355,53.768,27.929,53.768,28.502,53.768z"/>
				<path fill="#7CB5E1" d="M29.075,36.358c-0.017-0.221-0.215-0.1-0.189,0c-0.329-1.342-0.964-2.901-0.575-4.209
					c0.519,0.248,0.681,0.852,1.531,0.766c-0.18,0.944,0.231,1.297,0.574,1.722c0.585,0.139,0.562-0.33,1.146-0.191
					c0.038,1.517-0.748,2.3-0.573,3.442c0.165,0.537,0.996,0.406,1.34,0.766c0,0.383,0,0.765,0,1.147
					c-0.616,0.276-0.977,0.809-1.913,0.765c-0.078,0.46,0.349,0.416,0.189,0.956c-1.07-0.508-1.086-0.621-2.295-0.19
					c-0.267-0.627-0.797-0.987-0.764-1.913c0.363-0.083,0.346-0.547,0.955-0.384C27.54,38.15,28.72,37.091,29.075,36.358z"/>
				<path fill="#7CB5E1" d="M21.233,39.229c1.304,0.1,1.271,1.534,2.296,1.913c-0.435,0.843-1.198,1.354-1.914,1.914
					c0.245-0.931-0.764-1.611-1.34-1.722C20.639,40.406,20.619,40.062,21.233,39.229z"/>
			</g>
		</g>
	</g>
	<g>
		<defs>
			<circle id="SVGID_3_" cx="31.5" cy="31.5" r="22"/>
		</defs>
		<clipPath id="SVGID_4_">
			<use xlink:href="#SVGID_3_"  overflow="visible"/>
		</clipPath>
		
			<radialGradient id="SVGID_5_" cx="309.4033" cy="-330.3472" r="20.1748" gradientTransform="matrix(1 0 0 -1 -274 -299)" gradientUnits="userSpaceOnUse">
			<stop  offset="0.3067" style="stop-color:#4495D4"/>
			<stop  offset="1" style="stop-color:#306995"/>
		</radialGradient>
		<path clip-path="url(#SVGID_4_)" fill="url(#SVGID_5_)" d="M39.024,10.533c-1.492-0.293-2.781-0.79-4.399-0.957
			c0.008,0.051,0.002,0.097-0.015,0.144C33.594,9.576,32.556,9.5,31.5,9.5c-5.53,0-10.582,2.04-14.447,5.409
			c3.701-3.133,9.225-3.897,13.075-3.897c6.247,0,9.865,2.897,13.871,7.078c-0.245-0.062-0.653,0.479-0.957,0.478
			c-0.417,0.667-0.422,1.745-1.722,1.531c-0.617-1.936-1.243-3.859-3.443-4.21c-0.193,0-0.228,0.156-0.383,0.192
			c-0.074,1.366-0.271,3.67,0.193,5.165c0.018,0.369,0.712-0.298,0.955,0.191c-0.186,0.644-0.545,1.114-0.955,1.531
			c0.874,2.825,2.712,4.685,5.738,5.357c0.363-0.627,0.397-1.157,0.574-2.295c2.874-0.134,1.843,3.641,3.824,4.398
			c-0.16,0.477-0.249,1.026-0.191,1.722c-0.676-0.726-1.041-1.764-2.677-1.53C45.174,31,45,32.008,44.381,32.533
			c-0.093,1.751,1.228,2.087,2.487,2.486c0.006,2.855-0.622,5.311-0.766,8.226c-0.876,1.101-2.421,1.532-2.296,3.635
			c-1.928,0.36-2.235,3.039-3.252,4.209c-1.028,1.184-3.975,1.831-2.487,2.105c8.56-2.729,13.91-8.665,15.687-18.175
			c0-1.913,0-3.827,0-5.74C52.082,19.794,47.045,13.672,39.024,10.533z"/>
	</g>
</g>
</svg>
