<?xml version="1.0" encoding="utf-8"?>
<!-- Generator: Adobe Illustrator 16.0.0, SVG Export Plug-In . SVG Version: 6.00 Build 0)  -->
<!DOCTYPE svg PUBLIC "-//W3C//DTD SVG 1.1//EN" "http://www.w3.org/Graphics/SVG/1.1/DTD/svg11.dtd">
<svg version="1.1" id="Layer_1" xmlns="http://www.w3.org/2000/svg" xmlns:xlink="http://www.w3.org/1999/xlink" x="0px" y="0px"
	 width="64px" height="64px" viewBox="-0.5 -0.5 64 64" enable-background="new -0.5 -0.5 64 64" xml:space="preserve">
<g>
	<path fill-rule="evenodd" clip-rule="evenodd" fill="#E6E6E5" d="M31.499,9.499c12.151,0,22.002,9.85,22.002,22.001
		c0,12.15-9.851,22.001-22.002,22.001c-12.15,0-22-9.851-22-22.001C9.499,19.349,19.349,9.499,31.499,9.499z"/>
	<path fill-rule="evenodd" clip-rule="evenodd" fill="#28ABD8" d="M31.501,13.499c9.941,0,18,8.06,18,18.001
		c0,9.942-8.059,18.002-18,18.002c-9.942,0-18.002-8.06-18.002-18.002C13.499,21.559,21.559,13.499,31.501,13.499z"/>
	<path fill-rule="evenodd" clip-rule="evenodd" fill="#84D1EC" d="M31.5,19.516l1.998,11.991L31.5,43.498l-1.997-11.991L31.5,19.516
		z"/>
	<path fill-rule="evenodd" clip-rule="evenodd" fill="#84D1EC" d="M43.49,31.5l-11.991,1.998L19.507,31.5l11.992-1.997L43.49,31.5z"
		/>
	<path fill-rule="evenodd" clip-rule="evenodd" fill="#FFFFFF" d="M33.612,33.62l-13.436,9.192l9.191-13.437L33.612,33.62z"/>
	<path fill-rule="evenodd" clip-rule="evenodd" fill="#ED2441" d="M29.394,29.386l13.436-9.192L33.638,33.63L29.394,29.386z"/>
</g>
</svg>
