<?xml version="1.0" encoding="utf-8"?>
<!-- Generator: Adobe Illustrator 16.0.0, SVG Export Plug-In . SVG Version: 6.00 Build 0)  -->
<!DOCTYPE svg PUBLIC "-//W3C//DTD SVG 1.1//EN" "http://www.w3.org/Graphics/SVG/1.1/DTD/svg11.dtd">
<svg version="1.1" id="Layer_1" xmlns="http://www.w3.org/2000/svg" xmlns:xlink="http://www.w3.org/1999/xlink" x="0px" y="0px"
	 width="64px" height="64px" viewBox="-0.5 -0.5 64 64" enable-background="new -0.5 -0.5 64 64" xml:space="preserve">
<g>
	<g>
		<path fill="#FFFFFF" d="M622.56-345.329V406.67h-1184v-751.999H622.56 M642.56-365.329h-1224V426.67h1224V-365.329L642.56-365.329
			z"/>
	</g>
	<g>
		<path fill="#004F9D" d="M35.659,18.079c1.287-1.779,3.475-2.893,5.678-2.778c0.674,0,1.37,0.299,1.762,0.867
			c0.375,1.455-0.983,2.559-1.843,3.54c0.062,0.23,0.191,0.689,0.258,0.918c-0.4-0.013-0.795-0.069-1.187-0.139
			c-0.123-1.007,0.607-1.667,1.187-2.371c0.448-0.519,0.786-1.121,0.917-1.8l-0.041-0.025c-0.995-0.762-2.37-0.358-3.448,0.003
			c-2.105,0.724-3.347,2.771-4.19,4.713c-1.189,2.712-1.603,5.667-2.672,8.417c-0.668,0.834-0.959,1.883-1.437,2.825
			c-1.201,2.501-2.575,4.954-4.35,7.099c-0.842,1.107-1.86,2.074-2.659,3.213c1.474-0.639,2.777-1.596,4.163-2.396
			c2.655-1.559,5.223-3.346,7.223-5.719l0.119,0.336c-0.371,0.742-0.885,1.432-1.005,2.271c0.431,0.215,0.857,0.428,1.29,0.641
			c-0.413,0.309-0.828,0.615-1.246,0.918c0.079-0.816-0.021-1.625-0.413-2.352c-1.238,1.412-2.889,2.332-4.453,3.328
			c-0.481,0.305-0.518,0.963-0.754,1.432c-0.417,0.033-0.83-0.01-1.243-0.033c-0.351,0.357-0.705,0.713-1.071,1.057
			c-1.178-0.023-1.946,1.018-2.926,1.512c-0.282,0.215-0.515,0.486-0.751,0.752c-3.819,3.062-6.221,4.771-11.25,5.363l0.296-0.275
			c7.427-2.898,11.742-6.932,16.115-13.498c2.113-3.188,3.796-6.682,4.793-10.382C33.229,22.92,34.075,20.289,35.659,18.079z"/>
		<path fill="#A4CBF6" d="M42.39,16.293l0.041,0.025c-0.131,0.679-0.469,1.28-0.917,1.8c-2.311,0.4-3.94,2.398-6.229,2.896
			c0.674-1.646,1.74-3.268,3.383-4.062C39.821,16.356,41.142,16.474,42.39,16.293z"/>
		<path fill="#004F9D" d="M38.604,20.473c0.573-0.028,1.146-0.056,1.721,0.015c0.392,0.069,0.788,0.125,1.188,0.139
			c1.765,0.189,2.966,1.887,3.304,3.52c1.01,4.076,0.537,8.766-2.182,12.104c-2.745,3.398-6.912,5.215-11.019,6.371
			c-2.967,0.793-5.991,1.396-9.053,1.688c0.236-0.264,0.469-0.535,0.751-0.752c0.128,0.07,0.389,0.201,0.517,0.268
			c2.927-0.4,5.812-1.064,8.661-1.842c0.136-0.041,0.403-0.125,0.539-0.166c0.527-0.17,1.053-0.355,1.57-0.555
			c0.341-0.143,0.685-0.287,1.019-0.443c0.454-0.213,0.902-0.428,1.352-0.652c0.319-0.162,0.635-0.336,0.952-0.512
			c0.637-0.355,1.271-0.721,1.843-1.18c0.24-0.193,0.479-0.398,0.716-0.604c0.83-0.758,1.696-1.518,2.283-2.492l0.098-0.152
			c0.744-1.18,1.453-2.428,1.684-3.825c0.01-0.076,0.033-0.233,0.043-0.309c0.369-2.228,0.494-4.57-0.125-6.766
			c-0.02-0.076-0.059-0.227-0.08-0.302c-0.207-1.257-1.223-2.151-2.225-2.82c-1.098-0.111-2.223,0.003-3.329,0.038
			c0.946,0.38,1.963,0.098,2.938,0.261c0.026,0.153,0.083,0.459,0.107,0.613c-0.838-0.091-1.694-0.317-2.53-0.116
			c-0.05,0.199-0.146,0.599-0.193,0.8c-0.248,1.598-0.126,3.24-0.551,4.814c-0.263,1.159-0.816,2.259-0.867,3.463
			c-0.021,1.019,0.254,2.007,0.438,3.001c0.498-0.01,0.99-0.027,1.487-0.049c-0.451,0.557-0.879,1.133-1.368,1.654
			c-0.441-0.912-0.787-2.035-1.773-2.5c-0.177,0.787-0.215,1.596-0.148,2.396c0.39,0.256,0.774,0.51,1.168,0.76
			c-0.463,0.389-0.922,0.783-1.408,1.146c-0.236-0.934-0.556-1.846-0.993-2.705l-0.119-0.336c0.813-1.127,1.549-2.312,2.131-3.575
			c1.067-3.077,1.241-4.004,1.22-6.888C38.566,22.826,38.512,21.643,38.604,20.473z"/>
		<path fill="#C8E0F9" d="M38.834,21.242c1.106-0.035,2.231-0.149,3.329-0.038c1.002,0.669,2.018,1.563,2.225,2.82
			c-0.709-0.018-1.616,0.173-2.096-0.502c-0.229-0.439-0.314-0.929-0.413-1.406c-0.025-0.154-0.081-0.459-0.107-0.613
			C40.798,21.34,39.779,21.622,38.834,21.242z"/>
		<path fill="#A4CBF6" d="M39.349,22.001c0.836-0.201,1.692,0.025,2.53,0.116c0.099,0.476,0.184,0.967,0.413,1.406
			c0.479,0.676,1.387,0.484,2.096,0.502c0.021,0.076,0.059,0.226,0.08,0.303c-0.736-0.028-1.474-0.042-2.211-0.049
			c-0.43,1.628,1.081,2.576,2.27,3.279c-0.771-0.167-1.537-0.352-2.309-0.505c-0.025,0.567-0.035,1.132-0.031,1.695
			c0.656,0.922,1.533,1.646,2.408,2.347c-0.01,0.076-0.035,0.233-0.045,0.31c-0.896-0.595-1.793-1.396-2.917-1.448
			c-0.597,1.876,0.816,3.521,1.234,5.273l-0.098,0.152c-0.697-0.824-1.421-1.629-2.196-2.389c-0.233,0.256-0.458,0.512-0.685,0.773
			l-0.227,0.27c-0.497,0.02-0.99,0.037-1.487,0.047c-0.186-0.994-0.46-1.983-0.438-3.001c1.095,0.334,1.974,1.068,2.835,1.784
			c0.091-0.378,0.182-0.758,0.265-1.137c-1.46,0.076-2.794-1.56-1.987-2.914c1.083,0.212,2.107,0.63,3.172,0.926
			c-0.249-1.059-1.504-1.01-2.231-1.58c-0.604-0.285-0.416-1.055-0.542-1.587c1.08,0.007,2.139,0.243,3.215,0.352
			c-0.595-1.166-2.178-0.738-3.006-1.614c-0.081-0.345-0.141-0.696-0.178-1.051c0.966-0.081,1.935-0.081,2.903-0.116
			c-0.129-0.794-0.987-0.487-1.548-0.616c-0.578-0.015-1.027-0.418-1.48-0.724C39.203,22.6,39.299,22.2,39.349,22.001z"/>
		<path fill="#004F9D" d="M38.604,27.616c0.425-1.573,0.303-3.216,0.549-4.814c0.453,0.307,0.902,0.71,1.48,0.724
			c0.561,0.129,1.419-0.178,1.548,0.616c-0.969,0.035-1.938,0.035-2.903,0.115c0.037,0.355,0.097,0.707,0.178,1.051
			c0.828,0.877,2.411,0.449,3.006,1.615c-1.076-0.108-2.134-0.345-3.215-0.352c0.124,0.532-0.062,1.301,0.542,1.587
			c0.726,0.57,1.982,0.521,2.231,1.58c-1.064-0.295-2.089-0.714-3.172-0.925c-0.807,1.353,0.527,2.99,1.987,2.913
			c-0.085,0.379-0.174,0.759-0.265,1.137c-0.861-0.716-1.74-1.45-2.835-1.784C37.788,29.875,38.34,28.775,38.604,27.616z"/>
		<path fill="#C5DEF9" d="M44.526,27.557c-1.188-0.704-2.699-1.65-2.27-3.279c0.737,0.007,1.475,0.021,2.211,0.049
			c0.617,2.196,0.494,4.538,0.123,6.766c-0.873-0.7-1.75-1.424-2.408-2.346c-0.003-0.563,0.007-1.128,0.031-1.695
			C42.988,27.205,43.755,27.39,44.526,27.557z"/>
		<path fill="#C2DDF9" d="M41.631,29.956c1.124,0.052,2.021,0.853,2.917,1.448c-0.229,1.396-0.938,2.644-1.683,3.825
			C42.447,33.477,41.034,31.832,41.631,29.956z"/>
		<path fill="#A4CBF6" d="M36.519,33.188c0.986,0.465,1.332,1.588,1.773,2.5c-0.055,0.049-0.162,0.148-0.22,0.201l-0.301,0.26
			l-0.233,0.195c-0.394-0.252-0.778-0.504-1.167-0.76C36.304,34.781,36.342,33.975,36.519,33.188z"/>
		<path fill="#BFDBF9" d="M39.889,33.766c0.225-0.262,0.449-0.52,0.683-0.773c0.777,0.76,1.499,1.564,2.196,2.387
			c-0.585,0.975-1.451,1.734-2.282,2.492C40.439,36.484,40.189,35.117,39.889,33.766z"/>
		<path fill="#A4CBF6" d="M39.66,34.033l0.229-0.268c0.301,1.352,0.551,2.719,0.597,4.105c-0.236,0.205-0.476,0.41-0.716,0.604
			c-0.479-0.914-1.036-1.791-1.697-2.586c0.056-0.053,0.163-0.152,0.22-0.201C38.781,35.164,39.209,34.59,39.66,34.033z"/>
		<path fill="#9BC7F6" d="M35.137,34.785c0.438,0.861,0.757,1.771,0.993,2.703c0.486-0.361,0.945-0.756,1.408-1.145l0.233-0.195
			c-0.071,1.17-0.004,2.348,0.155,3.506c-0.317,0.174-0.633,0.348-0.952,0.512c-0.296-0.887-0.583-1.799-1.141-2.562
			c-0.337,1.039-0.378,2.143-0.212,3.215c-0.333,0.156-0.677,0.301-1.018,0.443c-0.101-0.824-0.243-1.645-0.594-2.402
			c-0.699,0.826-0.915,1.902-0.977,2.957c-0.136,0.041-0.403,0.125-0.539,0.166c-0.072-0.717-0.167-1.428-0.292-2.135
			c-1.168,0.527-2.378,0.959-3.646,1.174c0.236-0.469,0.271-1.127,0.754-1.432c1.563-0.996,3.215-1.916,4.452-3.328
			c0.393,0.727,0.493,1.535,0.414,2.352c0.416-0.303,0.833-0.609,1.246-0.918c-0.434-0.213-0.861-0.426-1.291-0.641
			C34.252,36.215,34.768,35.525,35.137,34.785z"/>
		<path fill="#BDDAF9" d="M38.072,35.889c0.661,0.795,1.218,1.672,1.697,2.586c-0.571,0.461-1.206,0.824-1.843,1.182
			c-0.159-1.16-0.227-2.336-0.155-3.506L38.072,35.889z"/>
		<path fill="#BFDBF9" d="M35.836,37.602c0.556,0.766,0.845,1.678,1.139,2.564c-0.448,0.223-0.896,0.438-1.351,0.652
			C35.456,39.744,35.497,38.641,35.836,37.602z"/>
		<path fill="#004F9D" d="M32.187,38.172c0.704-0.174,1.205,0.006,1.5,0.547c-0.552,0.383-1.134,1.059-1.891,0.781
			C31.922,39.053,32.049,38.609,32.187,38.172z"/>
		<path fill="#C1DCF8" d="M33.034,41.816c0.062-1.055,0.277-2.131,0.977-2.957c0.351,0.758,0.493,1.578,0.594,2.402
			C34.087,41.461,33.562,41.646,33.034,41.816z"/>
		<path fill="#004F9D" d="M30.347,39.441c0.535-0.521,1.213,0.371,0.452,0.637C30.253,40.594,29.655,39.771,30.347,39.441z"/>
		<path fill="#C6DFF8" d="M28.557,41.021c1.269-0.215,2.479-0.646,3.647-1.174c0.124,0.707,0.219,1.418,0.291,2.135
			c-2.85,0.777-5.734,1.441-8.66,1.842c-0.128-0.066-0.389-0.197-0.518-0.268c0.98-0.494,1.748-1.535,2.927-1.512
			c0.365-0.342,0.721-0.697,1.07-1.055C27.727,41.012,28.14,41.055,28.557,41.021z"/>
		<path fill="#004F9D" d="M50.692,20.668c-2.891-4.936-7.584-8.929-13.159-10.414c-4.583-1.205-9.557-1.048-14.009,0.618
			c-4.941,1.89-9.005,5.726-11.542,10.331c-2.509,4.714-3.064,10.353-1.876,15.527c0.903,3.947,3.065,7.549,5.933,10.379
			c0.208-0.127,0.417-0.26,0.622-0.396c4.421-3.191,8.11-7.326,11.052-11.904c0.903-1.457,1.717-2.974,2.436-4.53
			c0.247-0.536,0.47-1.079,0.688-1.623c1.157-2.736,1.574-5.725,2.87-8.409c0.891-1.849,1.991-3.787,3.91-4.723
			c1.763-0.888,4.23-1.549,5.817,0.014c1.174,1.657-0.589,3.358-1.701,4.483c1.649,0.442,3.064,1.758,3.492,3.428
			c0.666,2.175,0.865,4.515,0.486,6.763c-0.053,0.441-0.119,0.888-0.205,1.326c-0.051,0.201-0.15,0.609-0.197,0.811
			c-1.529,5.29-6.521,8.583-11.494,10.208c-3.481,1.205-7.121,1.865-10.77,2.291c-1.579,1.092-3.069,2.322-4.641,3.432
			c-0.146,0.104-0.441,0.32-0.588,0.426c3.928,3.256,9.058,4.979,14.149,4.738c7.026,0.127,13.688-3.828,17.657-9.518
			c2.393-3.283,3.553-7.289,3.883-11.301V30.54C53.263,27.107,52.438,23.662,50.692,20.668z"/>
	</g>
</g>
</svg>
